<mxfile host="65bd71144e">
    <diagram id="BjxF6p-I6msiILxG2x1k" name="Page-1">
        <mxGraphModel dx="1172" dy="548" grid="1" gridSize="10" guides="1" tooltips="1" connect="1" arrows="1" fold="1" page="1" pageScale="1" pageWidth="850" pageHeight="1100" math="0" shadow="0">
            <root>
                <mxCell id="0"/>
                <mxCell id="1" parent="0"/>
                <mxCell id="7" value="" style="whiteSpace=wrap;html=1;fillColor=#2BA283;strokeColor=none;fontColor=#ffffff;rounded=1;" vertex="1" parent="1">
                    <mxGeometry x="50" y="240" width="750" height="430" as="geometry"/>
                </mxCell>
                <mxCell id="5" value="" style="dashed=0;outlineConnect=0;html=1;align=center;labelPosition=center;verticalLabelPosition=bottom;verticalAlign=top;shape=mxgraph.weblogos.aws_s3;rounded=1;shadow=0;" vertex="1" parent="1">
                    <mxGeometry x="85" y="260" width="225" height="150" as="geometry"/>
                </mxCell>
                <mxCell id="8" value="" style="verticalLabelPosition=bottom;html=1;verticalAlign=top;align=center;strokeColor=none;fillColor=#00BEF2;shape=mxgraph.azure.computer;pointerEvents=1;rounded=1;" vertex="1" parent="1">
                    <mxGeometry x="85" y="434" width="230" height="156" as="geometry"/>
                </mxCell>
                <mxCell id="9" value="" style="shape=image;verticalLabelPosition=bottom;labelBackgroundColor=default;verticalAlign=top;aspect=fixed;imageAspect=0;image=data:image/png,iVBORw0KGgoAAAANSUhEUgAAAggAAAEHCAYAAADLQr4rAAAAAXNSR0IArs4c6QAAIABJREFUeF7snQV4FcfXxn97Lbm5cQ8e3N2luLbF3b20tLi2tLi0OBQplCLF3aWUEiBAcHcCIUBIiHtybb9n9yYB+u9XShXZeR4erszOnHl3bubdM+e8I4iiKKIUBQEFAQUBBQEFAQUBBYHnEBAUgqDMBwUBBQEFAQUBBQEFgV8joBAEZU4oCCgIKAgoCCgIKAj8DwIKQVAmhYKAgoCCgIKAgoCCgEIQlDmgIKAgoCCgIKAgoCDwcgQUD8LLMVJqKAgoCPxNCMSmJbP3znni01N/t0UBgaJeOaiZu8jf1LPSjIKAgsCrIqAQhFdFTKmvIKAg8MoIRKYkMDtoD6ce332la7UqNSOrNaN2nmKvdJ1SWUFAQeCvI6AQhL+O4VvVQqrJSMvNs5jdoCuFPbK9VWNTBvPfICBlUnfZ/i1PkuL+tAEjqjalYb5Sf/r6d/1Cq9WKSqX6f2G4E/OEwT+tQvr9S6VS9gIMrtwELwfndx26d3r8CkF4p28/SH84bt68SVRkNPnLFsPb4EKKKR2D1p4L58+jVqspWrQodnZ27zhSyvD/LALddyzkYUL0n70867rlTT8ml4vnX27nXWwgNTUVvV7/m0O/EfWYT/f98D/fudkb2NxmyLsIlzLmDAQUgvCOT4V169Zx5coV2rdvT44C/rjaG1AJtieN27dvs2fPHm7fvM2i7xa940gpw/8zCJitFpptmEGa2fZkmlmKaHXcMBlQC7FY/qBU2xfVW1DHv/hLzUgzmtFqVJhEEXu1+n/qm8wWtJr//fy3Gv7l4H4qVa+DQa+Tv7YA/9+VUTcv4Fm4zEvt+y8q/B5BaLlxJvHpKb9pVqXs+ZlSp8N/YbLS52uAgEIQXoOb8F+asHz5crn7Hj16/KYZBw8eZP369Xy/7HsuhIdQxicPgiAQcP8qVXIWYtONU3QsXpUkYzp6jQ6tWo3RbCLo8R0qZMuHxSqi12pRqdSkmtJZdimAGjkKUdo3z385bKXvfwkBo8VM47VT/6e3TQ26cNvkQHDkaSLSVcRiT0lPD3IbHFl85hBpJjMRKS96HZx1era1G/ZSy/u0603/mbOw16ai1zpw4twtrmzexNjpoxEw8yhJQ95sri9tJ80YgVX0IN1i5dat21zce5SCtarj76sn6cZ+XH1zcVtbhpSYJ8ScW08pV088W/QjKt2O0KtXqVylHN5O2pf28/9ViI6OJiU2npz58/5OG1YuX75CXFIU71Wt+//W+z2CUPfHiVnXZXNyxmLNTUTyFfkzFzsHtrYd+qfHoFz4ZiOgEIQ3+/79Zevr1avHlClTcHV15dixY5QrV46AgAAMBgP58uUjf/789O3bl3nz5pE9Ty6+PbOfDsWrcz3ykfzUcTv6CVpBRV53X3k7wtPeidsxYUSlJRKVmkQD/xKkGdOpm7ckX5/cjou9I7VzFqNcNv+/bLvSwOuPgEQQmqybxq8V3ce6eTA+1p+uxY2423lwPlVFlex5qOKdjY1XjnHiwRVC4l8kCMW9cjK3UfffHXRkaDBXH0ZybNl0KnRsi9qxMNdPBuCuNhKRksbAAYO58yiSYgVfPv/SjUYWLFxImRpNWD1nEv5uflhyFsBZl0r9Yrm4ev823sWqczroMg6Rhynr6EaIXwmq1GrE5hULaNh7HKVzOf21m5SSDA6G3yUIIBDx9A4+3gUVgvDX0Fau/hUCCkF4x6dEnz59eO+992jYsCHnzp2jfPnyckxCQkICvr6+JCcnM2niRDZt3sy20Eu0LFiBi+EhlPTJxc8hV3gQH4XFaqVh3pL4GFzZcPUY7YrXQKvSsOjCIXqWfI8LYfdxd3Rk751zuDo4UUsiCH4v/wP9jt+at2L4EjFov3UuUSmJf3k8cxp2o4R3rr/czt/RQMqTi6zZdJg+Awb/Hc394238ngdh1KG1nAkL/k0bPipbj7bFqvzj9ikdvJ4IKATh9bwv/5pV0haDFKjYq1ev3+zzwIEDbNy4kWXLlv1rNikdvV0ILD1/iPXXTvylQakEgZ3tRqDX2mIBlPJqCPweQZDIW7+93xObmvRCo0r8wath/DbWVgjC23hXX2FMgYGBcvyBFOF8+fLlF65s2bKlHMDYtm1bJk+e/AqtKlUVBF5EYNyRTRwLvfmnYJFiXg50+hx1RvDsn2pEueilCEw8uoXAh7Z7NLjS+zTKX/ql1ygV3m4EFILwdt/fPzS6+Ph4zGYzHh4eL9SPi4uTvQvu7u5/qB2lkoLA7yFwKyqMIQdXkWY2/WGg6uQpxkfl6uPp8Bf38v9wj0pFBQEFgUwEFIKgzAUFAQUBBQEFAQUBBYH/QUAhCMqkUBBQEFAQUBBQEFAQUAiCMgcUBBQEFAQUBBQEFARejoDiQXg5RkoNBQEFAQUBBQEFgXcOAYUgvHO3XBmwgoCCgIKAgoCCwMsRUAjCyzFSaigIKAgoCCgIKAi8cwgIaWlpf/ColHcOG2XACgIKAgoCCgIKAu8sAooH4Z299crAFQQUBBQEFAQUBP5/BBSCoMwOBQEFAQUBBQEFAQWB/0FAIQjKpFAQUBBQEFAQUBBQEFAIgjIHFAQUBBQEFAQUBBQEXo6A4kF4OUZKDQUBBQEFAQUBBYF3DgGFILxzt1wZsIKAgoCCgIKAgsDLEVAIwssxUmooCCgIKAgoCCgIvHMIKAThnbvlyoAVBBQEFAQUBBQEXo6AQhBejpFSQ0HgnUQgJSkeUbSSmJRGckocKlENCDIWoiDi7OyE3t4eSWkt/Gk0atEKogoEEREBlVqNl6erXN9kthAbE4P8TYY0m4gFJyd3HBzs5DqxsfGYjOkZXYhSJ/LnXj5etvYQCQuPRLSq5DZsXwuo1Vp8vZ3l69LSjCQkxIBcO7MIODm54GCvk+tExURiNb2oD2dVifh4eiMIAkajibjYWPl6mwVSXwL2entcnJzk99HRsVjMFkSsCLJ10si0eHq5oVKpEEWRsLAn8qfPF3s7Ozw9PW2YpIvExSXKuKplzES5f72HPXZqjVzHHJuEkG6U7bDahgsqAbWEqyAgWkTiU1MRVWYEUS3fFwkbtUqNs15vs91kQrSY5DFkFpVkls4OZFutpItpaMRn1goIWAWwVxtwcLTdQ6W8ewgoBOHdu+fKiBUE/hACmQShSs0WpKeZM5YoVeaSiburgZ/2r+PGjbt07TEYEem7zAVRkBe7r6eNom6tqgwaOoFjx0/aCIS80NnIhJ3OgcM/ryY4+D49eo3CLJrw9vakYoXy7Nl7ENEqUqxoAVYun0WbFos4cuSmrQtBIgDS4qySF9eVP/ahYZNiVKvVmrTUNAz+IsmhAtIqJwgi+fLmZsPq+YSFRdKsdR+s1kw7n9m7cP44KleoQN9+wzl78TICGqwGM46+LiQHJ6PTaDh5fCvJSSnUbdgJk8mCHRbyWdK4pnaQx5snlx9bNy1h0qQpTPtmhm2s0pDl1R00Gg1bNq2jRvXafFTlFKpUGLmiDC6uDsQ9imPz6PN46tX0/qU65p8vEjNuHYJFlMmQTIoySIKhb32cejWg68atxFuE50iXjUNoVQKr23yITiMgHjmGIArci4jll/N36N6gPFqVCqu3N+qihQlJuk5w8mmZXLxQRC1V3dvh5e79h+aLUuntQ0AhCG/fPVVGpCDwtyBgIwhmylZqipe3m+wBcHBwkp+WtTodkdGxnD2xjSnTFrF1+8/yM7ttkcn0EgjY2dtx4uhmKlZthtlixaC3J7+9Kznuwm7PcHnhGjm0F25u7nwxbiabN33PyJGTiY9LoN9HnTnw8xHuBT9g385lvFdzFjeuhmFvbyAtNSXDUyH1JTB/QWty+dvx2aDx6AzQa1tZ9n0VDAYNLq7OXNpyj/OndtKi7cc8eBD2gnfAtnqryJHDix1bllKuUjNS7OyoP7Uirvn1pMan8EvPQKxm+H7hJLJn82Nk8+70EZLxUYGuWw/O/bCMx1YNKwUHzgTtoWGjJpw7eYqhgsABmdAI5BBFdgLt2rZi7Mg5TGh5jUp1XLl15AmOWjV6lYXOc6uwc8gxOm2qgjB/MymHLmFXsSCG0nkR41NJM6eTvuUU+volsZvYiTYbtmPJuNsy9RIlTqSSScLqdk1xjooj/doNmUA0/nIJznoNX3VuTLHcfrILRlenKpvu/wBqK+V963Dp6VF8HfMRlxZFUnoUDjpX2hTq+7fMJ6WRNw8BhSC8efdMsVhB4F9BIIsgVGhK3bo1uXb9OuXKF+fG9ds0aFCfRUtWcPb4NqZ+s5h7IQ8xpacwdPgAdu8+QIECeeWn+xmzv+P0sW1UqCKRDFe8vJxJizOS9xoUS/bgW59rfDa4G15ePqzdtIs8Ob0oV64yWq2AxWLh7LmLnDx5gX27VvBezencuPKEqdPnsHnjWm7cuEbTD1uyZ89Opn5dD99sKgaPmEKppl4UbuiLa0EHzm55iB43ji+6yvlTu2jWqi+hD59Qq3sPAtevQyMIjBo1jK+/no6LiwP7dqykbMVmlGu7GdFZIPZpCB5e/qTFJXN5azcWzRtNjuy56f5hRxbrzXi0aoXRz48zc+eSjoopuHA2aCf1GzQm/fQZLonw/odNORV0ElVUJDlEFfnatmDCiNk8CdGxadQJcvo7M2BbNebXPog63UTJFtkp2T4nzNuEqFJhuRqCJdWI7+IB2JXOT/y6ANICL2I/pRs9d+6ncYEipJnSSEhJoYCvN+GJRjz0Gurkz4lDeBzJl0J5FBXNsO/XMLlnJ0YsXcuWLwbIbMK5SXGW3vieXE45KedbnVsx17kXf4tCXkW5FH4WZzsXepbs/6/MN6WT1w8BhSC8fvdEsUhB4LVAIJMglK/cnF492nPg4DEiI8PQaPSMG9SMMdNWcPTobqZNX0zw/VCMxlSGDf2MVSvWkz27nzyGjdv2curoVipUaY6nt4O8reAvulH5gj0huhTC9elU/aIJ3l7e7PvpCDqdHSNHDmLc2GlEx8Xg6eHGrZv32btrBTVrTsfLrQjFSpYCKd4BFVeuXCQqKoL+nxXBL5vAsOHTqNrPk5+/v0Op2oVwyGlH7J1UQo495fyp3TRr1RunIiWo0qo1T0NDiT5xnC9GDuHA/oOs37CG/TtWULZSM8q3346oc+HOhTnkLd6D4Cs/En9tE4vnfkX27Llo1OYjdgjx5PthKXEPH3H/yBFCDx5mPC6cC9ohE4T402e5p9Uybdo0wsLCmDFzJr0RSWzTivEj5pA9ly9jq+2jx7flSX6SjsFR5Miki7TfVAeTORlx3mZUj2NJCY9C9HJEsLfHf/NXmCNjiRq7Ev2Ubgz7JYDY1GTyuvnSoWQR1l24SgFPDxoWL4TOYsb+UTLR5yPYdfoUV+/doX/TFvSdP4Pv+g/DzeCEd4s8fH3+W8p7l0arc+BpwmPMKjOJxhTey/MeR0J/YXD5wa/FfFSM+PcRUAjCv4+50qOCwBuBQCZBKF2pOX0r3efIPQ8c7VTEJAmU9tdxOSSRjXsCmPL1Aq7fuIfJlE7nLm1YtWoTLs62YL4bt4MJOrKZ8lWb4WhwwNvbBVJNVLvgTLg2iX1ukQwf2FX2IKzesIMnj58QFRXP+fM/U658Pdq2a0LAL6fYu2ulTBDKlWnCj6u+p2+/QVy+dBYnJ2eCTh5jyjcNyZZNYMFPK3h8LgZ7T0eMUcm4FPIDlZaoqEiCVq2geauPePgonKIN6pO7eAliwp+QLS2FbVt34Ovjzt6dKyhb8UPKt9+JVePIhYDPyVuqE08fBhJ/dT2L544le/acfNi6L1u97XCpWJ6LO3dQavoMfho1mumiI+dP7qZe/cYYT58h3MubJ5FPqfleTWKPHiEOgcptWzFlxCxO/hjFvV8e02h0UYImX6f+FyU5s+ASuSo4UqRfIaxzN6O2t4PQSNLN6WTfOA5RJxA56DsEYxr2U7rSddsePq/fgHSzma2XL9KiZAkiExIJjoula/GiaB+ZiTgVS0p6Cu7ptxBMKaS7VibFakKvcSBnRw8+D5yLGpECXoVJNyUQEvOY+gVqcfBeAO7OroyrMuyNmK+KkX8/AgpB+PsxVVpUEHgrEHg+BkHe1BYE0qUoe7PkCJBCBEXOHN/KN9OXsHn7vmcBiFmjF9HbaTl+dAuVarTEZLTtlhf28OV6VASorHL8wJhR/XBydGLkmOnMmzuJeXMXU7RIQUaOGkiz5t3QqFXywi1vMVx98gK28va+FIOwqA3+ee34NmApYQ+jqdX9A07MDqTgkJrEX4kh1Whlfd/PaNf+U4LvPXzx/mQETObJ7cPWjUsoW7kpnkU74ZGvIVbRyMMb21CpNSTf2sHyJVPx8vbmw+a98cDILJWJMGsaN616lqsMcibHmVO7aNLkQ44fP0Eb4CZQBTgrqDgvWmnXvi1TR87k+45naNS/OOdW3kBntuCoV1OyY14erLpGtdXVMc3dSsrPlxCk7AIB1BYpAFGFUWvBUL8UhvGdablhG0jZJdIYsoJEpSgRK+vaNkN8BA8DUhBFFSrBhM+FGjwpfRQBOwTBSuFuBgYcmoFRZaaWbzmCU2LwcXLCU+PMgftHyeHkx5R6Q9+K+awM4tURUAjCq2OmXKEg8E4gkJnFMGj4BI4ePW0L7JPS8eT8QoHOnVoydEA37oeE0rrdp5mB+jKXsNUVOPTTGtycXBj5xRQOHjohf/N8rLyLsz0/H9gopwxWfa8VUnKBk5MDKo2alKQEzCbo378jPbp24HjAbZq1WGTL9XuWsYfaquZ68Dg8PBzp1P1Tbtx8gEreggDBXo01zULlymVYOGcKyWkJ1K7bBYvF9ByNkcwSWbZkKuVKleCHNZuZN28lUuqjWgSzTGTU5M/ny+Y1SzGbLDRo0o24hDg0ImgEE+mCRsZl+ozPqVejKqvXrKXfx5/+ap4IqFQCjx7ex8lgYGHjQFRJ4OyoQadOw1mjRp2WjmsuR8ourYo1PpHoRhMRLRkpEBmtSUN3mt0dh+rF+fn+E+adDHruG9tLV72WFc2aYNVYuLFahSlZTghFMCciShkXgG8VDb7FTVx8cocpQWvR6KTUSluqpUQw1KKaZU1G4Obi+4/PdyktVPpntb441n+849/oQBq/lKoqz5/nUkP/C1v+6z4VgvBf3wGlfwWB1xSBTIIgLRoxsbFY5CdY2+Kv1UjZAdI2ghQxL2IVRaKjJf0B6VtbuqOkk2Cn02WlPiYmJcs6Bc+KFQ9PD7kFqVisZmJiYjOut/Vkb6/FSc7Dty0ciUmppCSbnqMZIh6ezrKXIdM2yQ5pscl8r9PpsrY8pDbMFgtxsfHPpWSKuLq5osnQHrD1kyTbatM3kFIlwdPTLUubQRQsREfFy8TC5sUArb02QyfBNp7UtBQ5G+NZEfHw8ESrlRZiW5202HQ5nEJCTOpDUKvQuGif8R9JwyAh7Vn2qFTP2Q502ow2ROLSTc8WVtG2qLnq7Z7nUJhSpJHYikzvNKDWSWmiGbaa04hJTkIQrbJegvSpl7M7WpUGw9+gg/Bbi7/02ZtWfk0YpPeZ/960sfwRexWC8EdQUuooCLyDCGQShO3brnLs2DX56T5zQZGehJs2LU2NmgVITUtlwcIVGE1mLKJNokhaVO21WoYNtaXIHb/wkIALDxHNNv0CaVWUhJIK5/agXaMS8rI1e873JKem2rwMAqhEAUGlolfPNvh4eZGebmTWvGVYzDZxImkhk3qy1+oYMuQj1ILA4aPHOX78/DPRAKkdQUPRonlp9mED2a553y4nKVF+pM4qWq3UT0c83Vy5fOUGu/cdxio/udv6kaoWLZKPls0ayov1mfkG4mJVGTJJmR4TMzX7m9F7mIiOTmPjrrCsNjJXeL2Dmp4d8snj3bhpB3eCH8lkJosBqFSUKVWY9xvVlbgHMzddxWgyvUAQNBo1HzUtjIuDloRIE+c33JOJSwZVke+Rk6sD5brkkK/bdiGa0KfJ8utMPQWVSkODki4U8jMQ8TSS5au2YDaZM9JUBZn4uLo4M6B/91cSSsr0BEjAPv/6Xfn5ZBKI5/9/k70QCkF4V2auMk4FgVdEQCYIpOLpOsr2NP7cgmprSuRp1Ez2HDjC2HGz5X3wT1IjUIsi8/TZJC0+ShYrxvJl3/DB4M2kpQkUzevGqSshzP/iAyqWyEP7Iav5onc1Ih/fYdjIaXKrlnxVyF6xEsmXAkm8cZoc2bKzY8syOnbpz+0792iUGE6qgyNCQjQJRitnff2Z8OVgKlcoR6MPOyMIKgwOBuo3rMXly9cJvhuMg4MDxw5vYN78FaxcvTXr6dvBoCclWSIl0KbN+4we2o+a9duRmJgi1ynuEUtEko7IdEcQLBzcuxoHXFhawwOTWpT0mrCKAmar9L+kTmjh83PxzFp8m4DAcArm86RcGS1qlcClqyYuX4+k1Qc5aVzXmcYf9LQRGax4qhyJsqZk6DOI/PLTOpbsvc/mI/fJ4e1EleI+XLwdzZ3HcTK5alsrL0PblmBx0+OoLDpKNM+BLrcJ8yMNl7bfxyKa6bOpBk/TrfRYdIsGZb3lbRc7O4Pc5/nr4aRarKz9rBCjvpjGT/L2TwbRyZgnEuEYNeITenbv9JszJ5MAvItE4BV/SlnVM7cuZE9Ohvfhz7b1b1ynEIR/A2WlDwWBNxABG0FIwtPtC/LkzUfBQsX5ad+OrGVEWkCePv2GcRPnsmf/UewtImNTL2ERnVhq78UDnRN2Wi0nj22hbMcVfN6nLhVL5KBxv6Xk9HNjQPv6DJ+5ms+7VcDLwcioMTMQ1To0uVtRfURX4u/e4OLMwXh5urF31yo6dh7A7eAQBhVyp/57tbk3ZCjD85Qm3V7P+C8HybELw0ZPo3GjhuzZsz8L8fLlinP23OUsHYSHjyLwz5uT6tUq8+EHtYiNSeTj/qPw9nZj746VlKnYDEetkWwu6XJQ4OdlrzLnXD4uxLizcN5XFMlWheVNnLHLb6HnUhXJsSYClqq5vk8tr7BjrsQzYtwVzFYr382uwY1b0TIJKFDAnX6DAsidzZkPGqjp0OUzeTtFpXait11hlicGYlLbySRhx+bFLNofQXhsCusmNOFeaDR5c3nR6at9XLn3lFplsjOtZzm+a3mc/ruaoFXD07vxuOY0EHo6hj0TztB7cw0OP0hi+s77lMjtJHMROzstZfN5cPbWU87eT+bgqCJUrdGcNJOFfIUL4pczB24e9sQ+juPSxYv4enuze9fqDC+HzSvwOsQJvIE/p981WSIOv/Y+vA5jVAjC63AXFBsUBF5DBGwEIRlPt9G8V7Mevn652Ll9PRMnzuJB6G2WLl3Mg9CxjJ84TyYIw9IekYyOp9KeumBkk0N2dDotQUe3Uq7995xaN5Cx3+6jUDYPOrUuJy+OQ6btpmIhPR4GE5+PmY6mcA/UGh35ahfHNXdeTo1shbu7XiYInTp9RlL0KTpfiSB/UhJP7BwY619a3rwf99VAnJ30jJ0wj8TERECNzk7H19O+pHHD2hQuWpXzp/bIOgiPHj8lRzYvNqxfKqO+a/c+0s0Ca9estxGESs0QVVayGWBZgxu4DA3F+PNoFn6/idrDVsoE4fsmzujyWijTAJ4+EMlZXMWBb1SyF2Hs1XiGjb9M9Sp+VCzrRb9BP4OokaWoJa9Kzap+fNBQQ4fOUhCjGj/PTlRIeYjrkxWscvF/jiCE06R6UbCmMWTeYQz2ehy0AkYRyhZ0Z1rPCqzvd5E+G+uwsmcgUbdj5S0Zj2IGYu8n02NFVQ7fT2T6rgf80Cc3vgYVLh7ZEQUr/ZZc50poIgdHFZYJQv7Cheg/eQZ+LhoSkiAtOYKP2nYif768bN+28jWcne+GSWq1+j8NlFQIwrsxz5RRKgi8MgKZBMHDbRSzZy/FZDGybOkSevfpS8iD+yxbuoAHoeNtBGHfEUYl3UcnpmEQ7TBqVXxhyI1eq+Pksa1U7PAtPVtW4+bDOPq1qYS3mz01On0rp0p+0aMC3gYzo8bOwb7MACmKkGw+MXhWa0Pkuf0knVgn6yB07DSIR49v0/7qeYqYTRxx9GFPjgLy0/m4rwbh7OTA2AlzSUxMksnH6h/nYzSmU7VKJQoXrZYhlNQHDy83rOY0hgwaSIGC+bh69QY7du3i/Pmr7NmxShZKmlb1Ip52KVSdeI/qn6xjYOtypG9qR44+aynuV43F7zthl9dMmYZweouZ9z9Xs36gFosoMuFqgkwQKpR0o3bNnPQe8EvGYVPyfgTvVffjwwYq2ncZIHscDMKXDGpzE//N8+ll8ZMXBJsHIZy6VfKjE2DYvACc9Va0BiesZjOl8nowrWd51vW9SN9NdVjd4yhPguNkguCZ05GEuyLddpTl8P1Ypu8IJaebhRSLgxwMuWZwWYauuMnlDIJQpUZz1DqdfPCWxt4Ob09Xrl2/g9VkoUD+3GzfuuqV545ywT+DQGaGxb8V16AQhH/mPiqtKgi88QhkEgQfr7EUKFCQe8F3qVqtJiq1lFOvIiDgJx49niQThH37jzA1IZhVdm6ka+35KPEJw1xzYq8zcPLoViq1+5Zhfetz/kYkI3vWwNvTmXz1xsuL+xc9K+FtsDB6ygIMJQdiTovBIXtJ8hTPTuLj28T9NIW9O3/M2mLwT45m/IObnHV2Zn72YgiiirFjJQ+CA8NHfU3NmjX45ZcjrF+3mMt3r5DHOxd9Pxopn8XQrFUfpC0GRyc9M74ej52dhm07tvLzwVM4uxrYu30VTevUwkVj5EmaKz82f0iiWxXcUi+x8HAqDYYto5hfVRZJBMHfTIdvBKIfiSSECuyepcYqWplyJYFhE67I0gQLZlfn4qVo2bNQppQLPT8KxD+fng/ra2jfeQDW5FaUXzoLlxhHuq3UE57uwciIVHZuWiIThPDIdDZMfZ8bIVEUye1B9/F7OHs3ilqls8kEQdpi+GRHQ3R6NY/Ox+BV0JHQc0/ZO/4ifbbU5Jf7cUzfGUrPGl7k8tRxM1pDv/ppMF3jAAAgAElEQVR+fLL0GtdCUzk4ujBVqzenTYfm3Lhxm+zZsuHp6S4fZrVq1Ub8/XOyQyEIr+1vOZMoPL9F8XcaqxCEvxNNpS0FgbcIAVsWgxEP96HyXrxU5PTBjNxwKW4+InoWu3YfYtaEaYxIe8pX+jzyMcFdTVHECnY8LFOO5d/PoFG/tUwY1IDc2dwZ8c1Wlk/rSkqSkZEzttKnTTliw0MZNnUzGo9CGEMPY+dVEo8ipeT+NDd2sGPrUjp0/Yy0tHRqtC5Foustjs9/hG/IU6zGJDrOmUm5cqVo3LQ7KkHA08OLWbPGs33LDjbvPICjg55jv2xg9rzv+XHNTnQ6DSajTQvBdgqlldatG/H58E+p3aA9cfFpkiQR5dyfksfFyoNEHacjvfhp30ocBU9mv+csCzQZRSsWwYpVxkSNoDYx4WIyMxfd4MjxpxQr4E7lSh7SCc1cuBjP2UsRtGuRh/q1DTR6vyu+9WMR9GZMySKmFBH/UE8uhOkIOLCG7/eHsPFIMN7uLjSskJOgy6HcCUuWbW5VMzfD25Xgu6ZBiKKF8u3z4OJnIDEinXPr7sm49dpUhfA0C70W38bTUaBGATccHHUkpljYffGpnAWx/rNCDB8xiV8CTj+X1ZGRfiiIDB3cl57dO79Fs/rtH8rzGg5/1dOgEIS3f74oI1QQ+FMIZKY5btp0hoDDd2Q3OVjkYDerIC2oFalTpzAmo5FJU+fLO+wWabHNONFRq1bxxRcDpWWTY2fvsefkHdnFbtMNEJFyIksU9aZj43Jyat7kqfNIl/L+M8iILWnCytAhfXBxdMZisTJh8nwkDYLMpH7f2FjCPd2Z8PlQOcsg8Pg5fjp07IXxSj2WKlGI1i3elz+f+vW3pKQbn+X8yZ8KDB7QC3dXZ85fvML2HQczupCtlTM0SpYoSusWTWQUDs3UkxilllMRpW0SCRtRZabJ8DQc3CA23syqtfdftEMASTn54x7Stghs2bqNi1dD5LHblmTpZEqRalWq0rBBZRnjr3+8jNGSqehgqyP1OKxDSQw6LYmR6ZxZFWLTjshKlxTQe6io0iO//NGWM1EEP02z6R9YVbIAlBRj0byUM4WzuxDxNIpvF6/KuP5ZqoqzszMjhvRCZ+/8p+aPctHrgcDzWg2vShgUgvB63EPFCgWB1w6BTIIgPY3GxsZhFSWpZNvTtlqtwc1VEjCyFVl8KO5F8SEHBwMOevuslMKEhESMJkkoybbgSV4JSaBInaFaZ7VYiI2Nl3PxpUXTihV7nR1OTo5Z1yQnp5AmayVkqi2Aq5uLbI+8fIqiLLYkay3YlkQ0GgFXF7csW9ONRhITJQEj22IoLbnOjo7Y2UmiTrbP4hMSMUn6AxmJh5KDwM3VTVZCtF1kITFJlaEbYMsB1WjM6PWaLK0Io9FCWnomYRJk3qTXW5F0DDJLdGxMRlaAjYioVWrc3TJtFTFbRFJkbakMogLotSIS+ZKVlSRRp3izFLaRQcwEVIIVZ1eJrtkwsVolXOOydBKktuy0OpycpYVfasNKamo6Kcm22I3M3lxcnJBEpnT2Ev5KeZsQ+KNZEwpBeJvuujIWBYG/EYFMgjBg8DiOnTwtL4KSxoBN5EigW5fmDPy0N8Ehd2jTfqjtyT5jnbJ5CdScCNiEXm/H0FETOHT4NIJKlDMbjEYzomjFUafl6JFtmE0ilWt8IIsSZer72ZY/gV49W9O/b3dOnLnIp5+OkWVwpb1+WfRH0lxC4PCBNbi6OtG23UfcDXkskw+bp8O2BFaqVIJF86ZgMhupXKOV/L1WY+tBssWisrJ80TeUKV2cNeu3M2P29/JZBdITt0RYJLvy5MrO1o2LMZtFvpzoSnKK5E2xkRDbAm6hVw8jJYuZOXlKy7rNkpqhiFoiM4KIRaorisyaloTEEYrXrkKiJe1/7pinkwvn9wSQblLRc7NaPt/h+WJFy+D3UiiXU0PgfoFlkyOwyF6bDH0oQYWzh555WwwIKisN3u9KdFQMgiBFxEtoqTFbLYwe/gltWzfh5OkLfPLZGJlw2ESWbbhIZOV04HYcDIoH4W/8Wb22TUm/q+d1Gmzz6U3Uu3xtIVYMUxB4exB4dlhTM9R2HpRvMBqVzh5LmonTP41CNKVy5sQOZsxcwsYt+zIGbnO325ZtAb1eTWDANqq810Leiti1cx3Hjp3gvVpV+KjPMB49jmDM6I9xNDgyasw3CKKGQUN7UbFiWbZs2sXmLbvx8ZZOWVxO+y4DuXMnlEIFvPnl0AEk2f7CRYtjsTowang/fH28+OjTsWzoE0X/H+Grtmrc7UW6L3XCIh2UdHIXbTt8yt17oWzZvFR+Uk9OTiU8IoKBg8bg4+PCpnVLkI63tmBFK9iRd3xXHmwPwHjujjy+5UunkT1nSSZO1WPQmiheXsfZ0yrat4If19oOsfp2ehxzFzsRHAxly2lxsJd8IQIh90QehVupWNZEpUpXadC1bdZk2fHDBi5cvsj42dOwCiKBG3ex435eTofYdkK0aiuCGUwSQZMIT26Bjypa6F3naYYnIfOwpmdkYsm+bJw4G8DQ4VOwL1wfg2cRHF09yZHHhwtbF5AWcYXTJ3dRt14b0tOj8SCd+JRCGK0aRMGESRtJ2TLF+HHlwrdnUisj+UMIZMUZKQThD+GlVFIQeOcQyCIIFT8kb80HhF/1o36zhZw9vg+vvDU4f2AM5wJ3MH7yHHbvPSIvbF0LP6aIayKTzuQk1eyInU7FyWPbGTJiCmXLlmLJklV8v2wOHdp9TM3apfHyzEauHJ54eXox5ZtFpCSm0rNnO7y9PAiLiGTfgYNYzCL7dvxA+66DMRvjadiwNmmpaXz++efyPSleqjqfjxqAi5MDg4dPo0b+OMY3CmfGYU/c9JDHI43JB7Jz/tQOmrbsy9DhH1OlUkUSE+Lx8/OT3ev3Q+4zYOAo9uxYSdlKzVEZfCg0th1x57LLborE67tIuRzEwnlfkDd/ZSZM1bNwnhp7O+mZ2ybFfCfYytTpVuZ/ncjMBS5ExYRTsqQverURq0aHKU3k0rVUCudVU77SRRr16CB7Y9p/0JpRnw5lxvxZrN29Rcbx6Pqd7HyQj9MhWqrnM1O3gIYZP6VRt6SevZdSKZ1DS//KVnrXjWDIdG9mjXpKhdoOVKvvgNmkwpgmUr6Glp+P7GHM5MXY562FncEDe4MTnt5uxIY95MnJHzl3ag9Vqzdlbt1LDNrZBGvGFoOEq0WVRN5CTmzftuKdm/vKgG0IKB6Ed3wmfP3119SrV49y5cqRkpLC3LlzZUQ+++wzHB0duXDhAj/99BMjR478TaSkfdpZs2bRqlUr8ufP/5+imWhMY+2VQNmG3mXqZO1t/6dGvcGdZxKEMpWb8d6A21Sr68je6b1p1HwUx45f5+S2vpw5voPxk+awb18AG94/g5u9SY7YDza6sDvci30XcshKivMWrqZa9YpYLWamT1/Ayh+/Iz01hY0btuHgoMXb04tZ85Zy9PAu0o1mkpOScHZx5v79EHr2Gcx+mSAMpEih3EyePJ59e/fSvHlzGd16DVrQs0d7Oc1xyHBJrllEZU5jebcU3JyTOHRby9xDvpw9tZvmLfswd/Zkjh4LYun3a/DydmfV8nlotDpat+3C7u0rKVexGYZKn1LgIz0pwW7EXjXgmMuFR6sHM2fiZ+TPV4VzF3S0aKZj/0ETxYtpuHET6tZU8dkwE9MnJDFrsRMN6iQiWG/h41MBHz+BkPu3efjIn+C7VspXukCj7h04sGobZy9f4P26jQg6HcTHY4fJTv6j67ez80FBKuTSUcjTSg4vDVGxRjR6OwKDrVx+YKR/FYkghLPuhD9zvorHJ5eF4Csi8bHxPA5WsXhvNg4d3cuXU5egy1kVjd4Rnb0BV1dHUlNNPA38nrNBe6hesxkjGtwlKG6wrKOQWaJiwohPCVcIwhv8G/6rpisE4a8i+IZfX6tWLapWrcqUKVNkMtC6dWt5RGvXrqVSpUoMGzaMK1eucODAgd8caWpqKqVLl2bx4sXUrl37P0UjIjmejlvnyTbs6zga3XOn8/2nhr2hnWcRhIrN+WDiLYxhBvKUcSHk4BeEhhm5dWI+Z47vkj0IPTRTZX0Ee98SqOxd0Vfuz41DE/hshStBkgdh+GRatW7K7JlLmDV3PJMmzqFatbLyIY1qjRVvT2/OXbxEqVIladOqWRZik6fOZd/+X9i3eykdOg/hyuXTFC9aAK1Wy44dkuwztGnbjRYt3sfFSc+g4VMpnE2gf/VEDlw34qzT4O9jZMpeL86ftnkQpk0bQ4F8+bh77z6dO33K9WtHiIiMpV37rrLegkQQVF5FKDWliXzsYcItR0xRXkTsHMfscX3Il78KguBErtwiZy+YKF5Yx7HAZOrVNTB0tJmJnycx5zsDbVuqcXdNxNnFRbbzSdgTHj3x4dKlNCpUvESjHh3Z+8MGDgUF0qVFO06fPU2fL4fIJyoeXb9DJghlculoVFSTcdCSSFCIma9/SqNCdjWfVrbQq2E4n0xw4PZZPTEJidy4lIi92p6YCFiyLzuHju7my2k/YJe7Ok4euXFw9SZ7NjcePIzgyYGpnAvaQ5XqTVnR5Tr382zEXmOz1WxJ5/a9axwNPMK2rYoH4Q39Cf9lsxWC8AcgfD5MI/P1P3VAyW8dH/qqqSl/YEhZVTp27MipU6cIDg6WScDQoUPlPPepU6fywQcfUKhQIUqVKsXGjRvlOuPGjcPHx4fBgweTPXt2fk0Q4uPjOXz4MCNGjGD16tXytXZ2drJ34tq1a0j9ffPNNzKZcHV1JS4ujnv37uHu7s6XX35JlSpVaN++vWzT2LFjWblyJUWKFJHtvXnzJgMHDpSv7dy5Mzly5HhhqM8ThJ87j/lPJUpf5R68rnWzCEKlFmQvGkuJ9vfQ2qViSXDixNoCxIXYce74diZ/vZAtOw+BIKUOPnsClRzv0kmLJ45toVLVD6hSuTINGtUmNdnIiaBjlCpRljnzFzNiWB88XN0YNWa6nCi5ceNyfLy9iIh4Spt2ffH29mDPrh9koSQ/X2927lxPdGSknLHwXu06hIWlyEqK7u7O9B88mXXdQklPjyEsyYPcnibWn/Zjz3UtF4J20aJ1P7Q6NSuWL8BstlKnTgsCA3fy/oedMDjq2LF5uaykKG0cGIrmpszw3iSLyUQcuk3Y2k18t3Ay/v4VmDzRwOgvYMliK1HJKupXM5E3v5YFyyzyFsOWvU6YjVKCp0UOlJROplRpwGoWMJnSKVfuKo26tZG3JxzsHVCLAoHbD1CmUQ05vfHY+p3sCMnLqYcqJrxvj0En8O0RCw9ipCOorZTPoeYTiSDUDf+N6WM7+vq7fX4EBP3EqC9noy/YGJVKj1qroVjFCjy5+4DQX+Zy9tQuqtVohkYlkEvjRnCMBpVKLR+9bdKFyydYbtzww+s6RRW7/mEEFILwHMDSHxyLdOj9a15+K9r0z5osLcqSt+Dq1atUq1YNSftb+ict/GfPnqVw4cJMnz5d3oYoU6aMvNhLJT09XV6wzWbzCx6EfPnyyZGwBoNB1sSfMGECnTp1okuXLpw4cQIptzopKUlO7bp9+zY///wzn3zyibyYS1saNh195PQqaftCuieBgYHs3btX9nJI/Ut9SvfpzJkzMrHILE+TE+iw1bZFcqjLl38WEuW6DAQysxgqVP0Qk0WF2mpGUOkwC5KIkBZnZz0BBzZx+cZluvUYlRHR/1xQPzBv9tdUr1aU/oPGc/LkGflJeMqUUYwZPRWrfEANnDi2UyafnbsNzMrme5b5r8LfPzub1i+kz0ejuHDxhpyWJ2kl1K35Hr8EHJNz+md+PZZatcpSoVJTrJKYk2gn6yJkCibkzZeLTWvmExOXSL1GneQkyY/7dcde78CsWd8iqlQsnPc1VSoWo2//0Zw9e1XODNBZpEwIWxaCRHhOndqFNdXK8K+c5X6eHRltO0vZz0dgxPBkDh0UCDrpgDnTZS9nQphle7p2EMiTI4HCtStilrUPpOxCATcXd2LjpIOd4P7R85x9ZM/8Y9J1GRkKGfdFsuTDEhbalTDS74NEUuKtcsZFhryRXEujVbN4rwMae3vKVfwAFSbs/evh6FeYhKBlmMxm6jeuweSJIzl06DQjR48HqwWT2oBWlI59lrQmBE6e3I6L4Vk6q/LjeLcQeOcIwq9PI3sbkjiePwXs12kqL5vORqNRfkKXYgykeIRt27YRExNDr169GDVqFNOmTZMXcun9sWPH5NcSgZDIgnTdsmXLsghCeHg4Y8aM4dy5c7J3ICQkRF7IJXew9NQvbUPUr19fXuCLFi3KgAEDKFCggEwQLl68iJOTE+3atZOJwdatW2XPglR/3759MkmR2lm4cKFMIsqXL8/mzZspUaJE1hCTjGm02jRL1v/f3nbYy4aufP8SBDIJQkxsvJxHL6spynmFtjQ4b29PHB0dbAva/VDbccfP5etrtRpy5fSTGYN0z0NDw7IW90wCIHkHnBylPHuRyMhoEuRzFJ4VaW77++fIUnK8H/IQURZbsukCSE/60qFMObJL/UBySioR4ZEv5PxLdvv6eeKg18t1Hj9+Qnq6TUXxmb2ifMKjVFciv48fR2RoKWR6REScnR3x8vSQr4qJtSJpLcmpBRntCEixFFKqmPSBQHiEZKUsYpBV9PYaXF1sbaYb03jw+PGvDlkG/5y50WokDQORqGRIN0spnRIBsRESlagmW0YbUgBn+EOjTIYkkSU59VNUYWdQ4eFtI/ORURm4yvcnUwhJJGdOP3RanUx0QkIeygGTmfoSUk3pbIbs2X0VHYQX7uC79eatJgjPk4G3gQi8ytR8FdJQrFgx+Yk9ISFBfpKTiuQJ8PX1lV8fP35cdv0/ffr0BROk7YM1a9ZkEYTLly8zb968rDYyKwcEBMgEQ/pe8ixIpUKFCrJnQSIZEkHI7FfagpAiy2fOnPkCQcgkHs8bsHTpUurUqZP1kcVqpemGb6iZuygjqjZ9FbiUur+BwPMEYc7cBbI+v+08QgF7nZahQz9FLwshwU8HAwgIsAWIZi5CJUsVpX3bFvIncuDdoVCSEtLldrBYpAdWatTPibunLc/eGhlG8JZ1sjdJXsZEK/ZePmRr3VHWVJCSBaXzAW7fss1RW7siXTq3pWiRgnK/UdHRNo9AVjS+iKPBmZGjPkWjUsvu/uN3b3Hl8cPnFkvI5eVBkyKl5KvMFiszZy4kLl4SfrL1oUJF3749yJ07m2xb2JMoFixY8kxtURRk4aHhwz+W+5HKmnVbuXbtehahki5s+mETKlcqJcsyW60mJkycRXqG5LPUk95ez5dfDZYXeen90cAz7N9/0EYiMohZ2fJlZEVHuVgshK9ZhdUoHU2dUVQCOVu2x+xqiycIfxDLob3nZE+FjUCAo4sjTTtUtgkwYuWH5ZsIvnvXRqwkt44oUq9eberVqa4QhHf4r8NbQxAyzyj/p2ID3oY5kuld+LWX4dNPP5Wf0gsWLCj/LxVpS+H+/fu0bNlSfnpftGgRM2bM4MiRI3h5ebFkyRKKFy9O5cqVswiCg4ODHGMwadIkOnToQLNmzWSPg7QVIJEJaZtBimGQ3ktxBtJrb2/vP0QQJOIhtSVlVEhxDqtWrZK9DdL1mSXZlM7WG6fkt11Kvvc23LL/dAyZBKFuw/YkpSTLAYU6lRWTKC2AIjlyZGPLukUEBl3ks0FjZVv1alccDALRCbHy+97d2/Dxx11Z80MIEWGpWE1m9FrpSduV2MhoYiKMfDKuCPbx93g0eRiCdzYizI+xEy24eBbDPVsBEm+eIcfUZQweNoVjx4Lksxbq56qFyZjKL2FB8oL27dxxlCpZlFr122MxvygsJNmRPbsPu7Yu5ciDYGYGHrbZ7+iGwd6O21ERsq29SpenWdHS9Px4FBcuXJW3Fno2ieD6HQOnbzvKT/VHDm3ALKZTu15HKtnHk0OThL1rDtIFR9aFxFOyWBFWLZvJtOkL2Lh5L75uqYTHOshHLGcu+pMnDKN61XJUr98Gg50TaWm/FksSCQzYxP6fApg05ZkGgV+F6jhnK8DNPSvo1bkV/T/uSszoIYihtjgEi0qF2iJtQFgRtfa4L/uOtHQNGxefJG9ByQuTpVAt1w++/YAeQ2oxe/4S+XwKqZilrRRRQJ1RefasL2hQr/5/Og+Vzv87BN5IgvB8oGAmMfjvIHxze5a2CqQyceJEORhQymb48ccf5c+6d+8ubyn07dtX3n6QYhKk7yUvg1SyZcvG0aNH5T9uz2cxSF6BoKCgLFDWrVtHxYoV2bRpk7xlkVmka7Zs2SIHRv4RD4K0VSHZFBUVJTcheT02bNiAPsNtLH32fJCiEoPw1+dlZpBixWpN8cubl4jgW/iXLIcp3UxCfDTxT59y8sg2xk2cw+59R+Sn09yqfDjlNHAt5LJsgE5nx8ljG5k7+ZasZ9CldwnSk9PkvfeA7XcID06mVmtvijgFE7d0Nj+YnfEp4EkhPw0alQ9ldQ5EnjiC/8L1dOg4mDvB9+jk/yFeuVIoYKnD+lvbOfb0HOO+HCjHREhpjtWrV5LPbQgKOiV7xiQ554jwKPk0xz471/M0MZFpH7SjbPbchCcmoFOr6bzmO/zs9cxv3p73KzSmgBCHb141Polh2HUzs2ZVEcKjdCyY9xU5suekWeveTPK6Q3lDFC7Za2Ny8KbmgUfyVsCZUzvp3Xskl67c5IeuV1h2tgyXQqzodEai49Q0aVSbrp2b07HLINauWczgIZ8TFRWPWdZLti3iOzYvYsF3azh4MFB+wvcsV4WqI2dwYGQ30u8FU7t2ZeZMHkFY9+58lCLF5JhZ6mJgW3IK+4ywzEmF3/erOHc+ks3fnaZW09IUKuPLsmmHEER7vlrSjDHdVjNpTSuqVWtBmslCY10cnzinSb4N2pmqkZAQTKF8eZUshr/+U3pjW3hjCEKmZ0AhBP/cXMskDP9k1sQ/Z73S8t+NQBZBqNEUg4cn/kVLcPPIUfJVr0xSTAxhN27IBGHshDns2X+UgjnykvpQRZHi+ThyN0Dey7fT2nEycCOzJtzAbLRSsIg7vr7OXDzyiNiIBDCL1G7rR2Hne0TOH0+x1fv5oF5Nivp4UKp+bUqfDESlVeO/cAMdOg3hdvB9BlQuj+PNgkTnvkFBlwaMODKDr776VNZBWL1uLxfOX5Zd5Xnz5sbRwUCUZGvYU86f2k6fXZvQa+xY1rYH+29cwtHBnuq5CtFz3VIs5nQWN+/IoJI1GKZK4NaISMIj7Nh80p7y9ZO59NiXgU0WytkzzVr2xV2bj74lFhHIBtLqlCdodj/UFoFzQTvo1XskF67d5OyX50gNTsO5Doxd5sHOE4Vp3PA9unZpTedug5g/fyrz5izm5u17L5wNsXPzYr797keZIPiWq075IZPZ93kPePgIi2ihds3yzJ40krDu3XgQH0uq0UIRL29iUpOJTkmhgJcb2RYv5+zFKLYsPk3ND0tSskpu9q65TNTjOJr2LsOqGQFMXG0jCDm9otjc/zp9VxXmxL18VGi3mSubWuCfw0PRQfi7f1hvUHuvNUGQyIBCCP6b2fR3Zkr8NyNQev2rCDwjCB9SvnEzLuzdxRebVjGxay/06RZSrXDiyGbGTZzLnn1HaFalJfduBZOnQC7uPLzLzbAbsgch6NgmZoy5hpePPX2Hlyc53sjsofuxJjmiMwpU7+JOAdd7JKz9jkKL1rB0+iQaFS+FX8P3OT9yCPr4R+RbuJH2nYZw6+59WniVoFzHeCoV3EqrgdVINhkZO3YAzk4Gps9axpMn0paBFMcg0Kt3O4xGkVU/ruN80G767NrIB/lK0KFSNVovn0kOdx/mNuvM5P3buf00jIXN21G6cjNGJVUlzrsGS1Imkbu+Dy6F8hN7bRejWywgW44cNG/Zl/b5Z5LLtSJnK8aQWsydMx9Xx6SSCMJ2evUexaVrtwgcGoqmdCj2Frh234WO44rSpGEdunZpTvsug1i9aiGDBg4nOjY5y/9v8yAsZsF3qzl48Ci156zjyPSRNJm+guTwMAKGdKFmrcrMmTSCsB5d6ZViQrAKfOeiZ3tKGvvMVr531JJ98Q9ZBKFW05IUr5oTa7LAmvkniI+TtoAEJq5qSdWaLTk8PYDmXxXB1U7LnQh7PAp1wz1XWcR73yoE4a/+kN7g618rgpAZVPiuBRS+zvMn05uQ6V14nW1VbPt7EcgkCBVqNsNqcCC3mxuRoY9pM/ILVs6Yjr3VxLHDW7O2GOoWaUhaWipOjk7EpkVy6s5p2YNwInATM0ddonGbghgMIutn3URtBnW6Grs0gYo9PcjvfpeY2Z9TeOkm0iwmUtd+T2LNSoTvO4hDSDgFFq2RPQi3bt2jVrtPKeVzkJg8jRDWP+DHszuZ8NUAnJwcGDNuDqNHDSUi6gnbt+whPjEFby93Qu4/kM+NkDwIMUmJ7O0zTJY0fhQfQ04XV9qsWoQTAgubd6BMpRY0E4vyoLSePAnluV99GA9vlyfuTBzfzh1Djhy5aNayD7nbFiFftVKc/e4IxigNqZEPZB0ImSD0GUV82B22Tg5E7WCVTraWznKibI9qNGpck26dW9Kh80B8fT0YOKAvk6fMJikpPSPLQ3hxi0EUKdJtIvZ5i3JxWjdIS6J2rUpZHoS5YdFgNjPA35cTSSnsNZqY5OpMju+WvUAQCpXJxqpvjqDWaEiSskVEgUmrW8pCSce/CaTX2cYkWEzYRY1GZ/AjPTUR8d58tm1d/vdOLKW1NwaB/5wgZOoOKKTg9Z8zmWTh+aNCX3+rFQv/LAKZQYqVq7+PWVDhnbcASaEh+FeoyK0LFyE1haBjO1j54xbmLliJf05/enfswqPwB+wLOEjIgzDsdJJQ0mZmj7yEMcVEoaJ+GBy1NOlTgDNrIji7OoRaw/3wVl1AOHGc1LQk4sMfoNM54VG6LMkXTpub2m4AACAASURBVCLmzof3wK/o2GkA12/dYUL5gYTnPkF0dFHykZ0ZR6YyduwwChf0p33nARnDtR1jnJlRIaUeSgRh1MEd3Ix8SiEfPyrmzo+bzoFTDx9w6sFtynj6Mq7hB5Sr3JSmMUvY4z0Cb6E2huY1eHJlNUk3zrN98yIcDAYaNO5K/sElca/ozsU+gRiTnqU7nj21hyFDxxF4PIhmNeIY0+8WsU/gix8KEnTdnfcb1qZPr460aNNXzmYoViw/Dg563NzcCDp5loSkBPbuWMGs+cv4+eAJeTyCRo2QryWi5FW9u5NmH7zH2M8/43H39mhFXUbSp0io2YqUe6RTC/gs/YEHD5M4c/ghdZqXxsndjivHH7B12XEZF5VazfgVzWnyQWcSkkNxyOuHIKVLJlWRD80KD/2FWtXLsejbGX92CinXveEI/OsEQYkleP1mzN27d196joKklyAFMmYWf39/GjRoYEtJyziX/lVGJmUhSOc3ZKY9SkGMkuaBpJ/w65KcnMyTJ0/k7aaHDx/KKZJSIKTU//9XJC2FH354pgAn2SgFXGYKL9WoUeNVzH0n62YShHkLfmDNui0ZRxJlQqFi8KDetGnzIVERkQwaMZmbN+5mpchJC5D0dLxh/WKc9PZcPR3Dvh8fYEo2oTNqsDfaoUvXUaiKJzVHuCCa0oleuxi1pJCoVWOKjibdYpWFjKheHa86rQg4HMiMuT/w5FE0kkahFGJrVJmoWbMKo4b1xcfHm4nTvmXbNikTR8hK6dOoVAwZ1pd2rd6XF+TPdq8nVMqyeE5ZyMPRia/rfoiXozOHjxxn1OhvMFpsGgZu/uVICLlI40Z1mDRuMOnmdKZOWczOPQewqAXUUu6kCBq1msmTR1KvdlWCgs4ydfoSHj0KQxTUqGQxJCtlSxdj7syv0Ds4MO/bH1i9dhtS0oVNw0CQAybbd/yAwf17ExsXz+ARk7l86VqW+pQoqOTYipFD+lChfGnSAn4hadUKRItEhqQ8Rik9UsChfg0cO/VEEmX4cd5Rrp97ZCMaspSCRtYy6TGsFv7FPAgJfUSvvqNkrQub6qNUU6RokQKsWjkXvb2kU6GUdxGBf4UgKKTg9Z1aknRxzZo15XTG3ytS9oKkeijVkxbqNm3a0KhRI/r06SNflulV+KNkQcpskDQMJCEmqTRp0oT58+fL+gu/LhERETIhkPqV0ixHjx4tHyolKSv+f0WSdpZUHKX2peu6du3KkCFD5IwLScJZytxQyu8jkEkQnhc/sskT2RaQZ8WWE2fTGsxUF7Tl0tvqSYuWTf1Qkh62FekaSaxI0lHIbEvErBLRykJIWVn98qKeWUfSQlBlvpeT+m15/BnKCRltZ1qZ2a5s1XN2i7L08TM7bNZLC3RmsVlguypTksn23fPHKgvP1CMzMLE1+7ztz+OUacUzsSJbmzbNg2edZ2gRZLaZEVHxzCPyfPuZNj1DzPbqmcCT7W79H3tnAWZVufb939o53QlDTdDdQzfSXVIipdJIidIYYIuooFKCdAzdIEN3DjXMwBTTXTvXdz1rzyB6zvu+es7xfIrzXJcCez/riXutte//c8f/ttEv/7y/4p09/1lxoe5iydjAv64EIDwnub/XX/9QgFASZPjnf5jq1q2rMBSKlMYbN24oNRaEchX0xoLXoLg9DxCKPxPAQijstLQ0hRVRMB8KJkYBCDt27EhERITSVXwnFPrz4EEABHGKF6mLgg2xGCAIS4KXlxejRo1SxhMnHTs7u18ABFHnQfQRz9fkyZMVFkbBsCj2UtyeBwjiM0HzLGiaBQNkMUAQVNFiHpGqKcicBNWzGEuAnhYtWvDw4UN277blh/8dWzFA+GrFD3y3eiMqlQZXN3eyMtKwWmH+3Il079IBi2xk65M2Nuphcao3WNHpVejs3OntuwOVSsfT6EzeH30KC2b0eo3CZKhGR6/XK9Gqd0WFaXHJ0pXs2L2/iFrY5iLQqtTs27MSb08/TJmZZL3aF0Nuio2t0CJjUVlwr9oU+w++QKW3Z8/+48yd/1ERp5BtPSqrmk8+nk3LFk2QrRZefmUSDx4IsiWb0hTLVmnUnDqyBQcHO65cvcnY12djVsCADXwIBdunV2fmzBqnPN9LIow8yLAofy9uAl/Mq6unnINGOf137jaCQpMgMJJBrUW2mGjZrBEfvj8bjUbDxctXeWP8PAU6KSBHlpDUEuvWfkr1ihUpNBiYOGUhly7fVN4dG8wCByctB3atxdnZiTt3HzDslami4gM6SYtJFuuV6dSxGYsXzESSZJK+HkvuT9sV/qNilKCWVfi+ewK7wOpkZ+fQuv1QrCoB2Gw8CAIs1axUlbVrP0JfAhD+jq+/suf/OEAQL3pJ++tIoNiCICiPxYlcFFgS6WmiyuPFixf/V4BQs2ZNBVS0bdtWqawnFLlQ2MuXL0d8d+zYMYWNccGCBQop0vNNAAQBQgTR0tWrV38XQPjss8+UoQS4EJYBocwFKdO+fft+ARCerx0heBtEPQfRBEAQ14mCTwI4CPeJWIcoECU+27Rpk/KZAC7FDI9/nTv6n1tpcZDiyNfn0OuVSdx6nINe54DBmM/dQ99zO+Iml8/u4m7BJm6krFCU8oopsSQ9zWXOpkoKbbFW5UC/MgeZ0fUAhkITXxwZyOGw67TvVZf3XtlP8pM0RixsTErhI6a/vQSLxoWm33qhspOIOZBH/A8JlPbzJ2znKjLG9MISHYkVM4H7b5N/5y5PZwxCLYPLzMU8Da5D34HjaeucxrEcd5sgZOjrkMpWowdXz+xh1LjZXLtymymTRjN0SF/FTnDr9m1eeXUKDevX5Osv36Vx495I7tVwrvcGKUdfKzK524bbvWMlbt6lGH9B1Ayx8Yj8okkyq5vZMWXKu5w6ew6Pyi1x83XH0b8asae3kh0TSafubRj9Sn969H39F6d6xcoiCWpDKwd2r+HLr9ax7+BJpS6Cr7aQ70Lu0vFWI0SR0n7d2vD2zPE0aNpd2YOwqyxR9eQr01GeqDMU5sczJ7ahSbzHk1lt8Fv5BBVmPD28lOXeWzYb69mVlF+fROfOQ0lMzxQeEBvZkkK5bBNe2zYt+OKzEmvbf+6t+muN9B8BCCWBhn+tm/78aosBggAFd+/eVczyognWQ1FnQRDNiPbPLAhCAZ87d04hQhJFnUQTdRwE/bI4WYlaDAcPHlRiBkRsgWBDFK6I1atXK+4FAUAEsBDsjTExMYqL4bdYEIoBgqB+FoyNogCUsB6IwlPFTVgQBDARVSlFE8WoPvnkEyUuQQCETp06KSRNoo9oQg4CZKxZs0ZhaRStV69eikXk79qKAcJ3lerSvHs/djV+VTlNa6V8QpquYP+663wxZS93ctdxO2sNX0+K5dbxbCR7Cc9yGhZsqotabWRQuaNMbL+DbqNrs/e7m2C2GdTLV/Yh+v5Tur9REatrJrMWfESzdYFEnnmM9ZEPVUY783hrDgVHDBzcvYaMMX0xPr5P2S0nKTh3CqcuPSm8doXEGSNxnL6Iy3ZeTJ6xhG1eDxiUHozFIhGsMTHSPpFZ2aW4dnGPkn3Qb0AfxWzw009nkWUJFxc9zZo147vvV7Fv9w80qN8Dt+azUUvOpJ9fjMX8c32I5Z/PoUydhrxzseCZcpfkQqw4IGHColazpqkdr455G3Nwaxzd/JDUasVKUZCVgiEni2D5vpLFMHDIZOVIP3r0YKXE86bNO2nYqB6Hj4Sze/sKln8jeBDCOdHyIteyXVgR6YWdSouDTsauWifef3cmDZv3ZLFuMDvka1gsuZRVedFAXYHZhRu5cHIPXDnI02WvUm5tEk8XdkZSajxAYVwkmrw0ym3OoGmT7nj6OOHm5kLDBnVZu263zeEhWQkJCmRXSbnnv+tPwL9uQShxH7wYz0wxQPD09FSCEIsD+4QFQZRtLnYL/BogiEqPwuIgykCLH1fhohCuCsFu2L9/f8X8L4IORbVF0Uc0YV1SfJo6nVLbodhCIUpMCxO/6CcUsmBHHDdunEKrLMpN/9rFUAwQvvzyS8XyUKZMGaVIlIg3KF7vr10MArAU70kAhL59+zJ79uxnVgfxnbCeTJs2TbEgiFavXj2l8NTftRUDhK8ad6RDxBVoV5M7WyQyC28qkWz3vh3KonEfcjtnLdPGf8CFvZksPhhEQR4sGRaJd6CGResrMaD8KSa320H/qaFs/vQCclEYgqwuRLJq6fZGJayu6cz/4hMaflOBSx+nUvdNL3KiLBhTjaR9l8+h3WtJfb0rpeevRhtSmdzTR1AlPkVdtzmGy8co0Kq5pPdlzUdv827AA8KfumDKtqOSbx5lSxnpeboCF84fpUefUSxdOp8fftjBvgPHFCXv6eHKqVN7aNO+G/t3/UCdRj1Qu/ih922HIeEMslaHZMjEakjjq09nUaZOI1Y/EtEUMs29NZR3s0eHgfOJVsITc/m0gZbRI6fjFDoMa9I1TL4NsZNk6vqb2bL3FLW9Cxk+pA8Dh0xSAj0H9uuNSiVhsVqIiLjLyFEz2Ln9K4UH4dDR0/zY+TLjT9SjqW8cDX0zuJzmTk7pvnyweCaNmvVikH0r4vPjCZeiCZE8SJMMpFqzOHNyO/KVAzxdNpJSn98BvQ5nnVapafF0cX8Mjy5TZmsmTZt0xWy1Etq4qlK3Qrg2EhKSKCgwYW/vVAIQ/q4/AL/HxVASaPhiPiXCxy4UoqitIE7T4qQvTPHitC8UZHETAEGY30UhJXHaF4BCWBiEX1+ACqHgRV0EUadBUDOLJvz7wnQv/vx1E7TNwrwvLArC6tCoUSMFEIj5x44dq1RrFLENok7E/wQQhMVDAANRKVK4B4pposVcAiCILAdh2RDARLhCxF5Lly79LAZBXCvGFnEUwgUiyl0LK4TIgHjy5An3799X3B9/11YMED7pM4wB929g8YXb+0NJtYahseq58dFY3n17hmJBWLzofQ6sSmfAm15s+zSVBr1dGfF2aVSS3mZB6LCTZj0qULq8D1s/s5V97j+pMY9uxONXRYvsksmsxZ8Q+mOQSE3g/poMKo904klYGsZDKg7sWU3amD64NuuM2/hp5IUfxaF2KJJaS/wbA9F278llvRffLJnG6hH3sV6ChAhvPELSMVaVmHmwMuu2naRHbwEQFrIr7CCbt4Qpt7ZKJUEnvJaW7QRAWEtdARD0TkrMgMXeHzuVlcLCbKTCHJZ/MZtydRrxzsVcrCo1wyq5o9JL+KpB1Gj67Go6yxvrGTVqBk71+6ItSCTPpQJ2Gg01fXXs2hVGTV8YPrQng4dP5db1E0gqlVJfIis7hy7dBpGSkqkQJQkmRZfUbYxq/JiX1zamjEsCakmNp5MWc+lOfLB4Fo2a9WS6XU+25Z0mxZyDrJKY5tqDefmbOfscQHCr04n8iHBkYz6VNqTxeGEXDHfPUlYAhNCuWFAT2jiEkJDKSjzE1Su3lffSzt61BCD8XX8A/i+AUByAU+xC+BvLqWTr/wUJ/P+mehZWjzt37jwrIS3cIMePH/8v7PzPOUUxQKjbtC+fxN/BM7CQq7tzlFgD+8SubJntyOYNX3Andy23M9ezfvETTm/LUgh4ek33o+NQDxGFwKByx5jUfifjP+zImUN3aNQumG/eOs2cNX34aNxW2g0NxuKSzltvL8Wqs6fmfD88qugoTFBzZtIdSrl7cXD3KtLH9MXwJAqnAWPxaNMeTUg14oZ0xRQfhfOseVzR+TN5+mLc7WUWtLiO/207TE2MjNpRiTyLPdcvhNGzz2jq1K1Fnz7dOHjoJI8eRbN21TJmzlrI+csX2L9rHXUb9lT2qPOvjyr1PNrSzSlIuoPVUMhXn86kTJ0GvH0xX0np/DkfQQQsKoQFrGqmUwCCoVJn/L39qOlvR2KOCZ2rM4e3bqOOv4FXhvRm8PApLJg/XSkCFXHvIe5uLnz2+feKeX/3tq/5csV6Dh/5iVbV8hja5jHfHAhiwkuRfH6wLK4BLykAoUHznrxj35+1ucdwtHMg2ZTOeMcOzMsN4/zJrUhXDhG/bATOQz/GvlpDCg99Q4Wpa3j4ZhNM9y9RZmsGzZp2Jzi4FHEJKbRo3pgrV25TuUogx49fIiS4fAlA+HO+nv+VVf3TGAQBDEpAwX9F/iWT/A8SEGDht6ZM/ieFKKpMiuwJMbeoYPl8ZsR/cp6/wljFAKFRs96YTEa+be/CrRERrB9Xi9TMDBz0dpw5uZUnpnDOxs9DVhnYtSwRZw8dbV/2UhSos7Y03f03s3DYYZLjCmjzclmSHhkZNbcps3ptwWq2Mnt1FyKeXFOqNSqmBZUWbRUNxntZYNUREliOzRuWkz1pKAURN5U4CF2PocjXwzE9eayI0nXOfKTQbjRr1Quj1YpKVlHZJZ67OT6oZbXCt3Hy2Ea+WLaadT/uoG3rVnj7eClWIsG0eOjIKYYP7snE8aNo33kI6emZyJKJfG1N7Ix3kDV26GWZc6d3KO6zsecKf5WKaYMKjhqZ5aF63l+ykm07D1Gj62gkF3dktMRfP0XanSOMGD6Qlwf0oH2XwSALRofiFNGiVFAJThzZyPJv1rB12yGqBRaCMRJzgQqrvS8P4twZMbwfE94YTss2L5ObJ0CbhSmqHqw0HyRPMitZHuHHt6E3ZBH1RjVE2olK54lP+1dJ3vMhVjWovUMo++UF5r79EfuPnEQt0ktFqkNxXWgk3pk9kUED//cU6L/Cs1yyxn9NAs8AQgko+NcEWHLVHy+B/zZYEO/C/w9w8sdL8vfNUJzmmJ2Xw+7dxygwFAfmSbi6utDlpdZKvIiMhWzTQ56ariIpHAZgVUt4qoPx1TVUTtmFBQauh6eTlZyrcBAImmORtle/XRnc/eyUaxITk9l7UFhsihP6JEr5+9KmZSh2dnqFTlh98SzG6EfIIpBBSf2T0LRqhqVUiGKmT0vPYM/eY5isxemHVjxcXenYsSlODs7KPHcjHnH20rUingZbOmXdmjWpWTMIjUar+OAPHz1DUkrKsz5atZquXdrg5emhjJFlgJPpMlZZ5AuI/Ui4aS209LCiVqkwGIxcvX6L24I8SjQFP8g0D21IpYoVFJCTmZXN7v1Hlb7FzdHBnq6dWuDi7K4E+t69F8WZC7Y4mGJGhto1q1CzRmV0WrFWI3sP/kRGRrptCNmKVqeje9e2eLgWkY6lxJB7dptC91xsFXbyDUCq3wO1zg6T2cylKze5E3G/KIvCxqjUomlDKlcMKklz/H2vzQvVWzKbzXIJzfELdU9f2M0UszaKuIWS9sdLoBggKCpfMiJZNUX8ArZSSCgpeUV6SdjXZQuSyhYlL5SuUEhq0ceWXY8s5WO1CsVuOzGrlf87PSM5UoCZCP1TEvZt+fiSJHoVUQQVkyIpc9nYCxXFqZx6i0CHLMCJrARCitLLytIllVLMSFXkD7BQgEqBNWK9kuIaEKtRywKo2NwGRqumKItR/Fuc7K1KUqP6Ge+BOG0LS0URhhDXqWWsVgEXbAROoEcWzIa27RQ14zOyKBttklioba2SrFKAk2BDFGDHJkUrFlVR2kdRWqWSXCmrn6NXso0hSVabXBSOql9b4MR3PwMElUoUdf6ZPMqqsirgTlyvLFeZXqxD8FmUMCn+8W/bn3MGyWQyPU/19edcZcmqSiTwKwn8XubGEgH+fgkUA4T+gydz/+FTVFJ+0UFYhVmyo2Gtsny7YilP4uJZOrczWpWVn24HI0tm6pk1OEgaei95kzZtQvlk8kXCNzzFKqkUsiQFNsgaAipp+fRwRxKSYhg8bAqFRpOS0y9AhFCeQmkOH9abSeNGsHrNFtauWEMHkxNHNPlkqbRYZSMaVKxZ9RHVKldk7EuduXXuwi82K37gajZuyMrD+3kSnc/Hn6XSrL4HZXzs0ZvAlJbL4x+e0v7DADxru1KwcgzW41ttRI8mkArAYgI77yA0Wy9QaDDRodNQcvPzFBXrpDGRa7alA3fr0o4FcydhLjiAIWuhSAr95VokB+w8lmCRqzJwxDgeRz5V0gm9XDWkpJuR1FCjWlW+X/EBCTfvcHjxF1jMZpqPeRlJsoGvuFsPCGxel6CmDZjzzqfsO3JC+dwpJIGcGD8wgpuTE4cPrFfqLXTrO5IniTFFcEBjY1W0qhjUvT3vzJ7EiZPneXPmu8/WqQArMZ6DE2E7vsXfv9Tvf3hKrnghJFACEF6I2/j33kQJWPhj7v+zIMVGnTj/wSWyDRLLN4QwockDVE+h5eHmXDuznQ+WfsWkLvNx1sOldGeSP2lKi1g/ImUzr+viOBO+nV4Bu7AYNczd0IKFQ47z3flBzOy5m7TEHEZ/VAU7vxRmvfMRQRXLMnagP3qdigUfXyQ9w4Svjzd7d69i0LCJ9LuXQ35eKhlqWOtTFZ1HJSyJJ5k7azi+jlomd++tnIxfqg/n7kEpT5uh4140nMlO5ZuJT+g2Kog7G2+TezcNnawiuF8IIc1Kc/G9Y4SubIG5v4cCCHRuAZifJiLr3LEmpyAXgnrtYTL9ytG5+6uK0IUqbR6Qyo1kL7KNNqriSxd2Y04fj8UoaiiInM5fEiqp7ZsRkzqKgS9PUHgaa1Utzcfv9Ofk2QgWLz+k2A32bPuO+xt28uj0ReU0X71DG+4fPIHawR6f6sGo7fS0njqWhs16KpYW/3YxeFSNozDLhci11RQwcObEFs5fvMraqacZnTsRnSYBjUMMOvtoFhr281BVyLVz+2javCcWi5llNdO4nSWxPNpdWbWwJdSoVolNG1f8MQ9Yyah/egmUAIQ//S0qWeDvkYBCSatSlcQQ/B6h/Q99nwGEht04u+wclhiwJoKcBemxGnpdb8SlsztZsPBTgj2+o2fHFOarVGRbrcx7qy+R8Wpm2yVy7tQOepTahdWsZeHm5mz65BayWebu1TSFIGj4u0G4lM9i7qLPqd2wEp4OViqWhRt3Mzl5Og4fby/271nFoKGTmBoNm6uqsPP1oG//frRo3pyOk+7zSqNrOEsm3ho4RAEEG9+Dz9fDk3gwWCEtSwCENM68coS64+sR/fEOanw4AKvZwP0lJ6n6Xn/OTTtNg++bYu7pgdmqxqn9aHJTHiMX5KM6Go5skJFWh5EaEESP3mMVqfUMiuN2iprInFLP6JIvn9+NOWM0ZuODX9VlsEEKtX1DniSPU3gQvCz5LH6jG0Eta5JwMYIJH4eRpdYraY6R63cRdfUGXgGlMZlNNBk9lHtHT5H2MBrXsn60nvY6DZv3VtwcpbrcxS04A1OBjgcrRXqypASQHj95lk1zrzDMOA37fBNaTSxv6d8i075Q8Y1cO7eX0GY9+bxmNhXsMniQUcDRBDt2ZZVVXCshwRXYVVLu+T/wNv01hygBCH/N+1ay6t8oAcF5X9L+NQkUA4R6DbvRs3oGE+veUwLcRZtxvCZnE525dnoncxd+yoETZ2jwWQRmp9QiN4Qrl0fUwk4tcS58Oz1KhSGb1OxMGkBKbD7ufvZMbX2I2Mg0BSA4V8hS0hwbhNZTqhcW5BVQsUYwTx5G4+bioQCEIYMnMMhtP6d0veg3eKjCk9F/YH9aT33AmLpFAGHQEHw9oFwpmN4PwsIhywh7TtkAQuaEd3AfMRBLQizZYWEYzO74vPYadoFlOD/7JLW+bYOlkycWM7jO3YTxw7cwJSYjqzRYkrKQNoWRHBBMr95jlDohQok28o7jXJIACFpk2YwNIIzBbLyvyGr7vjQaNXTmzXmOdO9YyLABTXiS8prCpNhPl8vTMhXxqOBCzImz+EsS+y2uhG1dSeSGXbiXKkVmegohTZtgMhq4vvc4hckpeAQHPAMIaklGL8loXFTk5pnxkPxJM6Zx5sRmTpw8zboFtxigmYl9npEPGES2LluhwRaVG6+f20Nosx5YZSsb6qTQ75IDDnoHQmp+xK0rswgOKlsCEP611+eFuKoEILwQt7FkE79FAsKyUBLg+FskZetTDBBqN+rFqTnhqFPAkgvmKChIUdHtYWMund3FvIWfci68Ok6u3fCcWwuVYzR2pJF5P5rIpW9yLnwHPUrvxGoW5Yx1ShqiX1UVOoMTMQpACMS1XDaz3vlQYRScN6MWslXNvnMWMlKyyErLZv/eVbw8ZCJeWee5GOuA1knFzZs3AQ2Nx5xhUqvHOKtMzB44hEn9YdMJeH8UxCbDlQc2oCAAQuHUV3AeOQHjmrnYLdqFymIlbvQMSn/5HpffOki1lX2xtPUQCRM4TliKZfmnmPPykdOzkE1g3bSbtDIV6NH7NbQ6iRo1qhMfl4BGreVpoihJLhUBhGILAuzYm0PDhkamzCnFsoXpBJRrw+MigKBWSZStUIpCs4xrdgZRWbkYrGrCtq1QAIKLnxfOAb64BQZy4J33EaWrdW4uuJb2o9W01+nUsieLnTMUUPZ1gRNNAhcg6VSk5scz5dvOnDh5lu/fvUFPx7dxzDXikGtgrr43FknUfRAWhH2ENuuOwWxFr5Kp2uBjnB3L4GBXitj4nRjzdpYAhN/+yrxwPUsAwgt3S3/fhgpykrB39v2nF2XFPcA1oCL5eblEZlioGeD6i3534rKoVvSZ8GGqRRWZX7WYhw8pGxLyfyzKQmSGmuCi+jrPd163ZAnDipgZxedGQwE6vb3SxSLLqEW0tyGbHL0Lzr9h68fOXaNtaB1ynt7DLaDaP7ginsQnUq60nxKdlpwj4+NsCz4TLfbmEcrUbP8Ps1isJowWNfba/1x2xbkLjwltVP4f5rKaClFpRYnkX7Zz584TGtr4N0jgt3cpBgh1Gnbk7JtXyE2UWHiqJnNL30SdJ9M6ogVXT29j8ZLlXD49A5XVAXXph9gPiMYjsAO5jx9wb8EYzobvoFfAbixGFTNWNGPJaycpVV2DptCZmMh0Rn9YGXv/ZGa987Figh83ojqVghy5dMfC+i1X8fb0YL+IQRg6EftkD3R6Tx7o0pF8G2GSvLA+3c+sV5vh46hmSo8+JfKDpwAAIABJREFUqCWl0KOStSAUp/Cni+SDc9npmL8YguOAmRgur8P06A7mWAlDrg9+S1dw4+11VFw2ElMzTzQdBpJ59z5aD1fIM+J4P5nCiEhURw6SWbYcXbqPwsPTidxsgy3TQjZiNJuVrIWr58MwZEzAaryFyqpn/Y5Ymjf3IuVpPjv3u/LeonrEpo6j/8sTFQYEvVbidPh+5sx/nwvnr5ORmc2e7St5sGEnTt5eXN9zCCdXF4LaNCHxym0yk1MpVacqLaeOpUOLnrwnAIIMywvcqFtpEvYaZ6IyIliwZghnz11i2fwrdPKej2OeFcecAhzyTHwpTSReH801YUFo3gODyVagSa1xoU6DpeTnPiDi1sdUr1qJzZtW/vaHpqTnCyWBEoDwQt3O37+ZnPQnOHuU487VS+w+cBinMrUw5WfQpF5dNPlxuJcqzaFtWwl66RXOHdqFb1B1anlKuHt7kSR506p6aWXSmEd3iUnJJT4lg+iUAprXqohRq8cl4TIHrz2itKcf1RvUI8eqpnpIGTavWUW5CkEUyA7cuhtHl4H9aVzOpvjjH9/jxKGjFLiUJ/r4Jip1HYOjVIhfmbKoE69w+pGKh1HxvL1oInu//Ya27Vti1GrZu+8nWrTvjhuZVK9ejcTYSI4f2MfpqCwqqBNp2H0EkVFxjBzUi7jbpzi8aSON2zdD51ODY/v28sroV4hJM+Ht5Y6jncSKNRvJSkqgcsP2aGUDlezj0LqX4ezNOGpWr4LJ1Qd/tQmfUv6YcCT30UlO3MygjL+7kv/er0MNJM+qJCXFcOXCNeITU+jz8hB8nfVs27qdzt174ufjRdL9szyV/ahdOZAVX39D7bq1iY3KwjWwHNg7U63gFGavWpzYtJoeE97m6MFD9O0/QJGVbDWzauNGvJ3dCK5ZHx97GTcPN+4/SkZrzuLcleuEBAex+vuV6H1DqB5Sldde7fObHpTiLIZhI2Zw9841LJKuiNJHRq0yEdqkOcs+nsOTmCSGDPlRFBwmx3BIIelxrdIAnc6R2YOb06p5A5a+dpHw7cJUb0vJQyMh/lqqnCOfnWxDakYSvfqOxVLEo6DViL1JmGWZsaMH8trIwezYdYQl73+NUVR7kmQcynekMOqwAgG2bFxOYFB5xnXqyrUz5/5hf1Ub1Oe7Y4ewZMSjuTMGdXA7ZJMn1gQZOcpA+s4bOLwzFfsaIRiWjEfeuAGryGIoBAps/2krV0Zz7hQGs4UOHYaTW5CDj7e7krpZrlxZhYFwWFHGhTXvKIacuRw8aiDXpKJbOxX7D9vh6WmmfZfVWORA+g4aR1xcogKKqlQuz4MHj7FYJSpWrMD61Z+QdP8h+9/5kFpd2xF94TqZiUnKvgQYaP/2RMo3rstnn33Lvi27cFCpiTHJOKgc8HMuQ4Y1hsMHNyoIqW+/8cTFJyrBjAIpFbuJ+gxsx8xp4zlyNJxZby95Fi+hUmuwWM3Y6/SE7VpJQOlyv+l5Ken04kmgBCC8ePf0d+2oGCCs37Yfp6z7aOr1Je3JY9zMcTSpHoK2bGU2fvER9oH1CK3sh3eZilw/e4LK1Spy7m4KdevUpYKvswIQcnV+RMYmcfLsRSb3qEua2g9d3AXyHEsR4uOIq48/hXonMnMNXD19hhbNm3L1YSr7f9xJzeY16NgqFG9nPT/+uIXGlb2ISLfj1MbldJi+TJSTRKsuRJd8hbuF1flp11YWfjWXyIvncKOQZIsFP1cPatZrSHRUDMHB5flx3QZaN6nM4h/P09rhGpV7zeXQ8XO8OXoAsXcvcuzHNbTs04cMfEmPvYunlyf23oGkJkQT2qQ+G348RM3aVfDxK83N61cJcUigUpMu/HjoNpX9dbj6VeLx7Us0b9uGAoOVpIc3SM7OIqh6fWKjognxMuFeIZQvv/iG+o3qK4qzVOnylPb3VCicQ8qURuNbQQE93sENUKm1HDp4iGatWhN+/BJxsdHkZdzl1YEvEZHiRNSRzfSfNoeY+GSy1e7UCHAROXpcvPaIyKQ8vMpURp92hxatW5CYp+LsmfM4ZEfhUTOUtZ9+wFtTx+NaKgQ3V5ff9IwUAwSRD5+Xl4n8jHxI1B3QYu8gKhjamixbycsR9MO27H7R9PZ6tBpbmp9gEjAWFmIyF5ECKYR9KpwcHRU3gUj1s8hm8vJzUQmaP0UTgkajxs7O4dl6C40GzM8RC4kv7J3sUSspgOI8LpObk61kBxQ3rUqNg6ODkt6nfGy1YJVlG/+B1YJssaDS61AVpREKAGMyGZBMIs1S8DeYlUwCjb29QqVs4wmw2ParEAbYAjM0GkkhFRJGLeUTWfAiFFWmUvZrVeouFKcrij55eTmgyNU2jnCB2Ts5KLIRTSjqQqNAKUUCQcZOq1PkXzxzfmE+ssnGL6HwGKgkHBxckIqQgBUL+bkFtkUV9dHoNNjpf7ZEmc0mCgsKf8HZIOSqUWlLeBB+09vyYnYqAQgv5n39r+2q0CIrgWjPN0NOOnpnj9+9BvFjKghc/oytODtC+ZkuIrH5t9cpm7GgUUziv7dl5xbiaK9Drf6/3RoLFr7HiMnTKOvys7vk/5pPkBYV5GUpzHtP0+FBjBWT0aaAhRZxcNBQuawVTxcJg9HAvfuPeRT56BmRkugTGFie2jUrK+lycfEJREbGKEyHAgwIMiBJ+LwrV1LY+oS2i4gp5EmiQSEHKtJmONnrqBWow81Ri6HQwMUrN0hOSSlSwIJISSa4QiA1alRSlGv041hu3ozAbBFj2KiL3VxdCQ4uQ9lyAYrCv337IQ8ePiwSgU25BwUGUqlieYUZMj0jkzsRj0hMSiyCGTJqjZaaNaoSVKGMAiwePIji7oOHWMw2ACD8+d6e3jSoXwMHe3ul8FLE3UckPI23zaMQGMlK+eTqNaooPBD37kcSGfVE2ZdtFbJS/KxyxUBCggMVEHPjxl0eRj1WXGkiqFD0CfD3p0b1ijg6OpCbm8eFS9fJzMx6BjJ0Wh2VKgYrjI2iRUQ94ua9e1gVIGKjRyrt70/1oGA83dzIy8/nwYMnRD+OtvE1FgGLyiEVqVotBLsSoqT/63V5Yb8vAQgv7K0t2dh/QwIvSuCjqL3ya0ZVY2EuyPn0e9tBOTEL5bJ2nhfDF6YqohXKdvMiK2cu3GTSpLmUGtCO1KPXMGTYgIUkC4UYxOYfP6Nn39eJiYsiwFhAvMYJWWFIFOd8iZ3bviMmy4FF65IJKCUTnWDzhxdbIkp7alg3M4SXh4zjwcMohe3QwVnCbLZiLLCdoxfNfZP2HZoR2ky4TwSMUWHGEY2UqSh5e3s7zpzYzufLV7N23Q40ahGnILIQBEuBnqfRTZm1yJ03Rg+jedsB5ObmP7eC4idJ5uLZPeQV5NK6/SC863TBvd5AJI0WS3YSURsnglXFpfO7eW/JcnbsOoZsFRYTlXDuK3UnVGorw17uzdDBPenw0pAi1kixCgmdyozRKuQic+roZj754ntOHD7A9BaPmHsoGKukpWHZR2hVDoQ0e40JE0ZQP7QrapWMxSy4IQWbo0UhQRKyDT+xgwJTIfV69rbhE0nGq6IDqfeEzwT83D05v2Mj8xd+yeFD4YoVSImjKAIrAtAsWjCFPj17/TdepZI5/oQSKAEIf8KbUrKkv7YEnrcw/Bk4GYSyFgWGnm+/hV5dAASVNY8+c+wY0smBapW1VClj4X6sxNV7ZjbvL2TTIgPzF3zJ3kOnqD2qN3G5mVgNMum7jisnVjuthvOnd9EgtBtTjFFcs/cn3KilnyqN2wYdT3SujJw8gtJV2rLqUB5b5lcndMLFX6zVy1XNlrcCGThsEg8fRisKbMfiBD7fU5pT5xWeZBbMmYiLixNTptsKPgUEbSTx6UeYCq4pQEW0qxfC6NFnLPEJyeSllSUvM4QyZb1ISr2LzjGF8sG57Nu1gSkz38NRuBMEzBCyK7IYSSo1XTqFElC6LF2GzKHjhCXM61mWHVeyqF/BjoU74nmwehSXz+5i5Og3SQlaiiE1EjkvEsfgfsTt6oNrhe40rvCE4UP7MGjIpCIQIlMupAbfhFyg/QEHpVbF7m0rlHLPt44fZ7hvOh889aQaBcyq94CJVytRp0V73l88nbbdujBg6lV2LGtAhaop1GwRw4VDAVSun8q0fg84HP4Tkz5YqoC5Ct3tcXRz5e6PKZgtZsUiEXvsmJLm6ObuTqs2rZR6D5s2bS+qhyFTMTiYnTu+/2u/kCWr/5clUAIQ/mXRvbgXbj1whX6d6pGbHIOTT1llo0f2bKNNlz6ItKznW+LjePzK2wIVf9FMuaD93zncI+NSCA7w/vkyUwYGtTv6/8FqnpcWh6NnwD8V/NW7sdStUuaffrf7+Dm6twkt+s5CVKqRQC9bQOTz7fLNu9SvWYXTjzJpFlRU6OZ/uM35FiMO6l+a7BOTM5FyHuEbJIhq/nmzGHJR64Wf2ibHjAJw/8elPLv4cTqU9wCrMQ+VTvjr/+f2W5T+/zrAr760AYRces+1o2VdLbUrO9G6rppNu5O5n2jPNQESFhUyf74ACD/hVK8iZn8PpCep5N+KVE7nOq2a86d3UK9JDzpb4snIgMsuPuTp7alkzkEEI3YdN5bS1Vrzzf48Zgwsw72YPEr5OFHKQ83ZW5nsu5DC5tmBClGSAhDUMmcOfEhsigODho5XrObz507ExdmJKTMWgeRNmYqbSU5ej5xzAaspDjO5XCsCCLHxT0mJbgVWB159rQYuLvas3/oufv5O7N+1nkXvLyc6OpoOHdvSvFlDuvcYSo8eHbl06RbvzBqDf0AAr7+7k3lvvcnea2l0qeNCUloBWy6ncmfNBK6Gb2XkqGmkBX9I6qUlSLIa1wZTSNrZB5VPddrXd2f4kL4MGjIRi6SitKMTY4MstAt5yoxTnpxNNhG27WuWr9zAocOnWJSRx3se9szLNrDBSUMEdrRs3ZAli2bSrldnBs+4ojA/yrKEWitzcG0NAkJi+GByBIdP/8TkD5YqYKfRNE8KkrU8vZNOyhVBaQ2xx48R2rSHkulhtViVcIhSpXxJSEhWnoaQoArs2rn69zw2JX1fIAmUAIQX6Gb+K1vJSE9FZSngYUwylvwsJK+KrN70E18vGExeajwR0WnkZqeR41aBuuU9yc03UpibS3lnE2ZTPjO+ucCA3k2xN5gp669C5x6Ao52OdR/PoEK9IVQqJ2F0KI2z2oKHhxtOLq4Iztr07EIuXrlJs9B6pGYZKe/nTl56DLfux+Pj7oKnlytae2eO7DuDt5cDTdq0Ij3qGhFJYM1KAK9KODpo8Rbxa6ZszkYa6N26KiqNDoswYyemUpiVidnJjw279rFk+ihyc7JQyQUcvBzPSw2Csejs0UkSImYix6zl5LlLDO7ZkYXf76NeeXdahtZSqvalPXqIMTcTVbma5KdnUKeiJ2mGbMp6leX8rVgyU5Jo37ouj+9cxJQeRaka7XFx91ZO7QWFBjLTUiiQ7cnNMVMj2AWVzoGc3FyystPJUXtS2kVNdGIeNSp4kpFfQI5BRX7CIwpyc0n1acRLgQIg5BObmEZWVo7iC/9vNAEQ1JZc5qxxonVtmRSDCw5qePLUQLUyRnadgaVvFDB/4TLCDp1AY9Fg1qlQW5RKSUrxJp1ey4XwnTRo0p3OlgTs0ow89PanmSGRO1pnjuPJm5OGEVCtNeuPZfHj3DqcjciisMDK9egcWtXyYO5399n0dgiDho3n4YNo+g7sypuTxilVECdMnMytW4+ZP2cSLi4OTJ2+iHKVj+PaTU3c8f1YYzNQaULIiH+LKxd3073PKCVzoEGNKdy6kcaocc2Jj0tj2845lApwZv+uH1j0/lckJiYSFFiBCRNH8s6cD+jYsRWffrqSt2eNJaB0AENmfc/o6XO5fD8Hk6mQigGOXLqfxZ1Vo7lyLoxXR03jiaY12de+xqX2eDRuFUg+/wEuQd1oXjaK4UOEBWEitYZ9SuWMewxL+RDnUhLnb0hMjXZi75YVfLlyPUcOhzMt350Eq44gSx5LXHIwSSpatWrEksUzadezE4NnXC0q+GSLQTy/vxLVmj7m9Q5RHAq3AQThtmg83Zv8ZDVP7yWTekFYRmRijh2jSdOeWCU1DRvW5uzZSzRsVJfbt+6Rl5dfYkH4b7xof+I5SgDCn/jm/DeWFrZzO+5enjyKNOJguUG1Lq/z1TdhfLVgMCn3L3My2YnUs5so3XYorWr58/j6dTbvukzPDpVJzMhiZ3gqPfp34sGpU9StbE+1Js1xcfRg1ZKpRGVWoHktPWWb9KMwJYrLl84xafJUsqNPowtozIpvlis55KWrNiXQT0+wn45V++4yuF0dju3+gRSrJ5XK+HH3yVMmjhurAISTTzR4J57EvsUQ3Cwm7lw7i2wooNA5hF6tqxMWFkaT0IZKVL8+/jh+zUfxzaofFYCQ9CQKDz9Plq47xaxX2nA8soDGZRxIvn8Ot8rN+XHtt1SvUpUosx9J+1YR2qkFd3IcKW1NxlCQzY24PHJzjcwa0Q1t2VL42LmxdN7bVHLX0e7VSdy5cQkXOYXgBl3Q2LtitRrZtmU7QYHl8KvZhKM7jjKoe200Dp6kpuXxOPo2OQW53Lp1n8xkLfMXjmHFis9JTHWkapA9Dlo91pq96RaiwpyXxtW7eUQ/usSAAb8tTfHffX4UgKBYEOypFayjcgU4ddmOxlVzuBKl5vFTM1vmG5m38EseHDqGUSORJcuYZS2OVosSvPpUEi6GHTQI7U4XSxLXNT6UxYBBNnFTdsIgq5g6aTgB1Vqx/li2AhDORGRx4VYqKXlqBrX24a2Vd9g8uxKDhozHSX2dBePK4FpjPTp1Bp9/Opx9hw28+eYMXJ1sFgS/gO+puSuIR8su4OHYjKhdp0mLn83Vi2F07zOGpKQ0DLlBSOZgzCY1zm5ZaF0u4OBgz/6wdUyethh7vb4oQ0FkPtjcMyLwcNiQrgpA6Nx3HDXGriI35iayMVfx/yee+RFLQSZXzu9m5Ojp3Lz5UInd8GrzNYWxx3AI7E727e9oXUPNsCE9GDRkihLX0dFBZlqTXL6OdWB/pB0FFiNh274tAgin8caZshZPbkjRWEQMrywVAYQZtOshAMI19q4uj0ZfwEsvJxEeVpGazZ4wrnM0B8NPMkVYEGQIaOGIezkH7m7MKHIx/AwQDGaZOrVq8DDyEbl5+dSsVZ0bN25RqcTF8O++Rn/p60sAwl/69v37i09NTcXdw53cnEJUGNHrtaRmmynl44bFWEi+RYUlPxuNoysOejU54lRulpUIapNVQjLlIQuSIr2KtPQ0PDw8SUvPwsPNllaWk5WFnbMHdjo1ycnJ+Pj42Ezrmdno7ewozM3Gw8uL1KcJePl5Y0VLbk4ODnY6MnML8HJzocBkxl4vLAOFmCwyOjt75UQtq3TkZmfh6upEbqGMi6OexKQkvHx8MRqNSBYRHS6RZ7Di7eFKdmY6dk4uSq55XnYGXl6eJCWl4uXpRk5ePiL/28XJkawCI856DRkZGWj0jmglC1o7ByyFOWjtHBVLhN7ZFTu1GrPZjEYtIr/VmIwmcjNTcffyVdLZRLh7anombk560DqQl5uHi5MdwpdtsVgxmYyI9DKz0YCzixtqjYb8nExUWnslzc7e0YWMtGS8vX2QrRYMRitGYyEuLr+FEurffzZsQYp59HtHq2QdTB3syJ5jGXTr4M7HPxQgSRY2L7Cydv1uDn2xkrtaLV4qFRqRLqdRkYMVz3IV2L1lBa07vKwo2JpyPiEFhWx29EIj2yLqP/94DrJbFVbuT2PJ6EBuROVz62E26YXwUgM3VuyOYcNbwQwdPIne9XbSvUUuHx56k6jH91n88l4mfVGd4WMWUqVSIH0GjUNS2dNw43IuDRhNlb6ruLtzNhp1EhfCdzDlzYX8dPoyqEQmhV4JUZSkQiWFs1mzenzx8TyatOxPgaHgWRrhM6earCJs+9e4urjSqv1AfNuMx9HVG2NWMrFnNyAVZqNSq5T6FFOnLeSn8MvK/oSv36lcW/IfH1eCBwf268rggT2UKovC/WCVVbxUTuJQjKVoTplDe9byzXcb2Bl2xFY+WhaplsL3ZivH3LNHO96eOZ76TXuiUpuQzbY0T5GGKUsmZdzw41t4nBBL5zGvKQ+DCMUY3qM363ZvU2IMnBztuL1nH/36jyHqieBjKG6yYvkRLqvunTuwcOHMf/9hKhnhLymBEoDwl7xtJYsukcAfLwEBEISS2HxUxY5TRWpSsipmbKusZlwvAy3qqpTo/GZtemIy21JUZUkoMTPubh4c3rtGibe4cv02r78+X1GQtiZO5mZeHz2EESNsmQfTv03k2kMZWVXElSDUtwr2zCuDTi+Yk8y0bD2IfMH6p8Qm2lIM/Xw92K34yWUOHQpnzoJPnqVJis9EgN7UN0cwsG83xdTeb+BrxMQkF1EYKLH/ylqOHd6Mi6MjZ85fYvKUxUWcDsVyVtOre0femjVW6T9s2ATuRj4pzl5UAJRKpSFs13L8vH3JyyugbcdBmAX3gdVWvlqspVrVYNZ8Z1vfwYMnmLPgi5/HKJpq2ZeLaFyvhiL7/kPG8zgqQUk9LAYqghvi1LFNaLU6YuPi6dN/vKL8n6l3SaZB3ap8/aWthPO0JUvYfkyAE9GE/NUKJ8O2Tz6mXo0aSlpnhy4jFXkWzyKCFUOCg9m47mN09v97LNEf/ySWzPD/SwIlAOH/l+RL5i2RwJ9cAsUAoZgIyLZcoWDESdbGMVB8ov3ld8UbK+6rwIZf7Vb8+5fRqDaGheJcfVt3obAE4FCJY/hz8bGi388q8/l5np+7mEron0W92hS2bVDbwD/PL/71fDDuPxv/5x0p3EsSqBSLyK/nKv6seP/Pj1s8v82S8ss5nxfX82P8cs2/vic/Mx09v47iuX8mZPrH+X6+r8+vQ5JUJURJf/L39I9cXglA+COlWzJ2iQT+whIoBgjvL/2aw0dPonAPKSdZWWHyGzGsD0Nf7kNCQjwzZ39EbHy8ojWrS/ZEG7PQ+/iwacOX6HU61qzfwcaNYRQYBCugTRmJvPya1aryxWfzMBktvDlzETdv3X1ONUs4OjrSr19HXhkygDPRP7H2xrfkFGY/BzhkynlWYEbT+bg7eDDzrfe4eOUWspLWaQMIopBSv/6deG3kEEWRvzx4Ak8Tk4oAhjBFyHh5ePHhklkElS/H4WOnWfrR14oLyNbEWqFunRp8vPRtBAdzwYnXKEg4XQRoiniQ1DpcW3+N2q8FR0+c5qtvNpCWlo4VFaoia0f5cmVZ+fW76HV6hg57hVPhpxV3kw0KSYqbqWXLFqxd/R3Z2bmMmzSXmNj4X2AHHx8vJo9/haahDdi2cx9fr9yI2WQqipUQ5FEqmjSqz6L5U5TxRs1bye378Yr1RrgpRAVKrVbP4gn9aFm/InceRDFi0rtkZ2U9I4YUkitb1p8jm5eht/vvuLT+wq/KC7v0EoDwwt7a37axo/v24OzkQIOWbX9x9omJuEZqgRWtSqJGnbq/GOzG+XAMVqjfpPk/nJd+26wlvf4KErABBCt1G3XHI9CBWq0zOf69npAGEonRRnJS1Uphom9Xb2bFNxtoa7YjsBDcdGr0JonFjjnY2+s4/dNOmrXqR36BASdfXyq/Ooyn4VeIO31UUeFL3p+lKPRZb3/EuDde4Y3XX0GtUnPnTgTvzPuQzIws9oR9y/h9Iwj2rEy2IYeLsWcUAPBKvTfYe28Lw2qOJMBSiZeHTqRt42RuPtLTrlkBh4/b4+AoEZvkztWzYbw6ejrXbt4juF42kkMOegcZSeXEzQNu1Ktdme+++VDJuBD4QvAn2LwDxad+me2bv6K8jwMZqyv+01sounq8kc7kqfO5ei+Weq9NJuXGZQx5mfje28/ZBB1du7Rl6MvdqFuvkTLGSxII0up0ZE4WHfbvRdxi+dc/kLvjFMPyRcBkkYVDJbHd2YyufxvmzZ6grPVnq8XPNNeiPkX4ie1EPEpgw+Er9GxVn1mf/ciZDYtxcbCjwYDZpGZkc3vHQhp0fIUnCWlYhesBo1IKWomdALq2bszGb0WaZEn7O0qgBCD8He/6c3tOfPwIv/K+rNtyDB97aNz2JdT5yWQVGrkXnULF0u78sO8scY+SmDZ9JM5Oeh7GZdK0WhnWhYXTp0NDDEYTN65fp0KV2pT3KTltvCiPlA0gWKjdqCdVXplIkNdnXN2pQe1gpm5Xmb3vSVw4t4OFiz7n5Q03UYtgOWxxCGe1FgKNGmb45HE+fAf1Q3soZYorTXiFjP0XcKhVk6dHj5L9+BFTJo/A28ubtT/sYNfONdy/95BKlSvyNCGB1PQsxo2byb69q5iwbxRD6r1Ku6BuTNs3mstx5zg88jLjdw+ne1BvVAnOHNj+GnOmxJGXpSE5zYp/KQk7rYUJi+qzevVBevQdS9BLF7myywdHbyvOzmry0o1U61DIrR3B7A9bT51GXRXgUmtgY1x9XLl2/Dw5EdmK4eOrL+YSWqMMuSdnYIg6gcYjEGPyrZ8DGmXwmJLGiFEz8NcnovWvyJ6wS0qRqterRbMqvj5tG9diUL+OhDZpQVtJIkLQWSucERIN64dy+tw5bly7yHertmHe/hOhhSqi7GzERpUKNVy2l8nv2oT3351Bo+Y9cXNxJS8vjwYN63LxwhUliDUjM5PwE9s4di6CMzciWTZnLIkZefh7CC4NiTNXHvDyjC+I2DWPgDp9wN6V1q99jkbvzOGPh+JZrjpP752jSnAgFw6W8CC8KO/0791HCUD4vRJ7wfonREdyL+I2Lp6+VK0chOTkzrefLSC0Sk2qtu3JheP7MHjVJPPBWdp26a6kpWVG3UKt1uLs5o63rz8yFoXw58Hjp7SsV+kX3tsXTFx/q+0UA4R6DXvg13MO1rsfU7lNFpGn9FRtm8+hL/VcPrOLBQs/If3YNTIKTUww6PAyKhyEmDQw2jOfs6duIyUpAAAgAElEQVS2KwCh+jtjyI9KwblMOSx5FlJv3KMw7jEjujbGy9sXjU5H966d+GHDVrp06UD4yTP06NmZpi27c3DPasbvH6kABDVa6pVpzIz9r/NZt9VM2DmM7hX7oo5zZv2aWeRm5nAvoQyu9kayC9S81DqVS1dUHD18hu59R1P/lXOELQpi2PLb7P0wEMeQx7R8yZcjHwWyL2wddRt1w8Xbldd3zmDP5ztw7WdP9IZIEsOS+FoAhAZVsHfwxGrKQaVzI3axO45NJuEWOpHEr+vh8vptxr46mWWVfyA2256+R6qjQqecydUubrRvUvcZQGgpqTiv02IwGGjevDm5T+K5ERPFtWuXFIDguvUsIYUyi/1tpoWluY7EGPKI6B3K++9OVwDC9YvHiI6JZcnSL2jZohHx8Sn4+vnTq3tLjp+7y6Lv9nBizXw83Z1QqzRKQGN8cirzlu1g2YzelK7bG8neiWodRuHsF0xOWhJxN4/yNOI01UoAwt/qnf/1ZksAwt/69v97m4+LjiSgQvC/N0jJ1X9aCfwMEHri0W462eHLqT8iTZx1wWzi7Pd6Lp3dzoKFX7L/4DEcTGZytRo25vqgshhApWGoRz4XTm+hXpOeuNcIxrFUAM5evkT+sJO6b0/n/HuLmDpxBD6e3hwPv8Cyz94j8lE0V67cIDCoLHVq16J1657s2ycsCKMVgJCUncjeiJ1sHLpfOdWP2d6f7sF9UCW48NU38/lwngFLoYaQYCPf/mBPk4ZWhozVcfHSHnr2GWMDCAsrMurbG5zaWoaGPR4gG4I48nE59u/aQL1GXRn4+at4VvXj/JOT6H11WK0mLnQ/x/Jlc2jUsD5OLqIYWVHVAqsFiyQT/5YeySLjNi+Nka/OZIz+R+JkLz644geSVgmrtPP2o3W9Ks8Ago+vNymi+JQSMiGxCZmBMtwoAgg/7T+mBGgW6Oywqq04Gwoxoya0fQveXzyN0Fb92Ln1e94Y/yal/EszatQwEuKfsvjdj/npxFYFIEz/bJsSQxG2Yj4VfF0US8WViCe8PO1z7u9ZSOnavVHZORHcfBB3Di5H5eROmVpteXz5OJUDPEssCH/aN/SPX1gJQPjjZVwyQ4kE/pISKAYIIgZBX7E3puhDqKQC6gw1EX8vn4Szrlw8s41FC5ex5+BJxmTraGBSE6mXqGhRscSpgGgHifOnBFFSD6wWGf92LdG5uSHlWXlydB+y2cLUSSPw9vZi8fvLuXzpIFaLRGFhIT+d+onCfJnPvviGfXu/twGEuq+SmP2U7y4tw8/Znx8HHeD1nYPpGtQLdYILU6cvplWzPJYtsNVoQEpj6kIvjhx35OqFPXTvO4bMwlga9E7l7kl3kh5p6DTjPuGrq+AgebJ/l82CUKZxOYxmK1lymq0aNWC+beKL99+iXu2K5Kzpha5yb3SOHmjdfUnf8xbG9EeoZfBalMbIUdOVgEvHqqF4VA8lZsdXTAm8DXo1d0uPVABCk6Yt8fbyYmxKChdUKppbrSwQ8yAAwmW+W7UVt82nGJilIVfhbQAn1FxwtnKub2OWCgtCi17o1DqMRpPyjAn3QnZOthI1GX5yyzOAIL6rWsYDZw8fJDsVr/V6ieGzPuPBngUKQBAxRXpHN4zZadi7uKNxdCP7aRRVK4Zw/kBJLYa/5Av8H1h0CUD4DwixZIgSCbyIEijOYmjasg/5RhFlb0GyWHELksl4Ar7eHhzYtYYzFy4zfpKogSAjm9UMUumJksxckAxMnTSSYYN6MfTVady580BRtB7Va5N+4waobZTM+/auJj09kyHDJ2On09G1azucHB24efM+127cpnxgAFs3fcU7R2byOP0BBZZ8DJZ8hXvAw96XrMIk5rX+iCru1WnZuj8WSUKtBndnmaxsNSarTNkAf8K2reD02SuMnzpfKYjkVy1TqeoYe9NN5Cgyc+prDOjXldGvz+TK1QjxUVGTbdwOksyZn7ajw0DaghDsmowi9/TXeLSZTPqJzxTuJU1QczzGhPHB0i/Zuv2QotQdgiuhci2FX9ZdCuIeMWXRu9SvU5VSAbZyzEImWknCqARD2ngikpPiOXrsDMsWfEpVo6bIbWfLyrinsdL51V5MeGMEnXsMJykp4+fHryhOUatRceL4ZoXUrOGghQoXxf9j7zzAoyr6tv/bvumVhIRA6L2HTui9V5GOIEUpIgoC0qQKooh0QTqK0qv03kLvvQQICQnpdfvud52zCeL3PO+Lz2t50MzxuiTZPTtn5jdnM/eZmf/9r1elNBeu3EWv11CyeCHUagWLxvXgq8XfM3vhD/8SZinNeOxcPYt64bX+ibe3aNNvICAEwm+AJE4RBHIjgRyB8ORpDLt/3i8nA8rxHlAqFbz9Vhv8fL3lgXrrtl1Ex8WhkpwBs02BAvPkoVOnlnL4nsVqYdWqjZgtFmcoXfZw1KJFIwqF5pfDBe/ee8SBwyezHQEVchSBu5sbvXp1lMuQit11bxvJWSnylLl8OByUDqpA5bzOBFmxcQls3bobu7TQLp3kAJVKRY8e7eWyFA4lu38+wOOnz37VpV6eHnTv0UEOSMwyGFmzbpMcfviq20K9ujUpW9oZvWCLu4Xx9iFsphRUHvmwpkWj0LriUW8ICpVOZrX+p+0kJ6c43R2yDaYqVyxLzZpV5DKyDAa++mqOnPUyx4VBrVIyatRItFpnIrBjJ85y48btV+qqIDAwD506tJSbJ+WjWLl6I/bs7IwyV4WChg3CKVm8iMz14q1ITly6I/OTNY/CgVqtoX+nBnK2TYnVvO82YDBkyu3NiaksUSSUTq0bo9MLo6Tc+P2XbxWLxfL/O5jkVhai3YKAIPAKgRyB8OJFInfu3pdDHlE4oxSkwalCuVJ4eXnKv1+8fJWMDMNL7wFpMPLwcKNSpXLy+1abhXMRV7HapUgH5+gu/b906ZL4+XnLPz96FMu9e7HyrIL0nzRY6bQa6jVyJqeSXnkUJVlUS2F4Tj8G6V8PNw3BgU7fAymZ1dVrN3/ly6RQqahYqSQeru6yF4Dl/lVMGZKXwi+HRqtFV7q6nBvEYDRw8eINbHanU6N8OKBIkYLkyxco1+1h5BM56ZPTwtBppywN7jWqVkSjUcs1O3fuirxU8rIyCgXBwXnlDInSYTIZOXv+crYLorMcaXCvWaMyGrVTINy5+4i4Fy+y80JI/BW4ubpSJay8/L7ZYubsuSs4pARZshBxcg0tWIDQ/MHyOZYHD8h4+MjZDOl9STuplLjXqY1a5yILhLNnL8s23i+Vl0NBnjx+lCldXBgl/epOyV2/CIGQu/pbtFYQ+M0EcgRCeP3O+Hh7M2/+VHr1HEaW0SSXERTkx+5tK7h0+Qb93xuHu4cHxqwsPLw8sNrspKWlMH/uBMJrVGfQ0E85f+Ea2KVcATan87Acb+/g+JH1PHmaQt1aX/6LmaDkQVCitA8nTk1k7RYl9yOl4VmJRmvBbNaidNjk6f8+ncyE5rdQI7xLtkmSc1lArc2DzRRPkcL52bh+HvbYaKJGNZMHU5XeA6sxXbYxVtoc5PloAa6VmzBkxHjOnLkqt1GaDZGWI+TaKiHi5FYMZiMNG/XEZpM2J9qRso6YHE7hVLpMMdYt/5o585ay7ocdoFRgdcmPmkwwJEs5lVm+9HNKlypO9brt5bZIokUWRNmDtySMLpzcyamIc4z4+PN/21/9+73F4IG9aNa2NxnpZsxmk5xsKj09HQ9Pd0xGA0cPbkCDgmsBeeU0zq8e0q+BPbqSf/ECtu08xJRp83Dxc2A2qFDr7NitFizpavbvWU2+fAV/8z0jTvxnERAC4Z/Vn6I1gsAfRuDVMMd3+naiefOGlCpRksysDOo37ITRZOHC6W1Mmf4Ne/aeIX+9juTx8SYhOZ36VUqyc/VcUpPSiDi5kaq1OhBcthOFwwZhNhmwWgyYLOlEnlnAwK7lcdUXYcC7a+SpeWkdXnqSdh4O8gZ5cvXmZBavVRP3wiks3nvHhdhEE9t2Slv6FHRsbiYt6RwjRjrzD0gZGKWkTYH1DpIRtZHMe99w8dxOokc2wxoXhcJmJe/kXaTtXEnGJWmXvwZrUGmKfLFZNoYK0BpYu/A9Z34ChYVZs7dw6K6RJfMnExQSTPsOg7BLwsQ7lcsZOi5b9Wgczgl6KZtj/4GfcPXaLVyDihMc1gqr3UzM+W0Y46Np2awBfXq1p1fvMdReanJaSb9MpqAEq5IP/ReycMk69h08QdNm4TRv2lB+wr9zO5I1azdSr56U7vkTqoV35uLZPfTpN4xPRw9nytSv+WnDMspXqsepo1uw7PuZh737y7MK8u6GkgVR3nks/yylqiqdkUR4rXZkWjJoNVdD3HkjfsUVxFyD25s8KFEilC2bVv1h95Qo6O9FQAiEv1d//am1tTnsLLt8mNvxz+Q/Wn/Y4XDg6+LO+2FNCHTz+sOKFQX9uQR+iWJoJ2/Qu33j1MsZ6Lv3I2nTvgfnT21nypSv2XPgDMF1ulArrDynLl7BxcWDFyd/xGDKIuLEJqrW6Ej+Kv0oWbUrvRo6+GpDAjZjJo/Pfs27Xavg5lKIAe+uY/6iVSxZ/I1kbkz+AvmJjY0hJuYWV29OfSkQKpRVUzVMwZ3LSk7dNOCwqejYwkBqwgU+GjUjWx94ofXohkV9hIAqy3l+uDaXzm4ndkRzzPHP0OUrTOH5J7BYrUT2Ko7NZMIWWJqCX22iVXgDAt1stHyrM41rhBAdl8Kmnce4feE+I778huCQEDp0HMQ7vvFEGvWcNmqorsjiuM0fhcLKxTO76D/gI5LyhqNRu2KzScsqDkbWW8j18y94auzJOz07sJwxxN8zYMtQYkqDtGgrJdor0OhcGOo+j8VL1uHq4UlIvgB+2nIKR74muLhoKOZ6F5shiVnTR1OtTnt5o6XdpkSn12A0mNFopcyiVk4e3Yxpz04evTMIz3zBlDh/ARLiiNy0GU1MNAnfraRseiK1a3XAaDXzXqwrKY4UbmrT8NMGcsxDSthUiG1bhED4c79pb27pQiC8uX3zl9Zs2sktnIi6+6dfM9jdm1kNuxMghMKfzvr3XuBVgSCVdfH8PnmjX0ZGBumZmdRt0IkLp7cwZcpc9hw8SYHaHalZoTjHr0UR4pLJmZ83o9WqOXtSCnNsT9nWS3H19OedFhq+/SEas83I7cPjGf5+J9xcQxnQ73sWLFzF3Xu3+Gn9Olq2asuP61fh7aN2ziCs0fE8AUYP1vP8hZXte234e1uJjJJmEAykJl5gzPh59Ju0lx+/OUha6j40biq8K84k9lA4l87tIHZEM1kg+HYYTmCv0bLgiVszjaSdS7H6FaXQl1uoXr0F/ZoX4VlcLE/vxlK0RAEaNq/O5Jk7mPLNTILzhdCh0yCG+iYzP8lLXiYI1VhlI6RIi4aLETvpP2Ak6QXb4GW8TK/G13FYjJTzPcLZ676cjHyHd3p2ZAUTuL01g+JtXIk5Z8KuzSKkijtKi5IhHnNlgeDu5YbJaGX/0Xt4lOkESj3lfGNwZN3li2lOgXBw/2aGDRvLsKF9GT1mOgcObqJGjeacOroZ8887edB/EGGnz6LxcOdC6TJyGKWUHFqpVFI29QW1a7XHYbBSOSGTipo8BFt0bLc84UIBH4oXLcC2LWt+760kPv83JSAEwt+04/7Iao84sJZbCb/e1f1Hlv/vylrWcgAFvPz/7MuI8n8Hgf9fIPTp2YpPPx0rl3jiVATvDviY86e3ygJh197jVAtviMNhxT24JM1rFGbMqLFoVEoiTm6hWo02VOm1nR4NNOw5GU+BYDcORTzn3oGhfDy8H24uBRnwrlMgDBncVx50W7drx64dm8kb5O6cQVijRaeVlhc0HD3lYP9RAxNHuDNtXibtmzgFwkejZlGr1WIc9iRO759GUL19JN1bgvnZGi6e20HciOYY458R9O4UvBp2k5cw7IkxPBhWD2veUhT6UlpiaE+5Yr4YI287NxzabYTVq8O6/bdlJ8WgbIEwPk8CM+O9saKmki6Du1YdmTZJIOyQBUK0Ix9lfQ7y5fA7nIuwYjJb2XAoFK/8nejTsz0rmITVbiLmgB2DwYBfCQ2uIUrsWRo+Cf1aTvZ0JuIKDRrWJCbRSpq2GkkWO/aH6ylfPN/LGYQK5Uvx6FEUpUsU59yFK4SH1+DkydPyDIIkEFI37aDUru1kXrjE5arVXt4R0q6JcvIMQnvMJjPVn6YQpg7ggT2NJKWN8/k9KVY0VAiE3/Ed+rt/VAiEv3sP/s76z7+wj133L/3OUv7zj+tUara9NRLlH7mU8Z9XQ3zifyHwS7Km1vK6/zdzJtC8ubTBD+Yt/JYFC1dz4cx2FsxfyWppQ54cQWejdMMOPLlwkIz0LFz1ak4e20T1Or0IrTlSjgywWwxYbQbMCVeJjzzOlIkfYLH4MaDfOnlHvxydKP/g3LMYnM+bK9cmsnCtlrh4B53bqElLUpA31MH1WxquXDHQvrkVlfU2fQeOQqdpi9m621lGdsyEtKfhQsQ2nk/siDnyAQq1Fu+whqj07iSc2YvCnIajaDVCJ66has022O02vPRKtMY4LAoNaSofpECBdau/wt/bmxbt+qNR2RnnEU2sVY1KZ2ZBYgF5ae7yme0M/mAiZ85foU6lNBaMvs2m/b7sORXEpTsetG7RgHd6d2baleEolBlOF0Xnfk1sRiXX5rqxe9ti5i1Yzf6DzrBPtd4brW8F7EoHZmMCTcP8mDJxBFVqt+fbJbOZOXM+vXt2Ytl365g+fRz93h3BqaObsJ85xu2O3eQlGynqQ0pClZMIWqlWUSkplsYtupOYmEVQQireGVm4qfTc9FWR5e5JjWoVWfHdXPE9yaUEhEDIpR2f0+xu2+aTZMj4HylIewek93P+/XcnuqnUZNqseOvdSTFm4aN3IdmY+VqyQ8Ka0ra4M35dHG8egZwohg9GTOT8xZvyADNoYDfe6tyBj0dOoXixggwf/g6PIp8yaNA4sgxZL8McpdZo9Rr27FyFq96FqdPnsf/Aacx26y8b8hTg7eXJ7p0rMBntVK4wmbT0jF/CICUPA62K3t2qMmVmF27e0rL9iAmrTZINzrTF0qCq08J7ve14u6rp0r0/UdHxsjeDdMjhh0oV4bXDmDl9FEq7kqdDa2A3WuXoAckiWfJu0Knc8BmzEH2Rsqz/aaecSdFil5YNnEGKUmkFCuTjx3XzsFisdOk6jNh4ecdkdkQGKFUqPhn9Pu1aNGTT1l3MX7AOk8WMXWEBuwqlQomb3oXdO1bK+wVat+pJcoYRh90h1zMn/DDAx4ftW5eRkppBp7cGkWWUuDoPSUvotS6MGdWfFs0asWbNJr5d/gN2u91ZhlRThYP8QXn58fv5KJQKbleqgjkm9mVqarnOag0FZ03Hs1cvLl25zkcjZ2CW9mEoJM8oSUyAu7uW/Xt/RC98EN68L+dfVCMhEP4i0G/qZZqt//dhVDn1PdhrPI3XTuPn7mNZf3kva29fpmepikS8SABLKiV0bnSu0JC+B3/gyxYj2H/vAF1K12DQvs0UdrFxP/XX8eavcuhdrg49yoa/qWhyfb1yBIL0JG6QQxuzY/WlLXcKBS56nfxcKh1Wmw2L2fyrgUyrVqHWSIF2znOkhEQ2uxTSl3M40Or18iyS9J/01G4wSJbBv8TkSYOuzkUruxRKH7TawPpyx780FtrRqlQosh+LpboajaZswx/ndaSBWa+X9uxnD7J2MwqzFZv8GWeb1EoNqDXOExxgMJuywyVzPqWQy8iZ8fp315FmKVz0+pfXMVus2Kw5vg/OCAedVotasnnMPgyST0J29IPMRS5D8kBwNkjiajZLKZhfVg2NzFUnCwFJVBiNhl+FMUrnal10qLLLkJZIHFlZKByql2QdGlDpXV+pqwWbVRJNvxxSXVVqtTBKysV/CYRAyMWdLzX9fxMI7crWZ0DZMC5F36VicCkOPk+mmruNWTcuMbxkMGuuXaKOiyd2pZbPH95kQsXm1ClVktupGZTxzYvFbqPjD58j2ef8u0MIhDf75ssRCJu27uXnPYflQVeyJ5Kf3+1K+vRpR906NbBYLLw/7FPs9hwDI6eFkaubnnlfT5Y/cfnKdRYsXCt7DrwcchUOmjWuz9tvtZJf2vrdU5KembFJo71s+6dArXDQc1QhtC4qbA4Hg4eMxWJz2hHneP75enoxe/ZY+en52MlzrFqz4VfvS+6JnTo2oVWLxvLrD6d8hSVRcjh8ZTC0QYFZY1G5unH52nXmL1zjXOJwOE2QJFfH8NpV6duni/wknjDzPczPon5lTyxFaAZOW47aMy/WjFSSP+2O2ZbdXgWyINGHFMR/9EJ5/iPWoOBuppTlMaclDnmJpYyXCX+t0yhqzLhZxMVLCbJy2NplgTF/7hT0Oh3m5Cwe/XBeXk7JWZ6RWuWaz4vQDpXk15YuW8dZyYMie8FFobDLr48c8S5lSpUk3ZLE9/fGonT8IqIkuoGu+WhbZDR6vdMMSxy5j4AQCLmvz3/V4ubrZ/7qaevVN8vmyc+N+CjC85fAW+8mnxeXmY6vTs+txOeU9gsgISEGb5+8HH56l/K++fBzd8PgUMnLDHabhX2Prv+PhIVAeLNvvpw9CGHV2+JRvAwGixV11B1MfiFyDL0pPpoLp7cjCYjPZy3GO0tNeFp5oj1SuOD+UJ6qrli+BCuWfUmLdn2JjU1E57DQXp3MTas7N3GTJ82/WzoDF3sI62dHyYN8WMNAkhMNJDzLIC3Rjneghg/nFqV77xHcvvsUpTRlnz35Ly0TSMsJMyZ/TPnyZWjToT9ajYpSpUrKMwDXr9+SDYgk98Hjh3/k2fwVxG/b8/JJWZHXj0K9e/BswXe4N6pN4Q/fp36zrgSkpzFbStRkd3ApzJ+fHqq5nWZn344V5NE5iGxXUrJaAJ88ZKWYMVrsxGSkUzFQR74DMSRNHkDWwS3kHToZVcFSmA0GUlZMxfjkAT69h6PtPYllV41oHDasdhve3k7L6vS0ZPZu/pHvJ/Tk26VrWLtuI4aEGLw8k6hZBPZf80XtFUDPbm8xdtRgLo7eDDZQ2ZUY9WbUZo2MRlphqTKtHZHPo3nr7SHorEbyqqCCzoy/NYltjgKo8wSwd+dyVt6exIOU0y9vRul77q7xYXydbRx49D0tCw98s29UUbs/jYAQCH8a2r9Hwe/tWU5kinMt9a8+5jTuRZk8IX/1ZcX1fiOBnCiGStXak6d2XdIS4in73nAuz/8cD08fUq9e5MKpHXw2bS5Hth3n7chuhCkcaJRW4rXJjAvdh06jk6MYalRvxWBtMs1bNiTt6RMSzu7HqnJnGqH0HPE+FYrUZ9PcOJQaB+7eelITzJQI8+HexSQ8fFR8tLAU3XoM5YWtDKmRu1BqPVHognFkxaJyC2TC8Oa4e3rIPgh58/oxsH9P2VmwbdsWtGzTg8eRUXI2xzs9PiDzeQx2h52QoQPwr1ML78KFON+oA1k+7lRZNY/K1VtTSmXjO0cCjvd8iNmRxdXnMN3qxaL5n1EtXx4e96hMil3H4yc2fL280BQM5tLF67QuCoWPxhM3rAkULEtw/8kkfD8Hmwa8G3Qh9ouh6ENKYB29lPHrzpAvJD9xL5JQq5V4efmwd+08ktNNRKybxJdzlrJxwwaWvRfJ4Wtanj2z0KupC59tC6FanVbMmTGOc6O2kLdeSXQuLsReuE9QlaI82XdVFkA1ZnRgx6GDTJg8nxaKOHqro1DZ4YZFzVxFWVIVaq5G7GDS2ZZYHE53TGnmoFfZmSgUSu6nXOB+ykHGVN3/G+8Ycdo/jYAQCP+0Hv0P23P0yS0+P739P/zU7z+9jH8Ic5r0+v0FiRL+NAI5AqFq+0EEhDchKyMDTWYmKVkm8hYvxIt9ezi5cwmTp86j/XpvIp+rmF94H4FWNbUNoZxzePMg3xnOnthIePUWjEg5T6BOSYE+Q3m6bhkJJiPrXYrQ5uORVCjSiM3fxFCsgjdla/uTJ68LV44/586lNOwOGyMWlqZbj+FEJ3tjSLwASh3BlYbx/PIC/Iq9xdAu3nh6uvPRqJm4uOgoWaKYvF9g9uwJzPpiEfv2H5EFwq2ew7DpdRQZ1JcUrZrL076m/Y/fcbZFJ2zBgVRdNZ/K1dpQUmNluWcK6mFmko9puHBUyzg8WTxvEtVC/InsHsbxWDe0mVkUqFWDO/vPkKyBt0pBkWMviB3SAtfOH2F7fAOVJRXvPuMwnzuAMTGOrKvnsIxcwpIIq7zkkrPqEv3wBuZHx3gSl8GxVZMYM+4LHpyeg97Dg1l9dVjVMG2ljfikeAqGDeWbWeO5MuMAigwDZrWCvDVKkPXwOWlRKXK51ad3YufRg4yfNI8AawrBSY8IUdnokkfHJ45SxDq0XInYxsRzrfDRBuHh6sPT1DvUCukgbwA9/vhHvL29GBd28E+7x0TBbzYBIRDe7P75S2r33ZUjbLod8asNSn/mhd21ejZ0GI5KMrcXxxtLIEcgNB75FQkPoynYqw/SQlNsdAzJx46h01g5tXYWk6YtoNAeHdVv+9Gz1Dp5+t/X5E2DuOrsLnyYM6e2ULNaUz5MvYCfTisb9QSoXLmVkcIB75I0HjGCikUacGJjFjFxaYSGehJ9P4vmg/Jx52wa8c/S5RmEHj0G8yzFF0tmFBZjCiqHGQtKAkv1Y3Bnd7w83WSBINkDr1qxQF6ESE1Po3nz7vI+AsnA6G7PYfg0DCekZ1c0vt7YLRZONGmPOsuIvUAwVVbNp1L1NpRxtbJ8QjJZZ8zE73ZjrM2FSIWWRd9kC4SeYdzVF8ZV70/K6XM8sEOAFeqWg8LHXvB8cAuCxn5L+v2LJF48R+GBn2BNfIHp0gnSb17ENGIJsw6nyRsH5TTZQPzdUzy6EcH5NZ8hbecY/emXOByp5A/Jh7enO+8OGMSggf3JMlrRaT1YPHcmEaO2ULR1NTR+rjw7d428pW0o9K0AACAASURBVEvh6qbg8d5rlB7RiJ1HjjD+s29oqnhON3UMFpsDpUbNB8YyZCk1ckjmZ+daMrHOHhafG4lSlYrFqsbVRcOj5Jvy7IgQCG/sV/RPr5gQCH864r/HBaRlhvf3rPgf9yP8Ua3oV6E+nUtWF+LgjwL6J5aTIxAq1mhLvhoNeHH/KnlrNSHx0H50RQuTIi8xbGOSlIth93E23m9JhlbFjKCzvPekOhG+D9kedI8zJzcTVrMNbTLuUdGSTH69gmiTncdqd37Ql2Toh/2pWLQezyKVnNoWRdHqfhQr5sfJbVEUKONG1MNUPlpQhu49B5Ngq0fKk+9RWHPC+qyo3Iow7uM2eHl4yksMoaFBTJs6nv4DhnPx3EHadejNw0dPuHB2J/d6DiPlWTThu39A4eJC5o373PhwjHNyvUA+wlbNkwVCuYKwpF0CTxZp8LCa+crhwTH0LJo3UZ5BeNw9jGcGFyIfmkhz2AlUgIe7glKhDlkgSDMI2vwlCejzIQ/fa4XCZqPolutETeiOwtWPrA8WMWGXFI4pRTRIswhK3LPu8mGbIhTNn1felDhm3GyWL5/LgP7vcvzYMd4f/D4bNvyAv38+tHoPlnw9k3PjtuMreSRUCiDt6lOM0t7OdCNSoETYlLbsPHqICRPnU1eTTndlNGqjAbQKJlpLE42eKxFbGX++FYGaggypsZDvroylS6mRcnzonIi+eHirhUD4E79jb3rRQiC86T30F9ZPeoqJzUghLjP1V6Fmf0QVXNU6CvkEoFH+EuL1R5QryvjzCPxilNQGnX8gbgVCSYl8RECF8sRfuIAtI5ULETs5sP8kYyd+gYtdTVh6MCFKb+4qYrnk9oLiRUP58YcFtG0/gGfPo3Gxg78tg0yljkSVizwwfr9mNo4Mf7YvjKFczWDiE7JISzBQpoYf96+kYsm08cE3hejeYzj3HifisP7i2+HMhKhh8qTBhNesQaNm3dG56ChUqAD37j2iRIkiPH70VN64d/LoBp4uXkXixt3Svj48ypXCGpuAKSFeDqP069yC/IP7U69RF0r4pjHVnIAyXomHDa5gZ7AigCMHfsTdYeBJ21LEpTnTJ+vV4KYEKQu1mwsUPJRI4oyhpB/cgG+Npri27ErG8+dkbF6MPfYJ7l2Hoeo1nn5LX2CXNgVkH+FFdYxqGZD9m4OpM+ayY8duQgsFc/78OSxmC1WqViXyUSQ9e7zDqI8HcfGTHeh93TAkSt/ZX4IhpeiLSjPaEZsYT9v2A2mpjqEHMRxWFuG8VcEthxeePl4c3LOO9Y+m0q7Yx6RkxbDr0RJq5++Mu8adpZeG0KbwJ9QrJDlOiiM3EhACITf2umizIPAbCOSEOZ6KOM/5Czew2aQsi053Qo1aS4P6NSlTujhZWVls3LKHpMRk7EoFKjmuX4G3lzt9+nRGhUq2AD5/4Toms+llCKMU/likaChtWjaW1+FP740nLUnyDZCGb+d1tFodFev44pdXR3p6Bj9s2E5m1i/GQVIz/H196Nq1HVqVmuOnznPx0tVXrRRkL4ZyZUtQv04NudVxP23HlJL6i/+AQoHezR2fNo3ReHly70EkBw4dw2SyyOGNchCiQkmZMsVo2qg+OGyk716N6dlj7NlujdLgrNFo8ezwLkr/ICyxURj2rsdkyJTFh1XpkEMbtd558Hz7fZQKFSfvZvAk0SJvmJSOQv5qwkt4vxTnUtmr124kOSXHS8QZMunl6UW7tk3x8/XGnJRJ/JnHcupp5+F0oHQN9CBPtcLyK7v3HubuvUi53iikJQ1w0elo0iScIoVCyTCncPHFbgz2JBQODQ4pE6ZDgafOj/Cg7mhe8Uv4DbeNOOUfREAIhH9QZ4qmCAJ/JIEcgSA9JmdmSZsFpdKd+0ZUSnB1lXYkOA+7Q4lFdjh0DlBS+KJGoUSpMqNwSKmBIMtoxCo5HeUMZQo7Hq5u2eZDCnmgzMjMesXxT4FWo0an1b98OHbYzLJrYI6FsvQEr1Bp5AFcCpGUhvP0DMl54xe/BZVKiauLu5y6WR5CbSbJXUh2Usw5FDp3FFJaxBy/AZNBNm6SyrTLsxRKFHpXOcWzfBWHgoysTPkyzis5UKvUuLi8apRkxmR0mkdJJkqyN4SLLtsoyfm0n5GZzitWCbJwcHf7xcBIyjaZZTS94pUgDe56NJps0yPJGEri/qrDkSQAVNliQKqZw0Gm2WlQJZ+mcMjukjp1jv+CAqvFiNFscU6JOGuMi6tUVx06IRD+yK/V36osIRD+Vt0lKisI/HUEcgTCJx9O4sHJM6iUKhIUDjwUWqIdVjp0aMm4MUNIyVKzKMJTHoDinlyT7X19Aoug1bsysEoSvu4waepcdu06hEZnwTXIiCXLFcMLNQUKhrBh3XyyDAYaNe8qpy2W5x8UCrw0BlLNej75ZBBdO7XB/CySxCPrUKqtqDQWFGobKq1J/t297jSUei+GjpjM6dMXwa5BpbdhsZrkZYzqVSuxeP407EnxWHtWxGaRHAyl07QorGanZfO8PahKVyNz00qytq7MNjZ2DpZS2zSFiuI9dSUWq42mLXrJttCFCufH3d2NJ09iSE1NY+KkD2jXsjGHD51i1Kez/qWz1BoFOzYvI4+/P526DeDJk3i0GjPF8jtkX4WbjzWULV2SlctnExMTS8cu72G12/FUW/BXm4g0uMuD/JIFU6letSKHHqhZdUkp83KO605fCA+9kvmtpTZaGbgqkWfx5uzNkJKQch7v1HGla01fTp46zwcfTZFfCwnJi8FgJjExCTdXF3btWEFAQNBfd9OJK71RBIRAeKO6Q1RGEHhzCORsUpxZpQE77G5osdPTZmaR2oO+1mRW6705d2YrJ594cPqxjpVTW2GJj8YvoChFqjalYrOBKFQORtdNolqtjviXSaZK3zsoHWo5P8HdfSWIOufKR/2H4enpwZjxX8qNtyvsuCgcDCtzhy9vlCUgjy97tq/gxZbV2NJiUahNsl+CUm2REgegccnEpUJvLj1TMOSDifIsQPGB5Yg6dh/DXWM2UAcXz+7A3K8mtqj7crIm/YDxuHYYhCM5haSuJVEWLo/220Mkd62NVa1FoVKAxUKeIRNJWjQVq8OO52ffkuqZl5Zt32H5d19Tu1Z1eanCbLZQM7w5mZlmLkRsZ9B7Y7l45Vb2oC1nn3rZsc2b1aVv70683WMY0sLDgsFXmbc1H17uNj55O4a3plVk5+alLFi8hsOHTlA/Txxji0XipnWw9qkfSx6VoH7DmsycNp4+W1xwVdkwWhVykqvieZREJjow2u0s7mDj6kMj07bG/rI94ZXby6FQs3dUHurU7YQNFWtWz8dus1KydEmWLlnJsuXrKVU8lB9/XPHm3JSiJn8pASEQ/lLc4mKCwN+HQI5AqFKtFT+mJ3BLq2SpxoXphiwUVhMrXPMw58LPHH/ix+lHsGpSI+xpGXSbsRelQ4neww+lUhIIaXKGxCZfnEejVmLNcuXWAW+iT+TFRDqjhg0hwD8Po8d/KT/deiiNdCiRhI/eiE2p5qenFdm7czUvNqzGkhqPTZ1I3OMScurn046nvF0hDZdKXTgbaZbDHJUBahp+3YJj034m865zv4LWpuXiuZ2Y36mC7dkjvFacIX18Zzw/30bS/JGoHtzA5u2H27LTJPYIx5E3FFe/IAxRN1G4u+NZowVJW5fh8eliEr2C+GbR9yyaP43Ll68RFxdPvbrh2HFQvWYzIk5s490Bo7h6/S6ufn4UfbcvChcVN76Yi8VkpmXTuvTp2ZGuvYbjUCsIKVmCBoFHCfSyEJsA64+Hsm3jIhYuWUvAg030zhcJKgceKjApYd7dgiQW6cgXMyfRb7OK7zq6cibawIssNX2rarn53Mq4PSaWdFRy7k4Gs3fHvlxyka2y5bwW0gKLhv2j81JLygj53ddUrlSW1q27U7deLXp078i3y9Zy/fpdtm9Z9fe5aUVN/1ACQiD8oThFYYLAP4dAjkCoUL0tK1JiiNK58UThSmtDLAqlmn5eQRw+vYVjT305+1hN9P2LWKx2/PMV59HVg5Sv0xlFtkCoWK8GDYbHcXJuCaxmFQ6FDZ1XFpZULz4a3ps8efIwdtxseSAr65dB7fwZ+OqymHuxIO6+/uzeuRp1XDJxZ44SWHIE6XH5SbzXAIWLBp9Afzzr9+bomWtMnLeAGjMbyEmPnl65h97DBe+gPJzof4AL57Zh7l0Ve8wjXD/+EsvuH1CqtOi7fUDyzPdx+OXFfdkpErvXxqpU4la+MgETV5IZcQzXylV43L06HmO/JcEnAKVCh1Kt5KeftpCVZWTI+30JCgqiTuN27N22kncHfMLVWw/wC69G0pEzeJQthtbLlcSrd2hepwa9e3Xg7d4jqDx5JrdnTMXf44Uc+ju5x23e/bIcWzYvY9GStVw/dZh4o5o94WfxUMKFDC/GXStBxVrhfDFzIv02a2ldWkm/GlKCJ+ceg4tPbcw4aGFRRzh3N53Zu+IY3DSI0EAd6Vl2zCYHPt5qJq5/xo6PA6hVux0rVsxj/sLlDBjYizNnzhH9LAYXF1eu3bjH9s3Scos4ciMBIRByY6+LNgsCv4FAjkCoXK01X5iSOa3Q09uQ4swiaLfT1i+Uyyc3c/SpH+ceq7BLmQsdsHfpB2QmR9Nl/E7nEkOdNCrXaknZLne4/lMptJ6puPoqSYtywcXbwvs938ffP4DpMxeg1Whp4n8dh9VBZLoHjtC6PI2KZveONcSt+hG3oCD0wd2JudYSjSkElUaJe/4QVAUrcC4qi9HT5xAcXkB2EnQtrMezoC8P1t8h8Xwcl87uxty7CvboR3hO3wBB+TBvXoq2yVukfNoFAkLkGYTkdxri1rIHSad2ETxwEvqajcBsIrJzOTzGLiPeJw9btuyhZcvG+Hj7snLl90yZPAaTyUy18OacPLRRFgg3o54TULMyQS3rEnvsNDHbj+Cw2GjRvD69e3akW5/heFatTkDpUphfxBPyYBXennZ2n/Nn+6ZvWbhkHfsPnkattLInPAJPJayLzsf8+4WoX69q9gyClOnSzuet1RTLq8NkcTBiq4XnmdISg4Ozd9P4ctcLeSlj1bBivDPvPptGlmD96QQ2nU5m/+hAatZuR68+XYmJeUHlyqX5+ecDcu4Kk9VOUlKqEAi/4bvyTz1FCIR/as+KdgkCv5PAy1wM1dvS2JzK+4YMlNJ6u0rPVezM8AjkwumtnHzszZmnak5tmkVC5CViHt/E1S+QPlMOy2GRo+ulERbeBv/SKVTt8Yh7EW5kRnmg87fwZH8+Pvl4ID5ePnw9fxX5g/1p7X9R3mx3N8Mfl+Lt2fXzfvbsWEn0iq1YkpLxLL2FrCd1UKrUKDVmFGorHuHtufrCypDhn73chFeyf2ksJguP1t6Vow8un92J9Z3qmKMf4Dl1I+bTO9C3fIeMz/tjexaJo2g5XBcfIalHLQjIj3efEbiUq47p8QMciTGkbF6FS79RJPnkoXXbd9m963v27T3Ie4P6yc/u3yxYzpJv18h7HQYMGsNleQ+CA6tKicYm/eTch9C8eT369u5Il54fUu2Lr7k2dzZKpZrAJg2JXPGd7K64ffO3zFuyhoMHTsoZLffWPoO7ZOV8LoxnWVoaNQxnxrRx9Nusp3UpB0X9VXKMxrbrNp6l2HCgYkkHB5cepjF9uyQQFKweVpx35t8mvKQ3NYq7cfmxhZHNtdSu01GO4Bjwbjd5M+fd+/e5ePEau38+QonSpdjy47LfeSeJj/9dCQiB8HftOVFvQeBPJpATxdCkRU/8k5LolpXJDJ0ek1KFQqEiJCSA7ZuX8SJdz4oLbvLAvHPxcLCbaNxjGq7e/jQtZqBSPiMfj53GkSNn0XpbKNrwOc9v+JN81wUfH092bltF5KOHfDx6Js2a18nJ9CzH4j9+HAMKC3NnTyF2x3Eybz1AobagkoWBFMVgxq6HgMad0QUXomWbvsS+kNIjg3spb9LvJqOwKyhZojDfr/4ae+QNLEObYrea5U19dikaUE7nDPrPf0BRtSlJX4zFevVkNt2cUEBQunvg/+1OMg1GGjfrg9FkpWHDatSqWY0vZ3+LyWymbNnCrF7+DavXbWLe/NWv9JC08K9Eq9Xw1edjCatSjjad3yM+MZnyw4ZiQcWdeV/LERdSsikp0mHfgSNMmb5QTqftoraT3yWVu+k+ckzFyI8H0L1LWybs1/AkVSWHMr6MZAD0GjsL2hjRKBR0WvCMLIODSd0K8tn6h0x4uxihPmr2XYymfwN/du87wsRJX8nypViJUGKjX5CekSXXdee2FYSEFPiT7zRR/JtKQAiEN7VnRL0Egf8ygVd9EKRBWhrgchILSbkNnOF/zqA5pcOEQ2l15hmW35FiCPVyTgHpc9KeA/l1aSDL3tAvlaHA6ZEgHXalGYVdIycKks6RQvKlrXQO9CiRnortWJWSWZP0YC4Z+tiwKtTorNZsdwbntR1Y5U2Szs87ry8vi2TH+NsUDqyyb4JUS4Xs06CxS0IhO6OhQzI2UmJTZtdVAUp79iyAwiqbQaEwo7SpXs5WSC2xK+047K4olGbndR122UXhl0O6nnRd6V0pnNPp5/BqiIHUbqfXQk4wotWZr0GeH8hun7zBUDpHKUPSkOFshwxWes2BUalHldMXdiVqUpzXeWm2qMSkdMmujVSuHWW2YVNOfW1KqUwVep37f/lOFJf/bxEQAuG/RV5cVxB4wwnkCAQpOdDiRWuxWKQB1DlR7uHuxsBBXdGoNfIrd+8/4tCBUzgc0oAuDbYOwipVpGaNKs7YfIWdTZv2EhsnpRZ3DpqSKVC3bh3w9faUy01OSeX79VuzIwKdQ7uUqKhd6xYopMEXO8+v2kl5lmNyJLkC2ilU3RNXX6dBU0aWgZUrN+KQBI3TFQgfH2+6dW+LCrVcxs1b9zl29LQ8deC8ip0qVSpRvVoFlHaVJEPYsGkPL+JfyAOwQ6FApVDQs3snPL3c5WE6MyOd1d9vkd0lnYcDPz8/ur7VHqVcVwcPbroTG+2gdjMDDpuaUwf0FC2TSXCIHEaADTsrlv+I0WTEIQkWhx0XVzf69ess10Oq6+27Dzh46MRLISbVp0q18tSsUkmyq5LNpX44GyObUOWM/SqVmm618uOilmrq4EVCMhs37nC6Pso+CSry5QumQ9vGssGUNPtwcfdlrl26JIulHK+kRu3rUbBCYbR6IRDe8K/qn1Y9IRD+NLSiYEHg700gJxdDuQqt0eqVpKcZUEvGQlgl30A8PVyJOLWJM2evsGTrfcDKjeMbsdvNFClbHbPRQoWiPkyZ9CFdun+Ah6eLPGA98byI6aIfJYsVJD0zi69mTSQ+Pp53B439FTCPkrXJuH+WSiULs3TFHCKWpxJ9LQu/gnrKt/Zn3/yH8iDp5a0j7G1PfIpCwyY9MZqy5Cf1fMH+RMckyANnHn9f9u1exY8bdvDFV9+9fHLXqd2oVrwFJ29t5L33ezHgnS683esD7tyPRK2y0LXpc6pUsPHR54XQ6/UcP/QTJrORho17YrPYsGWnFlE5nExKlpSWMuaw8wctJ/ZrZBFSqqKD6Cc20pKl2RIH7XumU6aKgcbNu8nux737vI1/pdo8P3eC9es3olQpOXrgRzZu3sO8havwLl2J0OoNuLpyriwapJmPgQO68t67Xemz5ALP4sxUKZWXuBdxuLu4cSs2BY1SwfZR4RgNRpq06IGb2kKzplUhdi+pmTr23/CgQoWSrFg2h/mj5nLw273/ms1VoWDk2rE0fbvF3/tGFrX/PxMQAuH/jE58UBD4ZxPI2aRYonRzAgMDyZ8/L0ePnaLr2x24cu06jx5Fcf/2XiZPn8/FuyZK12rL1YOrsRiTKFapDskJ0UTfvsSZE1tkH4SZMyfgV1rNpwf74f6sEDs+O0jXroNo0ri2bIY0evxXYLfKMwFulTsRWLYOPr5eRH0/gp93rGfv9DhcfTUovIw071eaBf3O0HNGBTZ8epeafbyJtt5hxMhp2VP2Ni5dOEyLlt2Ie5EgD8yXzu6iXad+6KwhFAusyIFr6wgL7USlomEUDg5kzv5h/Lx9HdWb9aH5JxtR3jrMZ61bkmEIYuPmLey9uIcPx4YTEpKPth0HUmNaAyaHD2TVdxuo3b0mc9es5MGPNzkfsZvlX7hz/062tXN2XokcK+hK1e1UbXyX7r0+YNbKteAXSmxcGnkCPFC8eMDod/uyfdMyFi5Zw9HL9/EpVRk3z0Ae71lL0RZ9ibl+gipFfJg1YxzNp54g2N+dRe/XxEWrwmK302XWAdKNVnaOacCJw4cYP2kus96OpEGbwWjcC2O8OoAei0rxKE7HpbPb6BDYEVebKxnWdII9CxCd8oQifiV4nhpDvhKBLLgijJL+2d/0/7l1QiDk1p4X7RYEXkPgZRRD1fao1UouXdhPyZINKVjEjyuXH1KocCjHDqxk8rR5/Lz/FHW7TyIp6j6JMVfIm78Ilw7vQqtWONM912rD5NnD8S2iYWnEbDb0OEHnaZ25sSGOj4e9g39AAJNnryWkw2hSH93HjBJ3kggKa8qTdR+wb9sPbJ/8jLwV9dw6+oIBC6uxqN9ZQqpriD2tpHZ/H55bb8tGSdIehX0//0BoaAFWr/6JGbPmywLhYsRO2nUehKehNE2rd0JyWL737D7+fgpahHVg1E9t2L1jHZWrtyKkRDPaNh5K3/IF0ZDJsuVHWXhuDAvnjSd/SCjtOg4kf8tQ+vbrRvNC4Xz080zOTHBubLwYsYPvvvDg3h3rL0sDr7CuUMNK1Yb36NnnQxbsOsrx0/c5eyeROuUCqVqlMENa1WL7xu9kH4RL0RnkKR5GwsMbZKSmYsvMIE/ZphRV3uSLGZ/S8aszdK1diDql8/LjiQf0b1qWz7ddxc/FjSEt8nP80CG2rZrC151usPB8E8YO7kLq1ZlkJj+hxZJqXI7YQceADmjR0qpod/w8/NjzYCOtir3NpsurcS/iwuIrwgcht/6xEAIht/a8aLcg8BsFQsGijbBYjEQ9vUi5so0Izu/HwwfPsNkVPLqzj8nTvmHXnuPU6vQJOjdvUp5GYDJkcOvsYbRaLREnNlIxvAUz1gyhiG8JygVXZujWHtx+cYG4Vf58/O5A8uQJYOzEOfg1+hC/4GI8P/MdejdvQhv04PHaEezdvpqN46NIeGqQZxjeW1mJdZ9cw5DskCcd6g3y5YXjriwQihUpxK6da1+2rknzzjx9+pyLZ7fTrtP7eBlL46p3o0FYB16kRBOVep5etUYyZrMkENZSuXpreW1+YLv9tCrWndS4ekze/IwHmREs+mYCwQXy0aHDe/J+zKrjatO6Ul2WL11H1N4oeWnjYsQ2WSA8vGcjKL8Sb1+w2xUYjHbinzsoVtpKlWyB8NmWI6xZexqTQ4efi4OOb1VnfPuabN+4lEVLvudSsgtB5RvKn7eawGrK4uneedSqXkIWCJ3nnGfP+KZ8svIUFQr5kGYGvcLK8wwN7zUO5tihg8Qd/IjWJZ7Tdm1VIha2Ie3ZHWxP1tLmh+qcPL5bFghWs42lb21hScQsGhVuzeXn57n25BLuRbRCIOTivxRCIOTizhdNFwT+NwI5MwiDhn7G7u3HSEy6AkolDrsVf78qFC8dzIHdK5g8dZ4sENz8C1OtxWCyUu4T8/ASUbfOy6FyESe2UKVmWyZMGEH3Lh35cPc7XIo6wYtV/pCm5aMPe+MfkIcx079DpXHFmPGcUr0XoNXacHPz4vHa4ezbuZL1o7IFAnYGrajM3SvPOTovTt5k2HBIIAmKe3w06nNu3Tomb0jMOXbs2suoT6a+nEHIY69KXu+iPEu5RouwXmhVDgoGFmTi9g7s3L6GytXbOJMzKbVMKL+dZ4n7WRo1R166WCgJhPz56dBxoLyZz7dyAAXqF+bqVxHy5WQnw5wZhNt2ZizVkpWh4NiBdGKfQuHiel48N1GlkXMGYdHhw2gNKmZ9f5ORfcqg0zjoVbcp2zZ/I88g3LGEkpmSSLHmH2K1wI01AzEmPKVe/ep8MWMcLaefoFzJUNLTUpnZowoTfoigb9PSTFxxhk1j6nP08GEmTPqanR1Oo3YrRN6wOiSf/4GZB/zYl1CUy2d30DFPO/zVIWTakhjd+AuiEh/SsFRrRm7tiyZYKQRCLv4zIQRCLu580XRB4PUCwU6+AnUoUDAv0U9f4O6uJS3NRP5CQTyNjCbq8VFWrNrMom+/l4tq2HMqxowkzuych8NmQ6/Vcvr4ZmrW68SY0R/wMPY2B9UriVvviT1ZJ4flzZz2sTwVP2a8ZLXsHGS1bh4U6z6djKirmK9uZ/fW5awd9oC4KIMcIfD+sjAOr3nAvRPO8L0WH4SgLZBO73dHEVog+F+a9eD+Iy6e3UnvPh9x/c59dGp3TNYMSgRXo23YQDadm4N3HhvLl8+hSrU2shOjVO6nQRtZEjuUJMdzua6bf1qAt68HjZr0fnkNlY8aW7K0SdEZ3nkhYjerv9Fz8yoMGafg5412MlN0VG9oxWpR8SImg5rNntL+7UEUCg1l+oKF3DL7UlIVy4ThI3jy+Cm7t6/gm3kr2X/ohExE65mX4LrDiTuzmqykO7Rr3ZgJnw6n8fQj+Lpp8dC7MKF7FXaceURSmolTd+LY9Wk4D+88oHf/UTQLec70wfVJeXgDU8w5Ou2vgtWh49yZbXQs1RlLtJRS2hn1kJNNUwonqd60GlN3fyW+KLmUgBAIubTjRbMFgdcRyAlzHD/pa1av2oSfvw+urq7EJyRgyDQzeswAhg3uTXJqBt17DiUuLgGVzkUOX7QYMwjM68/aNXPx9/biyPFzTJ82j+TUJKcXgBQ+iIJuXdvz8Yh+ZGVmMWnqNxw5eloeZKX3pMPVxZXPZ4yhTs1qPL6ZxOYZD8lKNeGQtv/LYYoqCpT2ovOnhXHz0fHt0h9YtlwSK7/4D6iUGj76uD9dFxC3aAAAIABJREFUO7eVTYd69PmQhw8fvQwLVNo1uHrp2bB+MYF5/Niz/6hsHGS329A4XDErMmVx0KJ5I6ZNHoHNZuPDj6dy5syFV5IggUql5PMZn9Kofi1iohQsnaXD7gBDlh2VWoFa7aBEOejcx4Le1c669duZP285dmzUrlWNk6fPolKoGDX6Pd5q34qExCQ+Gjmdm7fuyCw0br5YMpPw9/dl4fxpFCtckINX45i145YcGurvqSE93YLJYademSDGdSwl78f4ZOznHDosCQ3pyPatUKmZ88V46oZXJ/ZJHMNqDSIrw/DSbEnqgSIVivPNsQXoXdxed6uI9/+hBBQOKQhWHIKAICAICAKCgCAgCLxCQAgEcTsIAoKAICAICAKCwL8QEAJB3BSCgCAgCAgCgoAgIASCuAcEAUFAEBAEBAFB4PUExAzC6xmJMwQBQUAQEAQEgVxHQAiEXNflosGCgCAgCAgCgsDrCQiB8HpG4gxBQBAQBAQBQSDXERACIdd1uWiwICAICAKCgCDwegJCILyekThDEBAEBAFBQBDIdQSEQMh1XS4aLAgIAoKAICAIvJ6AEAivZyTOEAQEAUFAEBAEch0BIRByXZeLBgsCgoAgIAgIAq8nIATC6xmJMwQBQUAQEAQEgVxHQAiEXNflosGCgCAgCAgCgsDrCQiB8HpG4gxBQBAQBAQBQSDXERACIdd1uWiwICAICAKCgCDwegJCILyekThDEBAEBAFBQBDIdQSEQMh1XS4aLAgIAoKAICAIvJ6AEAivZyTOEAQEAUFAEBAEch0BIRByXZeLBgsCgoAgIAgIAq8nIATC6xmJMwQBQUAQEAQEgVxHQAiEXNflosGCgCAgCAgCgsDrCQiB8HpG4gxBQBAQBAQBQSDXERACIdd1uWiwICAICAKCgCDwegJCILyekThDEBAEBAFBQBDIdQSEQMh1Xf7rBj98+JDMzEz5xeBCxfH30P+vRMwmC1qd5j+iFhsbi87NBx8PHQ6Hg1s3r2OzQ56AQILyBr62rPRMEx5uuteeJ04QBAQBQUAQ+OMICIHwx7H8W5bUrVs3rl69hlKpYPSibfSsUwSTyYROp0ehAIvZjB3QabXUrl2bGfNWUbdyERQKJTgcSCfZ7XZsVisqtQa7zYoDBRqNWuYhlTV//nyKVO1Ih3qFsdtsVCxXHLvSBYvFwvyfDtO0Yj6MRiNarU6uh81mxWKxodfr5LI/WbKb2YPboPhbEhaVFgQEAUHg70lACIS/Z7/9YbWWBMKomYuoHOojl1mvXj28PT0p2qAb9YIMfL1kDaasDHYfOUrtsDBcPMrSp2tpOr8/jeSzK/Gs1Zfh3Tvy6OFDPhoxjFVrvseQlcnpiHP06N6dpKRk4uJimTh3868EwrVbD5k75wsexXigSdjDvRQVqUmJ7Dp4hJaNGuHmqicgMJDIRw9JTs9k3YafqVQi6A9rtyhIEBAEBAFB4H8nIARCLr9DJIHQoG1XigS4U75QMHVadqBu3bqcOHaEC6cOMeLTabyIfcyXa/bTp1VtZi5YzfFt39Bn1HwSTizEu/4Q+jSvx8LlP7F782p2HTpFPl9X8tbtzaW149h/8jILvp5Fkapv/Uog5AstTvNWben/bk+atujIqaMHGD+gOTXbD2fZgtn4BBWiWPlwPv2wL6MW72L2+61zeU+J5gsCgoAg8NcSEALhr+X9xl3t1RkEU3oiYTXrs2XLBnbuOUpmajxpdlcUqbcYOnUF3ZvVZujQkTy6f5bAojW5vv87RizeKQuE77fu4cimZZyNMlO/iCcN3h5A5+Z1+WzGlyycO5tuQ2f/ywyCE4aDmmFhfPfjJj7q053Pl65hz85tVCtflBlfL+bIwQN0H/k1Sz4bhKe76xvHT1RIEBAEBIF/KgEhEP6pPfsb27VgwQJad+1LQX83+RNZqbGMn/wFH474mHx+esZN+YJe/QZy+bmFGtpHrNpznmF9OzHn23X0HdgP/5DiLJ41lSEjRuPrrmXpvNmkOlwZNXwIYGfsmHEULFOZsCr1qFIqALvdxqejRzJz9tcva5iemszkKVPoOuBDqpQM5dTxI2zbtZdJ02fhroFxYz6h1/sjKBkqlhh+Y7eK0wQBQUAQ+N0EhED43QhFAYKAICAICAKCwD+PgBAI/7w+/Y9a5MBBqtGAl96V5xnJBLv7EJeRQqC7N2lmAx5aF2IzUghy9yYqLYEQT39SjVl46V1INxnx1LkQk55EkLsPyYZMfFzcMNutaJVqMi0mdCoNmRYjHjoXrDYbGlV2dIPVjEqpwmq3oVaqUKBArVSSYTHhrtWTlJWOr4s7qSZn3YxWMy5q7X/UNnGyICAICAKCwP+dgBAI/3d2/4hPfrR/DWNqt2PV1WP0rVifqcc3M6V+FyYf28TIWm2YfXonn9XrzNjD6/mySS9mnNjKhzVaMjfiZwZXbcqsUzsYWbM162+conPpGhyOvEHLYpVYeeUo7UtU5cjjmxT2CZAFgKvWGbborXfjYXKcLA4C3bw5F3Of7mXDOfz4JtWCi3Dh+UMqBhZiw60zDKnajNmndzCzUXe02eLiHwFeNEIQEAQEgTecgBAIb3gHieoJAoKAICAICAL/DQJCIPw3qItrCgKCgCAgCAgCbzgBIRDe8A4S1RMEBAFBQBAQBP4bBIRA+G9QF9cUBAQBQUAQEATecAJCILzhHSSqJwgIAoKAICAI/DcICIHw36AurikICAKCgCAgCLzhBIRAeMM7SFRPEBAEBAFBQBD4bxAQAuG/Qf0NuqbVakWpVL5BNRJVEQReT0Dy01CrnaZbrx7S6+L44wgYDAbc3Jw27OLIfQSEQMh9fS5aLAj87QlIQuDfCVuj0Yher//bt+9NaYDD4UChULwp1RH1+IsJCIHwFwMXlxMEBIE/j4DJZEKn0/15F/gfSpYGUmk2Tjok4aJSqf7yOogLCgJ/NIH/1955wEdVZX/8O72kFxJa6ASkI0WaKGJfRUHFrqui7uo2y+rq7v632HVta1/Liooiutg7FlSQJkU6oUN6TybTy/9z7vBgCIF0CeHd3TjJzLv33XvuY87vnvI7OkBoaYnq4+kS0CVw2CTQGgBBrBWhUGjvmkT5x1ovan8uYEGu0UHCYXsM9Bu3kAR0gNBCgtSH0SWgS+DwS6ClAYJmFRClH9sk/kHe096vHftQG0QcfsnoM9Al0HgJ6ACh8TLTe+gS0CXQRiXQkgBBrAZ1BT2K8pf3a4OG2iLRrpPX5vjxtfs0Z4w2ul36tNq4BHSA0MY36HBN7+yzz2bZsmWH6/YNuq/ETtU62DWoX2tfJF/kjz/+OBdccEGdt9qUX8L69dux223YTBGsVqsqdQ1hpPy2KQIh5MRqwGQwEwq7MJmsGAxyjUEpJ6UsIkYwGOmQlkT3Lhmtvaw2M/6OHTuorq5m0KBBB8yppQCCgAORcaxrQW4m78mP7MGC0i14QoH95iAl0qXEuS2m8qi5CVVI5TmI/j+iKqFq95ZXee/UjgPUewIetIBNHUC0mUe03UxEBwjtZitbbiHXX38977//fssN2EojyRdifae4Vrp1vcPK3PLy8g64zuX2smzNFmw28VEbMUSiyoZwmGAkjNEARiKEwhFCIXk/QlV1KUaTmbj4ZPVZGKNSXNItGIrIJYwfOYDEuH3R+9OmTSUhIZHULr155J6/sGjxUsYcN5qAp5LCcjdfzfuCi84/l1XrtjCgZyZBSwKlJcXYrQa6ZPWi/Nt7+b5qLHPefIlXXn2Vtat/4pjsnowbM4GHn3iKCeNHkJtXRo3bTZeOmewoqGRA3yx+XLyAD+d9y2+um8Hu3blcPeMZnnvuWmx2O4MHDSJ35xYcRi+pXQfWK8ODXdDaACE24LC2tUD+1kDDnWvfp8xfs98086rLiLc6SLQ59r5/KMV9MOuAlj1wsM9fGHX5XoAgbhBxeegAocmPlN7xIBLQAYL+aBwggaFDh1JUVNSmJRMRRRoxqNNUW235+fkHTK2q2s3CH9eQnGAhzunA4w/g9YQwmg1EvEEMdjBHjFS5/Xh8XgxhmPPm6wwZfCxDhgzEjwmz2UAgYMIT8hEOm9RJc2DfLgzN7rb3fgIQ5s59h3t+dTHjpk1l9KhJnHXfQlJ3fMiYUf3J6JCOo2Q+593wKKMvfISe1rUMHDiQ82/6C4OTLZR/+yBn/PEdOmVlMfrYIZx80ZU89KdbyMnJ4aEpx/DNRhN9Tj2RDZty2LRpE689dj1lxoFsyslh6ZIlFCz9nEdfnc2AEX8kM3MHN58+juJhJ7Bm3nw2rV7Mh5/Oa/K2tTZAkIkFAlHLQCwI1eIKtM8EICzbsBqv10dml074jBE6J6SofsVFxRSXFCsOgR49ehyw1trAtjHKXfq+OPqKvWNq87FYLE2Wqd5Rl0BdEtABgv5cNAggGKwWet96ESartdESK/5iCWULVtfZz5wUR8/fnIexUV9uEcoXr6P40yVEIgcS4xjMJnr+7nwsifGNnqu3oJQdz77b6H51dagLIFRUufjqu1VEfC58lblsyy/EZLWQYU2ipmAdoYxUwtiY9/1S8soLuSDeSOczT2DH/+Yy9Nd/5d2vF9Et2UxSDycDuozDntiZYlcVx3TvzJDsfYpIAMILTz/GE/+ZyQkT+jJi2GQu/O964hY/yrCho+jatSudO3dm+LjRnHb+fXz66q08+cQT/OVv/8BiRAGE4DEzmDBuFDOuvoqJF15Dv7Q4Jp14AitWrKB3795cd+2FnHDZLTzwu2t54Z6L8SSOI2fTJpYsWUKXrO6ce9ZJjB5zmwIIr/75JN4LjGPzl5+zbtUyPvviyybLuDUAgmaml9O45kaIdS+Imd9oilputCYAYen6n+jZs+fe07um6DXT/5YtW+jXr99+a/WHgliM0TTIsGQ81EFUFoqEMSmX0r7mDfgJR8I4rXY0C4L2qWb10EFCkx8rvWMdEtABgv5Y1AsQul83hbg+XZslqaDLw6a7Xt4vaKDjlAmkThjS5HEjwRA7/vM+7u37TurdZpxNfHZWk8eUjpFwhPz/fU3F0g3NGqcugBAMuCnM3cTb733Hux8vYsSxqdR47BRs2Ul/uxdbKEBucj/6ZSdiMoRYvdHDlDOHEzKE+WlDDgUlXjyRIAl+G31CLqzD+3PeWZNJSe2AzZm+d74bN27E7fExfFhUvj/9tJrBgwcTDtRQXOnBRIQOHTqwevVqenfNwGuMo6aqnK5ds5DwhmBVHhFHBtu3b6Nv375s2riBvv36U1OWizUhg+35FTiNPgU0PB63clv06JxOZWUlLpeLLh3T2bBxE16/A4vFR9+uSZSRxiVTTiEzKY033n+vybJtaYCgKVctM0E9A3sIgjRAoKUsxgKEO1a/y7KNaxRYinUJaFYHsW7lbMpRACEUDlPuq6GDMxFfMKCiTco81XRwJlHsqSLJ6iQQCRFvtmMyGnD5fVQHPKTY4vCHQyquodrrwRfyk5WUfgBAUGDjIORRTRa03vGol4AOEI76R+BAAcS6GOxdO9Drd/uC7bokpDKycy82luZxXJe+zFr9Pb8acQrPL5/H2f1G8sOuTbgDPi4ZNIGagI+31v2gXqV580rY+tgc9bs5wUn2X3+59+ZfXPZnHlv0MYMysnhg4fvcNm4Kn2/5iRN6DODJpZ9y5ZCJLM7dzJDM7ryxZsHefpWrNpM76/O9Y/b9y5V7T3N9UjMZ0yWbdzYs4ZfDTmTmqvmc1nso2WmdWF24E3fAz+LcHExGE+OzsumWmM5zy/eZvjf85XnC/v2D0BrzuNQFEAL+GvzlW7j+Dw/hCtvJTHGSm1dMdrd4gssXYRgwgAW7DGRZwvTvF0d5cTlddlVgtMWxMtFGcnwq36zaxWkTelM1/yMKO4yk++hjGTdiIr+cNqEx0ztir21JgBALAGLN/lr2gvaq0TpraY8ivOnvPYLfaiAzMxOZU7du3ZQLpkuXLhQUFNCnTx82b96swEPvPr2p8nlxWCx4ggH1b6RTfDI1ft9ecCFjyr8VsRzYzVacFiuVPreyMkg/l8+LPxQiKymtTguCuBo0N0h9cQ+NcWkcsQ+KPvFmS0AHCM0WYfsbIBYgJI86hs4XTNq7yLtOnI7VZGH+znV8v3MDXRNSKXZX0zE+mXP7jeK9jUvVl9yuqlLSHAn0SO7AD7s3RQFCfilbH31T/Z44tA9dLz11P4Bw/UcvkGJ3cmqvoWr8nNICSj3V3D/5Em6fN4v/nnMDt37xKglWB9sqojES4WCIDXc+p363pCTQ945o8Ja0SwaNV9e+vX4x3pCf47OOYXn+Vm4ZdzaPL/6YDGcid06YxowPn2NoZjcGpHfdDyBs+dcb+IrKm7zBdQEEt7uGDauX8Lvr/k5KSho7KwrIzsykz+DefPxdBVNGOcmrqcKTk0vWuEGsWJWDOa8aX0Ii5mSwVwWocMZxerckvtmeR5zXgDO7B+dNv5Cpp5+4d66fffIJ+UWFZPQYwJknjG7QGkRZHgnkPi0FEDQ3QF2nf80KoBEiaa9aBonI6k9iQdiwOmpB2JNtEEtNLO6AzTmb91oQxJUgyj4QCiJuBrPRhNlkwq8yISRjRVwKETxBPzaTFbvZov4tBUIBlcEibo5AOKisEJqLQeajgZjYgMa66lRomRkaONBBQoP+WRzVF+kA4aje/roXHwsQbBkp9L714r0X9k3tSE5ZAY+eegXf7dzAJ5tX0j+9M56AX53+q3weVhftVKBBIrklaGtN0S7Vv3rddna9/PHesQY88GuJAlN/P3zK5dzyxavq92uGTWJp3hZ2VpWqE9TADl2ZkNWPopoq5m1bTZzFRr6rQl1btnANBe9+q343xdmVVcKwx6cr1oJvd6xncs9Bqp98sZ7aeygWo5Fnf5zHP0+cToGrnJmrvuWE7sfgsNj43/rF0flFIqy7/ZlmPR11AQSvp4YVaxbzyS3/R+TkM9m4awdd05yUrdzGUjpwFiup6DmKtZtrOH3yAELVeeR/vQhbKI78ft3YWWamT1aQASmpvPXJQjy2JPp07MSM6adx7iX79mnquVN45933efH558juP4DjjhvJ5dfegMkaR2q3/ozqlsCiz+azdus65s56ip1uJ+tW/cjWJe9RWOOgpmInN119Lq6U0SoI8apf7rP2NEsoLdC5JQGCNh0NHGnAYL/4A4PhAOAkyvi2VXNZvHalcrNIqmosuJLTvN/vJzc394AYhMaI4FBZDAIMtJiJ2DEPRvUcy+mgxVk0Zi76tUefBHSAcPTteb0rrp3F4OzVmR6/Orfefoe6IFBVQ87dM/e7JH3SsXQ47TgMktvXhBb2+tnw9xdVKqDWEob0puslp+wFCU0Ylkg4rOYqcRPNaXUBhLJqN3N/yGH+32dgOWYgP+QUkRn2k5JowVEUJmjZTTC9G1SG6D9+ACuXbmdrqYFQgo3sDmXsqOrFqKxyrjjpRF597HEMbgfp007mF6efx8QJY/ZOd9rUc3npvy/z+uuzuOGKc+g95glWLPwLJ40cgd/h5Jabb+LKK6+kuHg7Y8ZMRoLpXnvtNe65914M8V1Z8NmbjBw5ksf++wdcheO4+IIRzRFFi/ZtKYAQS5EswX0CCkS5yqsoZjmFa4RIdZEd/X3NB6zdvpmq6moFEmKrHpYUF1NWVkZqaioZGU3nqBCLgzGmWFKUHQMeHnJenSROMn8NVGjzj6WFPlKsRC36wOiDNVkCOkBosujab8e60hwlZqC+Jl9e9kQD/upokFdsC9V4leKt3eTUr5346xtf+1yiybMHDiNnxSp87uoDx3TaMZjqL2Fd28SqzTkSChNyexs6nYNeVxdA2LCjiGm3P0qnr56joykRHwEqHHEYvV4yky1UukxUWWx0ijPRx1eBy29kgzmOgVMvYMV7r1HgtdLf7KUwWMa4Eyby9VfLcTicXHndDK75461751JRUaFS9cw2BymJ8RSXlJKWlkpVZQUOZzzhUBCHw6GUTGlpGR06pCOlfYPBEJI86oyLo7S0FFGcScnJe6h6mi2SFhmgpQBCXUyJolRjS6DHPse1zfZy3cF4OOTZqsvM3xgBaC4QzTIR60qIpXmub0wtLkH6aJaR5s6tvnvqn7cPCegAoX3sY4uuojZAsGWm0vmiyTi6dGj2fSTjIPf1LwhUuJo8lslsYuyJp7JqyWKqq8oaPY6cqLQf5TPeM4Kc1mp/CTd68JgOdQGELbuLue6BWXgNJoq+/QBzj77UlBbiKyyi4xlnUfz9N6QNH0nV7u0k2ZOxZcZjHziO4OrvyB4zinAgjD3sV3eJGCNgtCm/9jkjB3POiCi7XntvDQUImn9e2+u65KIpTS22QLMUxFoTtH6i9GMtCdr4B+M0aKgSrp0pETvP2BO/AD5ZS130z4fa87oIxTRwXNsycjCXRnt/pvT11S0BHSDoT8YBEogFCEarhf53X7v3GglG7JmcoQIPT+89lE+3rNr7WUZcItU+rwqyqq+tv+M5IjE55fVdH/u5AITTzz+fH+bNp6ykoMFd5ctVaG8tZjMWkxmzxYTJaFF0zcJaGAwFCQT9BIWlMCLBX3Vz8Tf0hnW6GMor+fzTr9nosfNhlZmQ1YzJbMVoN2A0g0F4JsIGJIUTg5ma/E0Uf/c9zs4Z9Ojdi64ZmVgjfoKGMGG/VA20EjYYOHdwd84dvn++fUPneaRd1xCAULvCoqxRlKJmgo9NCdRO47WD94wG4a3cvyBTrGVAcz/UVtjafWJN+4cCJ7FKOVZh77Vo7SkKpQVANhYg1AceYrkbNBB0pD0T+nxbRwI6QGgduR7Ro8YChKRjs+ly0cl713PxwPHklOUzqnNvluRtJt7iYFSX3irYr1N8Cj/mb2N0l94qw+GsviNYX5pLvMXO9spiPspZvnecHc+/T03O7ibJSQDCpddex4/fL2Tt6n0A5WCDaV/YYi6Ps9uJc8ThdDixWOyYhaBJKIuDYXwBH16vV+X1u31uAsEAoXCgQYV56rp3nURJFZV8Oe8bLHGJBI1GPl+9mc1fLSI5YibD4iAQb6HC56cSHwXucowFOzBixWCzkGQxkyH0yclxpDjj8fs9iCxEqZw29VwmnnlKk+R5pHVqCEA4lPm/rvVqwEFTlsqioJwt0ViE2IwHjdZY40+IHU+zVjQkQ6D2HDUAIM/pwawTTbEgNHZ/W8I90th76te3TQnoAKFt7sthnVUsQEgY1IusK07fO5/fjT6DzWX5nNt/NI8s+pA0ewKL8zbzr1Mu5cNNKxQrXIW3hs1lhcwYPokkm5NHl3zMhKz+io9Aa9uffmc/gqPGLNhkMfG72/7E/M8+YfmyfaCjrjG0E5HFYiIpLp7kxBRSElNIiE/CanVgtkpwWrQojz/ox+32UFVdQWV1OdXVlXh8HoKhwAFFexoy37oAQklpGW/OfYeiinLKK8ohZCYhwUnHzmn07tUbl6uGwtwCtmzfCSYr3rBfKaf0lBQcNgc2iwVz0E98XDxOATvx8SqCvm+fXurnaGitARAOBS41gKBxIGgKtDZAiFWsmlVCXutKHY3tq7kAYi0YB7MS1OUuaOk91+6h13doackeeePpAOHI27NWn3HtGIT+91yH0WJusfsK+ZCQEDW1mcxm/nLvA3z23lssWrDokMPIicthsxAf7yQ9KZ301A6kpKTjsMdhNMuaJOpb/LoRghKcGAjg8rioqCijtKyYiqoyhLvAr+oeHBhkeaib1wUQiktKmPvBxyQnJuKw2bHbJJjNoqwZEiQo8RA+T4CwMULYGMYQCGC12ggHAhgsJrx+P2aLI5oXL9X+IhEVVDfgGGFf7HPQ6TTEtxwW14qQWJlMRMIBMFrwev3YLGJqNyr52Kwt9xw0df8bAhC02IKDBRE25t6xQYIyXiydcWzNhtiYA21fDnYaj7UexCr9n8NCcKi1aymSOitjY56Q9nutDhDa7942eWW1AYLUNuj3t6sw2hpfh6H2JAKVLjbf/xqSKdDUJmb1+//9BK//9yVWLD14SWrJDhOFlhAXR2pKCh3TM0lLySAuLhGr1YnJZFaUtwYpqRwKIVMKBIKEAkGqXFVUVJZQVFxASVkRbl8NwWCgUdUj67QglJTyyWfzCAVD+AN+rBbLnsC3CA6nA5vNHs0+ECUtRYP8fgQQVVZXEeeMU9kHPp+fOKcTo1HiF8zKLTJsyBD69u0ZI1ItIS76VlVZGd8+ejdn3fUI7738OgOzLPSefAGv3nwjF9/zAI/OXM5NVx3HW2+9zSWXXaoomX3YyVswi+7jzscTquGLzUamDU5r6ra1WL+GAARNcTf1pvtZA6SyZjiaAimKX15jXRFaIGF9MQfaXGLBgZY10dR5tkS/WICiZTy0xLj6GEe+BHSAcOTvYYuvoDnVHPv06Mrm3cUYg36lfFujCUB48qWZvPTM0yz9YeFBbyFKNs5pJyU5ka4du9IhtYMqmRznTFCndqPRok7sEuQnuQyhQIhAMITP61EV+mq8NRQXF1BYlEdpRQk+v5dQONjgJdUFEPyBAM88+xJmkzGaZhgJKzBgs1qJi4/D5/NhsVpVSqjMyh8M4bDbcXvdKs9eTvn+QEhxRwQDYSxmi/KTn3fuL/ab1xtvvKFqLwwaNEi9X1DlomrTerKOHYknfysmo5m4zCyKVi+m48CRuCuKiU/vjD8cYU1BkAGpfsxWJ668zVjSumC12AhV7sKedmBlwgYLpIUubAhAiE1hjA1OnDt3LvHx8SQmJpKdnc0PP/zA6aefTk1NDVu3blWfSYqo/H7hhRdyyy23cMYZZ6iUT6l2mZ6ezuzZs7npppv45JNPSElJ4YMPPuA3v/mNen/MmDF8//33inZZlK2MI/s2depUOnXqRFVVFXPmzFEcE7I3QqYk83v22Wfp378/5eXljB07lnfffZfTTjuNlStXqn5yvc1mw+128/rrr3PVVVcp11JJSQlPPvkkl112GcUQf265AAAgAElEQVTFxSxatIgJEyao62Ws//znP1xzzTW8+uqr/OEPf1D9n3/+eaZPn86CBQvUmuQ50WTUQlukD9NOJKADhHaykS25jFiAEOsXjaYDRv8rSqkuk/vA7N7k7C7E7xEyhKYRINW3FgEIz7/+Bi899xzff1l3VUCxHlgtZlKSEslMyyCrcxZJSak4nAnKvSDWAzHTY4zWjxLvQTgUVgrZ7/XhC/jVa3lVGXn5uykqyafaXaHM+Q01W9cFEJTsIhFWrPxJvYoSkVOkWBJEnrI2sWIIYJBKlZJdEQgGMZtNSiFIZkVlZTV2h2MPmY+FHt26Yrfb6hPbIT8XGcTw8TRrrNbu3BCAIHPQMhlifenfffedUrTdu3fnxx9/VMDgnHPOUaBg165dijZZfpd9ycrK4plnnuHUU09l3bp1ClTI52lpaUqhfvXVVwwfPlyBALvdzrBhw3jzzTfVeB999JGqxSBjyDwETFxxxRUKIEi9BimnfvLJJyu3kuDob+Z/o8ZdunQpv/3tb5WylzGFwEqeE3mVPlOmTFEgRYCDgBEBCFIcS2o+OJ1OtS4BLAJ0BOAIsJHqmwKC5HXAgAHKRSLzX7NmjQIyMl5Dgipbe1/18dueBHSA0Pb25LDPSAMI8qWhTK2ixCQ90GJGGOEVn3xQUgIlyn8fF7xMfNiAfmzNLaKyqgJDLbKkllqYKNGX35zDqy+8xOeffFTnsFrsQUZaOp07dqZTZmcSElJwOOOwWZwYTQaJPiBiNO2JUDcQCgbViU7W5vN68QUCuF015BfmU1CUS3lVCV6/p9kAoaXkcLSO0xCAoIIEwxFVorl22717t1KgorilqJKAhmnTplFdXa1YD0XZikIWZfzKK6/wi1/8QoEHqXx5yimn8OmnnyoWyvXr1yvAuHz5cnWtgAI5kQtQEHpqUc5iFRBgIWOLIhYLkVgHBDzIKV8sPePGjVOKPiEhQbEvCrCcNGmSUuSfffYZPXr0UJ8LQDzuuOOUi2PDhg1qDHGlCDCQflJJ8+uvv1bXy7ouv/xyZs6cqQCLWC0uuOACNRctlfL9999XFT2PP/74o/VR0tddjwR0gKA/IgdIQACCfCEJOBC+gDi7g4S4RGUSF6AgR26P10O120W1uxqf36+AgrSRQwexLb+Y0qLCBkvWmhomUCFllg/8Mjf39GOogUBRNP7BmgihiIFXXnmH2a/O5IO579R5H5PJQJzDSUZ6Ol07dSUjrSOJicnYJL3RZFVMi1KywYBJGUXCIRT/gVgOgj6/+iKXsrxej4fikmLyC3ZSUlaMx+9ucLDiwSwIDRaMfmGdEqgPIIhiPVQ8gJay2NCgU1GosbUZtEk1NMo/9n7SR6NyPhzbGxtboTFGNjR24nDMV7/n4ZWADhAOr/zb5N3lBCQmTiEUkgC/tKRk0pPTSUtOw24Xet4I7ho3JRWlFJYUUFxRqkCCeBSGDxpAQVU1udt2YDSZsEfsGEMQMoTxmgIkBKx4rAECkRASAWCK2DBftxXXq+nY3fGEDCDheZaIGZfZjc3mxGALESgLEB9xYp1eRGW1h9du/IE3XnuVuW/OrlOGYpJ3OuxkpmfQpVMX0lI7kJSYgs3miMYfmMKYJPgMqzplyprEfB8MBPH5g3j9PgIKKHgoLytjV/5OSsqLcHtrdIBwmJ/a+gCCuBDqa3VxGNTXR/tcpc4ao8Cyoab52PLRDXVRNXQ+jbmudipmQ+ffmHvo17YfCegAof3sZYutRABCaUkpDpuN1KREOiSnKnAg5YlFyUp6nqTblZaWsKsgl115uyiuLFNMhMcOGURJTQ07tmykz5ulFHwVIXUkWErjsPXzsPvLMN0vgW1XZdDr5WLW3Bth2H2w8rgMhi0sYuUfjQz8R5itL0CPiwxseT6CdWMnejxVwJaZEfr9HtbcYWXWtQt4663ZvDlz1n7rnvDrUtZ+4aRqWzwOu4P01FQ6ZnYmI02yFyT+wInJYiZkryD1gheomXW7iqjAIKV4iboZfH51yhM3g8frpayijPyC3ZSWF1Lj9egAocWetKYN1BIAQe5cF9ti7Iy0bIXa1gMtnVHebyidsozbkPiV1uQ50MCAxuugg4OmPX9HUy8dIBxNu93AtUrgVUVZqSLiSYqPJ1UsCEmppMopPCmVhPgETFKr3uVid14uW7ZvYltBLjUeN6OGD6Uy5GPL2vUMWlzAypEdSZvmIuU4A84Tqlh5XAf6/7eSou8sOIfUkPuHTOyXFVLzWRLHPOnCt9JGyGUk79/JDF+xm7X/hHBuPL3/7mLdWR1Jn+LGa/Pw38u+5603Z/HWa3P2W5VQJ589cxcf/6oDhoCDpKQkOqV1Ii01UxUgksJGFosV25mvEFp+MpR1woRwHEeLQoZCEULBAEF/NMbC7XFTVl5CYVE+ZRUlePwN50PQXQwNfOAaeVlzAYKWllgfQNCYDTVFGpviGGuWl5iGLl267LUmSJCjxCCMHj1aZRJIpkMsLbMGAoTKWbJYpMXWBtEASV2cCFrAosQf1G4S2yDxElpcgnwurkItCFFzlch7HTt2bKTU9cuPRgnoAOFo3PV61qwBhDi7TbkYkoXeNyklSjKUnE5CYpSFUBRobu5uNm/PYevu7ZRXVTF6xHC85hCrli6jz+tl+DfYMPbwYip0EjfJxYpRGfR9toLidxx0/k0lpV/Y6HyFjxVT0hjwRCWbbkok+9kyXF/Gk3aemzV/NWCrSSXrT6VUzreReraH3JlWnpk2n//Nmcnbr72732rkS7XTaDeJ/QLsXBfG1tGPKT4kNY0wWsEUNpFm6UqPQX4Mn56j6h5INoPRIMGKAhLE1SDkQ37lNvF5PJRXlFJUWky1qwJJU2yo71oHCK3zj6u5AEGCEkVJSoaBxNtIqqME8T366KMq20DSCufNm6fSIOU6UfQSACixDe+8847KFBCle+KJJ6qMgREjRqgAQwkOlKwE4aWQdMNevXqpoMAlS5aobIFly5YxZMgQ1VfGkpgeUepSEnry5MkKJEiGw9q1a1XgYN++fVWmRWFhIbm5uZx99tkqIFGyD7744guSk5PJzMxUwYfSJLBSC2aU8tMCCCRQUuYuGRGSdSEpm2JBkHlJIKNYC/WmS+BgEtABgv5sHCCBY489loqyEpxWmwr0S4yPIyUphYy0TFKS04hPSMRqsyszvHzJbN6+ma27tlFevQcgmEKsWLIUxTzUI4ypJA5T2Ii4bd3Vfqx2s0opNPkNBLq7sexOImgIYrGD3x3CJJwE3WsIb7dhlkhC+QmYCPdwYd+ZTMgaZOacOcye8wLvzdo/i8GZGSLhF2U4s0JEBBA4oj9mCxLcIPWPsJpAiCGDP3Ul6bvjMYRNGKRSUtTuTEBiEYJCmORTX/jlFWVUCO2y163eb2jTAUJDJdW461oCIIiS3759u+IcEB4BAQXnnXceO3fuVMpY7iFZA6K85W/JbhCFLadzSXWUzAVR+pJ6KEp94sSJSkFLFoMAhMWLF6vPRYHLtdJHUhg7d+6sMhskI0KyFzZu3KgUuQAHyXQQMCDXSwqkZBgsXLhwLxAQpS7Po3wu9xg/frxagwCNnj17kpeXh1gzJAZDnlMZU4COWBvk36r0EzAjYEHmctFFFzU4hqJxO6Rf3V4koAOE9rKTLbgOsSCUl5aoGARxMyiAkJhEako6yUkpxCsmQpuKOSgoKmLHru1sz9tFpauacWOOwxXxsfyHxYrG2IhZEf5giJpSo8kOEt0lPMHCkyC/h6KvEcli2J9cSS4xqYREuSKiSI0MRiPPv/oKb73/FJ+9sWDvyq0dAvT9Y6mUNyDFmYnZHqbCVCwlDbCZwGSBno5uBMNBSgx5akrFa+OwvjEJg4RMiotBrAfCPxDwEwj4qalx4XJVK9Ik+dJtqPVAJqUDhBZ8KGOGai5AiJ1VfW4G7drmMgxq6ZCisIWTYP78+YpsSZrmymhO4GRdktbSGbUsithKkd98842ygOhNl8ChJKADBP35OEACUYBQqkyRDpuVRKeTxMQkUhKTSU5JxmmPU+mOwhdQWFTI9rzd5JcUKfbBCWNGUx3xsmLxcqWAhaGwpZsAhF/feis/rPkPKz+rRNy4QvIz+KV8dU855D87ZD2Lyj9hdtXNmJ1gE6BhgT8mzyfN2od7qrookiSvHwoeHkxwazrGSNSKICmb0cqOblWHQWU0BBpfsEkHCC2989HxWhIgqP0Wmu1QqM7TtMYw2JxUwPoUvwYQWlpasUWl9IDElpbu0TGeDhCOjn1u1CrFL1lWIgDBiM1qwSk8CPEJJMYnkBCXgN1mV2Z/l7uG0vIyiktLlQleTknjx4yhOlTDTz/+RDgo5oKWBwgy5LHHjyXX9xmF6xMw+CCuX5DhfyrFJ3cMQ4atHy4KqTFWYLFG3QoOG6RZM8i0plAd2UgV4ApDab6JnTcMxmy3KyuC0BlrpZ+9Pp/iR9DK7zZGkIdiUmzMOEfztXUptpYGCCLf2sWTYrMTtKDGpuxDfeAgdszaGQwaKGmM1Sp2vIbyNDRlXXqfo0MCOkA4Ova5UavUeBCkdLPVbFY0vvHOOFUgyGaxqZRAOWULWVKVq5rqGleULCkSYeLYMbjC1SxfslaOZq0CEOSLNCOrAzXxW3FXGQn5rHSZVMP4qzz4Q5Bqi4Y/FAegMqSmi9UCTitkOqCzNZqxkBsCdxiqfPDDxT0xu20q3EH8GeI+kYBEoV5uKrGNbkFo1GPX4IsbChAaczLXyjNrlgQtFVAmJQpaYxVt7Em8sUWj6iJl0twbdblD6kqLjK09UVep6QYLWr/wqJeADhCO+kfgQAHEMikqkGCxKKuBvKrccAz4QwFVVdAn5ncJ6FNgAI4fO5bqSDUrlm2EgDrPt7yEDQbiUp0Y0gupKrNhMkFSbyN/uPtkVSDKFyyh0l1EiaeGiqAPj9eFwRjBaraQ4nSS5kwkzh6P1doBqymVj9/6ntVPe1WwojDzyvok/UzqIAQVgVLTKk/qAKHlt76xLobGgATN3aCVOpZXrbSzBiDk+f/3v/+t/PcSMChBh3KNZA/I3/IjQYjytwQPSqaBfC5BhZJyK1kFEvQo70tfoUiWAEiprSA/UsBJsh8kOFKyGSSYUYIjJYBRMiUEvAsduIAkoVX+3e9+p9xfWtPKNWtr0QFC6zyDR8uoOkA4Wna6EeuMrcWgfeHIq9ko+QXRFoqEleldq5qnvkANMHHsOLwmN0sXbYCAp3UAAgbiUx04upVQvNFBOCFAVj8nd//9TgyCFgzC1GjEExarRkAxOlpMFqzCeGA0q1ehYpbAR38Ynnz0RbbmbKBmp5FApUWtwxA2EJb/iamhiU0HCE0UXD3dGmpBaM7d5XnWLEcaSNDGe+ihh1TKoSh8UeKivKWColRMlOwIqaPw2muvqWsko0CUvRRUkusl40E4CKRIlIAErYS0AIinnnqKO+64g1tvvZVHHnlEZUXI+HKdVF6UFEfhW5DsBKECl1ghabFzrU2l3Bgip+bIS+/bPiWgA4T2ua/NWlXtYk21zauxpC+1bzRhzHEQb2DB/J+IBGpaDSCIi8Ebt5PKzTYM8QZOf72AFAv4gpBmBk8QygJQswfRSHqj3QzxVkiwqIxHlu6G3B8NDBkeISUdwmUJvDc9QVkQIobIXhKbpgpTBwhNldyh+/0cAEGbgcQmyClciyWQfwuzZs1SSl7SgaWwk6QfSnqhcBmI4paSylK46ZJLLlHgQco9i6VAQIGkIwpHgoCPUaNGReudWCy8/fbbCixIfy398L333lNjC7CQlEsBH2J9EAuFZCFI4SitxVq5tNiF2OyF1tkJfdT2LgEdILT3HW7C+mLLPWvdY6O4NXNr7aHlrH3CuHH4rW4Wf7eRSNjdSiWfDSR2iCeUUkhNjhOD3cRJs3NV7IHfDzYj+EJQEwa/pC6K28AMZjMkWMFhgXIPfPtvI4GV8Zz6RBVGByQ5Tbw4KR5nyNEEqR3YRQcILSLGAwb5OQFCLFCoXUNBmBClsmh9TfqJG0A73WsugfriGeoKMhTAUpsqWZuXxvQo85F7aNc1JAOjsa6Y+tasf94+JKADhPaxjy26iroAQkNvMGH8eDyGKlYs3UrY52olCwIkZiThjysgsC2OiDnC2Lfy6WQHTwCk7qM3AL4wBIxRkGC2gsUCDivYTVBQDovuMtP33DBpfcI4k6Pg4c3TMrCHorwLzW2NAQjC4PjPjzfx4do8/AETyQ4TM8b35orjmkaJe/HFF/HGG7O5/u8P8tzfb2vQUh5++BHchev5xYXXkz5gKN0ESbXB9nMBhIbwE8T6/BsjKokjOBRAaGwGggAHLThRI/OKpW9uCEhozPz1a48OCegA4ejY50atsqkAQaz548ePo8JXxrrVO4n4alqFB0EWk96tA25249tpJ2I0MHp2Hp0SwB0AewT84l4IRQGC+BMipqgFQTIZhDQpvwSW3GPGajEz+hYvzniwW+DdMzKxRiT+oPmtIQBBgMg7Kwt45MvtVPq8mGySSSFMkxHCfj89U+O4++zeDO6SeNAJrS3Np9BTzUlds/deM23aVHr37kOJNZmrTx/CoOzRPL3BwZLZ/6J7zWaGn3sjC9dv4ZjCWVz/4EfE2c38/tbbcFitnD91Cqt35/L4PQ/w/BP/4qVn/8M5d/6Dh264gVn3XsYnG4307JHFiRMn8Oi9D5GR4WBTyhi+n/MW8TVrefv9D7EcWLm7+QLdM8LPBRAOZT2IXYzmgtOKOzVkoYcq3NRYcCD30+IQNHeIZuXTghQ1t2BshoMOGhqyU0f3NTpAOLr3v87VNwcgHD9hAsXVBWxYvxv8nlYDCD0HZ1NUvgHPbiE3MjJ81m66pUGNDxyGaIZlZQCCQtgYvURZEOwCEMxQUAxL7jVjqLQz7B8u4hIhwQ6fntEZo8qFaH6rDyAs3l7Bs9/vZtnOEowmJ+Z4M2K2jijmyQDhoImwO6QqTF44ohNXHpdJVopz78RKPS5e3rCQNzetYMbAcVw36Pj9AMLcue9w1Z/v4erTR7Ftcy7be5/HsjkPkVW2hRHTb2LJmpV0z3uL3z/yMabSFdzx8Kd4PAVcdfWVZA4axoWTJqoI+k6hEJ2vvZ2Fz9zDozefw6wFxUyddi59e/bg0QcfJj3VSl76WN5esoXjir7g4edeUCCstdrPDRAayrYo660d0HgwGRyKH6GhY9QeO9b1p6U/auBF+0wDClrwYn1ujtbaQ33cI0MCOkA4MvbpZ51lUwGCTHLChPGUVBexafU2IuFAqwGEIRNGk7N1Eb48s1LmQ2bm0TMD3H6wC2tzBCp9UZ4DAQdSsNG5ByCIJUEsCMvvt2CqsNP/H9XEiQXBDgvO7EqYhtdbONTGHAogzFqcxwNfbMNgAbPTTt/MeJURurm4Rr0aDQZ6p8TjNwbYsquCkN+LIWTj9auHMqhTPHk1lUx9/z8YTAaccRFmHHM8l/QaU+9zsn71Et5+7X2uu+9uMlvxlF/vRJpxwc8NEGSqKqMhLNDt4NCxse6Gg3EkxKZWNkeBay4SLYBRxtJSOGVNsSCiGduhd23HEtABQjve3KYurakAQVwM4yaMpbCsiM0btmMIB1sNIIw69QR++ulrgvlmlZY47IU8unWC6iA4pb5TGMq9UL2HzFEKN1mlRoMoZAvklcGK+6wYXXay/1SFIwGsdvjx7CyChn155U2VofQ7KJMicOqTyyhyBbAk2IV1gaW/HqZgyZhnViJVrRKtRr68fCDbqv1cMHutQjyBajcn98vgkWnH8M8lH/HhtpWkpyQoc/5FvUZzcQMAQnPW01b6Hg6A0BBGxEOd/GsHAR5svNhAxubWf5D9inVlaCRMjZlnW9lzfR6HRwI6QDg8cm/Td20qQJBFjZ0wlqLSIrZu3Cacxa0GEMafcypLF35KsNgiJZwY9J98uncGVwASTGCMQIkPXHuMARELWK0QL4GKFsivgFX3mzFVO8m+pQpzAoqSeeXUroRMrWtBkIDESY8vozpiwmgV4qnQAQAh3mbg66sGs63cx/TZ69XzEnC5mdgjmSemD+LGr99kadEWOiVLWmaY106+gXgpNrGn/fnPd3LPPfdCJMS99z3AnXfeufczKRgk1QJrtxdffJisrMGceuqp+320/PXXKBh6FmcOTG4Tz21zAEJzo/UPduqP5R9oiJAOBhA05S1BjJLaKK0pc67PLRILEmKZImPn3pT7NmTt+jVHjgR0gHDk7NXPNtPmAISRY0ZRVl7MtpztSKRfS/jy61r4SReey4Iv3yFQbFQWhH5P59O9a5QHIU64koByH3j8EDZAQCwHZki0gcMMRZWw6l9G7KF4us2oUgWdRL+uvSiLkLF1LQgCEE58bDEugwAEIZ+KsPT6YQQNBsY+s4qIMUKCzcTXVw5ia4Wf6W+uVwsKuDxM7JbEExcKQJjD0sItdExzcEnfcVzUffR+pJXTpk1j7ty5CiDcc+/9rFq5Uu3FfQ8/x7KFn+NyuzluWDce+PdsXnjheX55yXTyywu59srrGHHssTzx8H2UeK3MmfUiXz9wP9uHncjHb82EyhK1HU/PfJMbrryQSSedxISecNeLX/H4U0/x3IN/o8eoU7jqwmmt9rw2ByA0Z1J1KfUVhdsZ2bn3XirmxoxfVyaDprhbu/5DYwFNY9alX9t+JKADhPazly22kuYAhCHHDqa0opy87btbFSCcevGFfPPpbALl0Wi47o/k0bMH+IOQYBYfPpR6oSYAQgId3FOPId4WjUUoc8GaJ42E16eReUOxAhQRl4GiRzsqRVo7570pwj2YiyEKEBbhMpowWqLlsJdeN0xlXIx9dpVKDU2wG+sACF4mdkvcBxCKttAx1cHvBpzKyZ0H1A0QwkF+efUMNm3axMKFX/Hjj2t5/sVnOf2Mqbz+6svcf//9dOrUSVH6fvT+C/TtP5H+2dl0G3wsUyZNUKQ+CiAMHM0nr3xLTs57zLv/F6yLTMIV9jLvm+/IzdnES7Neo6CsjB8XLybe6eSMM85oisga1OdwAYS6TuU/FmxjTNa+7JEGLWDPRRoLqdanJVwKmsVBS3U81HyaGgzZmDXq1x7ZEtABwpG9f60y++YAhH4D+1Be6aI4t0CZD1rLgjD5oul889HrhKstKiCx24P5dOsZpU6OFxeDAARPNGhRAIKkOZqETVHcDDaocUPOuwY881KJP6OCUI4Z99o4IjVWVdGxJdqhAcIPewCCJQoQrh1GwCQAYaXKy4wChIFsrQjssSBECLjqBgi/H3Aqk2sBhBdffIHc3DzGHDeGouIiiouLuemmm9i1a5f6fVtBEcekeFm8vpiLL7mc/778CsVFhZx55hlkdOhAZpcsnvr3Y9x8883kfDmPso7dWLdkO8XFK/nNlIHkR7rz8Rfz6Nq9F8GdyykOx3HmeRfz5UfvEzYlce2MS1tChHWO0ZYAwoqiHYzu0uega40NCqzrIs1lIdYEYVxsqRZLxqQFI8aCXt2C0FKSbt/j6AChfe9vk1bXHIDQq193ysqqqSgpU4q2hXTtAesYf+5Z/DDvXSI1FnWTzrfn02lwNHvBuodeucob5UVQnAYSuGgEs1gQbBAOQskWKF8Dzl7gei+B4MY4mliXqU45Hxog7HEx2KL1LZZeN5gwJo57TlwBRtKcJj67YiCbK/xc9Ia4GAx7YhAS98QgaC4GJ2dmDeNX/U9o0l63RKdd29bzt7v+zbP/eRJrA5gFm3vPwwUQanMXSKrgsvytjOrc+6BLEkXdkKDA8vJyUlJSmiuavf3rih+IrZsic6qdIdEct0aLTVwfqE1JQAcIbWo72sZkmgMQ+g3qQ+7uQmqqXKqmcusAhAhDJ03ipyWfE/GItgf7pAq6X+BRGQqquF0QPF4IBKPlngUgSAyC/G60RUs6B/wQrAJ/JVS+nQS7BCC0BEVSdB8bChAkTuCr60eQQJhz38ihqDrILwYl8edxXXl3czH3fJWnKKuVBaFHHE9MHxyNQSjaQmaqU7E2PDXxKnrYkvY+QML7b7U7CQd9GCx2rPWkNB5JyqEtAASNzGhp3pZDAgSp7rh8+XJGjBiBXfJoD9J27typrDvjx49v1S+BQwUeas++TqDUqltwRA2uA4Qjart+nsk2ByD06tcNX42PgvxSIhHJBqgNEeS8XEcJaGXX136keIL8RP82RKLaTYMbBqOB2W++xEWXXUmkxqyqLor7wJ9WhbVjAKvFRMQairLLyWfhqMshZAxFORHUcAYiPiPmageeAjORCpuq4NiS7VA8CL94Zgm7yn1YkxLULft2sDFrej8CIYmjCOOwGFQGxmnP5hAyuYiEjfir3Jw7JIO7zs7mv+sW8fSqr0lLcWAxGrio92gu7T127/QvuOB8Lrrsl3z95J+Z+PQqpveNfjRjxgxeeOGFA5a5dOlSVTxImig0KUTUVtvhBgixsQL1AYS2KEOtnkPtudXnDmmLa9Hn1LoS0AFC68r3iBy9OQChS/cM4hxOdm7ZgT8kCjdcJ+e8QfIQDRCflkDIGyQiDIKhEJZ4J76ySlVKWgCCCh5E2AXDMbDCyNyPXuScs64i4jMQiRgwGqPlm9MuLyWpp48tTydDaRymND9dLy9RMQeenWbcu4yYPAbCAhKSQpidBvzfphOJhDBIOkQLtkMBhPX5VVz3xhoqvAHMdhsmq5XsjAR+OTKdbikJLN9ZzKxVlRS6vARdboIBH91Tkph5xUDS4224g34u+/QVdrvLFb/D9YMncHnffQBh2tRp/P6G6Vxz49+59L459Ozg5tn/u5tuGTaefPIZ1q5aykuvzAZXPjfefo+Sn/BW/PWpN7j2lJF0699fvBrc+sc/880381pQKs0f6nAAhNhqjrEllAtdFWTGt1z65+FKLazPFdL8XdNHOBIloAOEI3HXWnnOzQEIjiQHXTumkbutEG9QhQfuna1BWQS0+svQsUcG+VsLMBhNGCR4wDIkwkcAABcJSURBVBAmbDDQd/AxbFkdzf3f1zlmKIOBN955gssvuRFvlVEFHmj+1MTzy0ns4yV3ZgrhQiemNC9Z15fitUbjE3zlEKxWFA3R1MFdVoJfphFRroWfDyDIuryBEK8t2c0T3xYo1klznBmjkDEIE6Sw93lqCHkiWCxG7jilD9OGZWISU0hM+2zHOp7+aT6/6DmE6wbtM09Pm3o+ffv3xJnQnYQxZ7HqnYfpmpxGzsZ1/N9vzuBvj3+O02mmh7mQLiNO49jRx/PU08+QVw333P5rli9bwvy1u9m9aj7fff9DKz9xjRu+LQGExs28eVcfLvDQvFnrvY9kCegA4UjevVaae3MAgtQSOGZ4BtvWFuL2RRV3VHlr7oM9k5a3JB5AQMGeYEb1lkGsASbCUkRBtbqiGAy8PvcRrrv+j5QXBJUnQt1CuPAnlZE22E/RGymEy5wYnD46XFGieBAMNgi6IeTd8+MWgGDDsDSlRYMTtW2prxaDdt3OMg+PfbWTLzaUYLQY1U/IH8RutHDO4FTuOK23OuEfrEna5LqyfAaldW6lJ6JtDXs4AYIWe6Ar67b1TOizaR0J6AChdeR6RI/aHIAgC5cYAbM5TDAQVWoqnEC5CfYABk3xq/cFA0iQQPQAr0zdiic+am0Qq798pAwMe8ooGUImhh7fl0Xz1iv8EAUhUZH7Ul2kHuei5rt0wtVmDKYI8ecUEJTPLRASXgQPRNxG8BoIbbFjKpE4gH1RfC0VqNhQgKA9LEVVXm54cz1lNX6y0uw8Mq0/aXESUam3WAkcDoAg91f1GCIRYl0MsfPSQYP+nLY3CegAob3taAusp7kAITqFqMleYg1E5cc4GtRxXxS+0urKPSD6WcwIUVOCWBGUvpcPlPFBohC0v6NIICwBhyEVwhgNX9zjvQgSwGq0EpTsBQljkE9tEXBGiIQiGAIGDEFj1KUg1oqwlHqUW0hAZZR0KbYqXnPE2ViA0Jx7HU19DxdAOJpkrK9Vl4D6yo20BGWcLst2JYHmAgSl11VuYRQoRE/3+2IPxDqgrlGBhXsAgnoviNFkVHwFSt+L+UB10+ID9rgqDBGyh5azYWU6YcWKHLVMhA0RrHFBLCnVeIoSCfskrxFsaTXKfhEKmwmHDIQCEhBpAklzDJqJBCT8Qe4RBQiHy4LQrh6iVlyMDhBaUbj60LoEYiSgAwT9cThAAs0FCKKU9xz895r+95Gy7Mlq0NwCe2gLFdvbHrCgDAt7ZxU1DWigIvp2hM49q8ndEUckaIy6GExy0wjmeB9maxBftYOIP+rWMMUFlBeDsIlwIEI4ZIwWaAgbUMkS8rvKYIiWw22pplsQWkqS+49TXV2NMA+mpaUdcAOfz4fNprtlWkLy8m9Bzo+S1qm3o1MCOkA4Ovf9kKuWfPjdu3e3uGSiloV9wXbRX6PpjtH/hJVVYV+LBjaKgyHqbYgyIcgYcYkBaoRmWSIcVWCj+CYiYI5yIoR8YiXYAzqM8kVnIBwxRNkdtfcjhihwULfZw7WgfBUt0w4nQCgsLCA+PmEvfa/X7VZycXsCuDw+4gOVGBM7kFsZoSS3gD5JPjoOyGbLT2vpPWQUKz55h84nT8G1Yj7x6V0xde3Njm+/YsTJp7SMcJoxioADiQdwOBzNGEXvqktAl0B9EtABQn0SOgo/X7hwIRdccEGLnqZjxbgPJIhrICb1cT+wEFXUKhpBS4KIwQ7ihhBsEK33ICAhosCFljGhPpJqkgIKoqNELRQRrd+eQfdwH7S0py09PV0VQDp8LVau8NW3S3D4Kuk+egT5X79NvDVC98m/5P9+dTl3P/Uin+bUMGVoRzZ+8gppJ1xGxboFpPcfzo8fz8bkiKf/hDOY99JzXHbLbYdvSXvurAOEw74F+gSOEgnoAOEo2ejGLnPr1q2quI98Gbde007rMZp/X6jCIW8bLUCzxwKhpVBGAxtUv4hCB1GIsc9hoQGFPcAi6pVo8Zadnc3jjz/e4uO25oB5O7fTuVsPdYsiT4gMR9s1K+sAoTWfBH1sXQL7JKADBP1p0CWgS+CIkoAOEI6o7dInewRLQAcIR/Dm6VPXJXA0SkAHCEfjrutrPhwS0AHC4ZC6fk9dAroEmiwBHSA0WXR6R10CjZKADhAaJS79Yl0CugQOtwQOBRCkvLKeltdyOySlnw/GHNlyd9FHaqsS0AFCW90ZfV66BHQJ1CmBQwEEnQdBf2h0CbScBHSA0HKy1EfSJaBL4GeQgA4QfgYh67fQJaBTLevPwMEkMGjQIGbOnMm//vUv3njjDcWJIObG++67jz/96U8Im52kQl5++eX89NNPahiN32DlypVcdtllrFmzRjGx1W7adRdddBFXX301p556qrpE7nHbbbfx0EMP7deldhEc+Vvmcv/99zN58mSE2Embn8aEKJ/rrX1KQAcI7XNf9VW1PQnoFoS2tydtYkZnn302Q4YMobKykjFjxjB8+HBE8c+bN48RI0aQmZnJhg0bmDNnDpL3L/TMN954o6K/vfDCC7FYLDz99NM88sgjWK1WBg4cqACEKPUFCxbg9Xp56aWXWLt2reJb6Nu3L1OmTKFLly7q75dffpmkpCQGDBhAcnKyAiM7d+7kuuuuIycnR4GCO++8U8lqwoQJdO3alQcffFDN6fXXX2fbtm1qPL21PwnoAKH97am+orYpAR0gtM19Oeyz+uqrrxQYCAQC9OvXDzntf/DBB+rnlFNOISUlRTEFCkCQ308//XSuv/56du3axXfffUe3bt3o06ePskAI0OjZs6dS2gIKxOJwxx13cPzxx6sxzjvvPAUGpk+frq4VC8Uzzzyj7i3Kf/DgwQqciEVCGApTU1MRAHPXXXcpoDF27FgSExN54IEHKCoqYvny5bz77ruKDVJv7U8COkBof3uqr6htSkAHCG1zXw77rGpqapCAL1HAnTp1YuPGjQooVFRUKHZFOdWXl5erv+X93NxcdYoXi4Moe3EDSD2Hr7/+mjPOOEMp7R49eihLgZj/xRogIKKqqgqn06msAna7Xd1L7i2R01J0R+4l70t0uswlISFB9ZFXAQNyXVZWFlL3QPqKBUHmI/OQOeqt/UlABwjtb0/1FbVNCegAoW3uiz4rXQK6BA4igcMBENavX4+UmZZ20kknIfVKxPUm4PVQTSxxMl9xlQkg1prE8AgwbmxKpljRJD5Ib7oEfg4J6ADh55Cyfg9dAroEWkwChwMg/POf/1TuLrF+iTXtlVde4X//+59yl7lcLqZOncq6detUlUmxvEmMzA8//MBzzz2n3GqXXHKJ+l0CfsUlJi4wsX5deeWVym138cUXK2vcl19+iYARcZ+9/fbb9O/fX1XkFFfcmWeeyaeffsrEiRN5//331T0LCgr45JNP+M1vfqNXt2yxJ0wfSJOADhD0Z0GXgC6BI0oChwsgiJBE+YsLS5T9b3/7WwUOOnbsqBT3okWLWLx4MXPnzlXxL++8844K1j3rrLOUfCXDRq6XzB0BHGJROOecc/j8889V5s4333yjgIME9Mo9nnrqKfW3xOAIIJEfCcwVgCKBuL///e9VnJBkEv31r39V4EVvugRaUgI6QGhJaepj6RLQJdDqEjhcAEFO8JKRc/PNN6uYmOeff57Zs2erAFxxIUiGzd/+9jdlRRCAIKf7a665hrfeekuBBHENjBs3Tv199913q4yfSy+9lH/84x8UFhby5ptvKqBw4oknqv6S/vvss8+q4F8BApJiLABBYm/EIrF9+3a++OILFdQrrgcZS2+6BFpSAjpAaElptqOxvv32W5VloHEWxC5NvqDli7KuVlpaqgIOxT+rtWAwuB9dqwQ3SsChnHgkXVL6SNCivEoK5Y8//qgCHsW8WlcT060EJMoX5LBhw/YGI0rWg5zYpMmXdH3+XTnNxcfHH5ZdW7BiI5XVHiGP2Hf/OqpfR0tW76laLa/yt9YlAonxdiYc2++wrOFw3fRwAAQx8UuqrTz3EnT72WefKVO/PLfyHMkp/5e//CV/+MMfKCsrU1k90uRZl6we+VueyaVLl6pnVJ5bcSecdtppSvkLKBCgIABC0ny3bNmiLAoS1CvPsYAN6SPZPL1791YxECeffLK6t/xblXEO9m/ycO2Tft8jXwI6QDjy97DVVqARFC1btkydkMR/Kr5VSV+UAKu6WmwGgnwuaY8ZGRnKPyuKX9IlRSmLn1UCtUaPHq3MtpKZIF+sYq4tLi5WP+KrratJxoTb7VZpkAIw5AtUfLLyxS1pkE888YQyu0oTMCFfpPLlOWvWLOVHlhOYZFiccMIJKmXy52xef4CzbniYymqX0vYRwz6zsGEPGIjEYIbY92p/Ln/LtYP7ZvHfu67bbxnvvDOXqVOn8dH8hfzihHEttkTZKwF84hc/XO1wAISGrHXJkiXKxSCWBMnAaWzLy8tTVgRxXej1DxorPf361pCADhBaQ6rtYEw56QgYaGyTE5NEe8tppyFNTkpyImpMk1OUAAGxMhxpLWdHAZfe/lRUs0vTtL78vtdaIMAhqv0NGAkTUq+qRy0LgmZNuOPac5g6eeRecUybNpUHHniQe1+ew8O3zCAhLpntLhPVO1apIbofcyybVy1Wyl5Ak7TVa9aQmpJCl04d+H7hEvWe2Wiie/9h7Ni8llAEjhsxTJ2EF69Yiy3so1vPHpRXuSgpzFcn6rztGymp9mGxxlGUt4uszsl06tavRQPoDgdAKPfUsLJwO4MzurE4N4fJPQfz/c4NDMrIIqcsny4JqeysKuWYtM5sLM2nV0oG2yqKSbHHUe33EGexKWucyWAkFAkTDIcIhsMEQiHSnQmUeVx0T05na3kRPZM7sLmsUI25o6qEYZndWVW4nQlZx/DdrvUMSO/K2uJdDO/Yk0W7czijzzC+3r6Wk3rq2Q1H2vdBW5+vDhDa+g7p82tXEtgsAOHOpzCETXt8BeED12cIEzZaCDmSMQYDGLwuBRMO1a6ZdiLXXjBpP4Bw8cWX8PHKTVx9+hAGZY/mqQ0Ovv38f1zKZnYkZNPxlOmMXnED3S94hpQkO6+99prqf9n00xg57gx1il307l3M/Aw2bfqG8Z1KmHDFQ8p6s35TDgu/+5rs7GO44PwzGTxkjIq0nzFjBs+/8AK33nwrOzZtYtb/3lL+9dgUv+Zu6OEACM8v/5Jrj53MM8u+4NcjT+HOr97g/yaezxtrFnDVsBP5YNOPnJ09gldWfcvkXoNYmruF8d36k1dVxtCO3VmWtwWHxYbL78UfCtArJRNvMECGM5GNpXlkxiUxf+d6zuwznHc3LuXqYZP4MGc5p/QazH9+jN77r9/M5qGTL+eFFV8xY/hJPLb4Y343+gyu/fBZXjz7180Vq95fl8ABEtABgv5Q6BL4GSVQs66Iu379LPOyglgCBiIxged+cwiH3487I5tgx56ABYx+jAET9o3fKPIpY0SAxT6wEDYYMQcNXPbrE7hh0gn7AYS5c9/hqj/fw9WnH8/Nv72Bc59cyMp/X0f+qhX89dO1/OHMYaRn9ODb+R8qQ4QAhASLkfufeYGAqyoKED75FzPf9yiAMLl3iJHn36kAwoacHBZ8+y2TRg7ilnsewlVeqQBCyaaFTDrvev7++CxmP/oXXnu7fQCEn/ER0W+lS6DNSEAHCG1mK/SJHA0S8G4qYeXxT7LbZuW9AT7WpYYwY8QYDuN2dCTSJRviHJjjnUh4giFiJeitIez3YiqvxJy3GlPYT1jM1REIDDJh7G7m2uETuHbgxHpFuGrpfHLyPEw953QEajS3VVeU88kXX3DM0PEMzu7S3OEa1P9wWBAaNDH9Il0C7UwCOkBoZxuqL6dtSyBS5cPz0TZ2PDaPqh2lfJFl5IM+Qfydswkmd8eS6KRXp2Sq/TWUVPkxhSE7K43theW4XDWEXSFsW7/DFAwTPMmKNdFKUlyYy/qN49JeLReM2JalqAOEtrw7+tzakwR0gNCedlNfyxEhgXCBn/wZM3GVetiUX8M94924B52GRawGFiOvnZPN17uqeHHZbhxmK/NnDOayt3LYWFpBsCaIoWAH1qp1RE5KIDPNQqYzkb8Nm0q3+JiMjEiY7D7ZLFibgz1QgbuigvQu3fG7SnnujrsYePO9pJs8DO/RQbkG+g8YxMsvvcC1184gJ2cVF188A8leaYtNBwhtcVf0ObVHCegAoT3uqr6mNiyBCOFCPwXXvEI4YOCnjSXcNbYG16DTsCXHI3b/187N5qudLl5atjMKEK4eyGVzt7BJAII7giFvB5aqtUROiqNjByu3DDyDEzvtz4Xw3sPX4u1xCltytnH8+AH06TOaD0odfPLATYzr1pFhU6fyyuMv8c+bzyC550T+9vwcUly7Vd79caNHcPEll+sAoQ0/RfrUdAn8HBLQAcLPIeUj8B5C5yrc8EOHDlWpcA8++KCicxXuAUnXEpIjyfUWRjnJ3+7cubO6Tt6TV4fDoSoqStVF6SOpcdJP40/4+OOPGT9+vKr8KGQzwmcgJ0MJxJMxpPqjlmYp70tf+Uyu1QiUNm/erPpIaqXMU/gQ5O/HHnuM2267TUld6G1lLsJ98NFHHyl+BHkVZjuZp/AjCOeClIuW8eVajdhJcv4lUE+IbYQhT1jsZDwp0COfyfXymbwnr7LG+vPX9wcIqzcU8s8JHlwDTt8PIHy908WLBwCEaoJuP4a83Viq1iiAkJlm5unxV9EtLmW/p+z8iy/j9Mkn8sn89fzhuhMZlj2aJzc4WP3vm+idnczE8y7mlcdzePTvHaiI9OTep74iK3E3gwYOYOzQ3px76a90gHAE/rvVp6xLoCUloAOElpRmOxpLCF+EvEgY24QidtWqVao4jCjuKVOmKAKkY489ViliAQdCcHT22Wcj1euE4CglJUVRw0oxGuGoF84CYT+Uks+iXIUeVljnunfvrsCHABIZR8iL5H5aOWiN6VCIliR6XsYRoiZpwtUgxEyi5BcsWKA+GzJkiOKvv/HGGxHiGuG0l3v88Y9/VPcUetyRI0cqxkYBHffeey+3334733//vWKOFPImobft0qWLAjZCaSvgRcabNGkSkydPVhz78rkAFKG3FVAgshLSpfqq+wmRwf4WhELuGr8HICTFgxleObcv83dW89Ly3TisNr65fBCXv7uejcUegh4BCDuxKBdDHJnpZh4dezl94zrsY1gEarwB4uwWfF4PJrMZk9GEN2zAGPQSCfkx2eLw+8I4nZa95bOF3dJht1Fd4yYSDivw1hab7mJoi7uiz6k9SkAHCO1xV5u5JlGMTz75pKKHXbt2rVJ88+fPJysrS1kLTjnlFEX9KgyFolCFKVGqz4kiFhO1KG5R/sIPL/S0ciKXz0SpCgiQE7+wGgrXvChpGVeU01/+8hemT5+uFPKrr76qGOVkbOGnFwZGUQzC5iiWDDm1P/roo0phC1jRyueK9UGsEzIfKaDTq1cvxdYo8xCwoVXcE+uEKHYBIuJrF2poKZoj9xdrg4wja5c+Ut5XaHQF3Nxyyy2KBleAgFDoyvVifXjhBfHfX9sAye8DCCE//LSxiLv3WBDsifFEzPDslD6sL/bz+MItpMcl8tGV/bj0zU1sLtMsCAIQ1hKZFEdmBytXZk/kgm4j9gMIDZjIEXuJDhCO2K3TJ36ESUAHCEfYhrWF6YoFoDaVrJym5WQvpDii4I+mJmBFc1fUt25hMYwU+sm75mXKd1Sx2e3m/uNCuAdMxuy0YbJamTK4A3dO6MIPOyronBJPhwQDZ768Fo8nRKDah7kgB1v1VoKnJpCWYsRuMnP7sDMZ26FxjJT1zbWtft5UgOAPBVmev43M+CR6Jmcoi9ScOXMU+NOa7KUwdYp1TGuaC03ovMV61p6aUJ4LcBeQqzddArUl8P+IBkc9clHzyAAAAABJRU5ErkJggg==;" vertex="1" parent="1">
                    <mxGeometry x="101.02" y="449" width="197.71" height="100" as="geometry"/>
                </mxCell>
                <mxCell id="10" value="" style="shape=singleArrow;direction=north;whiteSpace=wrap;html=1;fontSize=41;fillColor=#1ba1e2;rotation=90;strokeColor=#006EAF;arrowWidth=0.3223895670572915;arrowSize=0.20571489560287637;fontColor=#ffffff;shadow=1;sketch=1;curveFitting=1;jiggle=2;" vertex="1" parent="1">
                    <mxGeometry x="360" y="449" width="79.25" height="120.3" as="geometry"/>
                </mxCell>
                <mxCell id="11" value="&lt;font style=&quot;font-size: 32px;&quot;&gt;&lt;b&gt;HOSTING STATIC WEBSITE ON&lt;/b&gt;&lt;/font&gt;" style="text;strokeColor=none;align=center;fillColor=none;html=1;verticalAlign=middle;whiteSpace=wrap;rounded=0;shadow=1;sketch=1;strokeWidth=4;" vertex="1" parent="1">
                    <mxGeometry x="460" y="260" width="310" height="90" as="geometry"/>
                </mxCell>
                <mxCell id="12" value="&lt;font color=&quot;#ff0808&quot; style=&quot;font-size: 32px;&quot;&gt;&lt;b&gt;S3 BUCKET&lt;/b&gt;&lt;/font&gt;" style="text;strokeColor=none;align=center;fillColor=none;html=1;verticalAlign=middle;whiteSpace=wrap;rounded=0;shadow=1;sketch=1;strokeWidth=4;" vertex="1" parent="1">
                    <mxGeometry x="460" y="350" width="300" height="30" as="geometry"/>
                </mxCell>
                <mxCell id="15" value="" style="outlineConnect=0;dashed=0;verticalLabelPosition=bottom;verticalAlign=top;align=center;html=1;shape=mxgraph.aws3.s3;fillColor=#E05243;gradientColor=none;rounded=1;shadow=0;sketch=0;strokeWidth=4;fontSize=32;fontColor=#FF0808;" vertex="1" parent="1">
                    <mxGeometry x="520" y="421.15" width="190" height="176" as="geometry"/>
                </mxCell>
            </root>
        </mxGraphModel>
    </diagram>
</mxfile>